<svg width="300" height="284" viewBox="0 0 300 284" fill="none" xmlns="http://www.w3.org/2000/svg">
<path d="M124.758 16.4998H156.248V214.617H259.472V97.9071" stroke="#101A21" stroke-miterlimit="10"/>
<path d="M124.547 0.0488281H0V147.613H124.547V0.0488281Z" fill="#101A21"/>
<path d="M119.111 4.92065H70.6757C70.1814 4.92065 69.7578 5.34428 69.7578 5.83852V15.2996C69.7578 15.7938 70.1814 16.2174 70.6757 16.2174H119.111C119.605 16.2174 120.028 15.7938 120.028 15.2996V5.90912C120.028 5.34428 119.605 4.92065 119.111 4.92065Z" fill="white"/>
<path d="M75.4773 8.4509C74.7006 7.67424 73.3591 7.67424 72.5825 8.4509C71.8058 9.22755 71.8058 10.569 72.5825 11.3457C73.3591 12.1224 74.7006 12.1224 75.4773 11.3457C76.2539 10.569 76.2539 9.22755 75.4773 8.4509ZM75.9715 11.4869L75.5479 11.9105L76.607 12.9696L77.0306 12.546L75.9715 11.4869Z" fill="#D8D8CB"/>
<path d="M10.2378 11.3457H8.33143L8.04902 12.2635H7.06055L8.61385 7.81543H10.026L11.5793 12.2635H10.5908L10.2378 11.3457ZM9.95534 10.569L9.2493 8.45087L8.54325 10.569H9.95534Z" fill="white"/>
<path d="M11.6504 7.81543H12.6389V11.4163H13.9804V12.1929H11.6504V7.81543Z" fill="white"/>
<path d="M14.1211 7.81543H15.1096V11.4163H16.4511V12.1929H14.1211V7.81543Z" fill="white"/>
<path d="M20.0514 11.0633C20.0514 11.2751 20.0514 11.4869 19.9808 11.6281C19.8396 11.8399 19.6984 12.0517 19.416 12.1223C19.1336 12.2635 18.8512 12.2635 18.4981 12.2635H16.5918V7.81543H18.4981C18.8512 7.81543 19.063 7.88603 19.3454 7.95664C19.5572 8.02724 19.6984 8.23906 19.8396 8.45087C19.9102 8.59208 19.9102 8.73329 19.9102 8.94511C19.9102 9.08632 19.9102 9.29813 19.8396 9.43934C19.6984 9.65115 19.4866 9.86297 19.2042 9.93357C19.416 10.0042 19.5572 10.0748 19.6984 10.1454C19.8396 10.216 19.9102 10.3572 19.9808 10.4984C19.9808 10.6396 20.0514 10.8514 20.0514 11.0633ZM17.5803 9.65115H18.1451C18.3569 9.65115 18.4981 9.65116 18.5687 9.58055C18.7099 9.50995 18.7805 9.43934 18.8512 9.36873C18.9218 9.29813 18.9218 9.15692 18.9218 9.08632C18.9218 9.01571 18.9218 8.8745 18.8512 8.8039C18.7805 8.59208 18.4981 8.52148 18.1451 8.52148H17.6509V9.65115H17.5803ZM18.9924 10.9926C18.9924 10.922 18.9924 10.8514 18.9924 10.8514C18.9924 10.7808 18.9924 10.7808 18.9218 10.7102C18.8512 10.569 18.7805 10.4984 18.6393 10.4278C18.4981 10.3572 18.3569 10.3572 18.1451 10.3572H17.5803V11.6281H18.1451C18.3569 11.6281 18.5687 11.6281 18.7099 11.5575C18.8512 11.4869 18.9218 11.4163 18.9924 11.2751C18.9924 11.2045 18.9924 11.0633 18.9924 10.9926Z" fill="white"/>
<path d="M21.1109 12.1929C20.8285 12.0517 20.6167 11.9105 20.4755 11.6281C20.3343 11.4163 20.2637 11.0633 20.2637 10.7102V7.81543H21.2521V10.6396C21.2521 10.922 21.3227 11.1339 21.464 11.3457C21.6052 11.4869 21.817 11.5575 22.17 11.5575C22.4524 11.5575 22.7348 11.4869 22.8761 11.3457C23.0173 11.2045 23.0879 10.9926 23.0879 10.6396V7.81543H24.0763V10.7102C24.0763 11.0633 24.0057 11.4163 23.8645 11.6281C23.7233 11.8399 23.5115 12.0517 23.2291 12.1929C22.9467 12.3341 22.5936 12.3341 22.17 12.3341C21.7464 12.4047 21.3934 12.3341 21.1109 12.1929Z" fill="white"/>
<path d="M25.5592 10.3572L24.0059 7.81543H25.0649L25.9828 9.43934L26.9007 7.81543H27.9597L26.4064 10.3572V12.2635H25.418V10.3572H25.5592Z" fill="white"/>
<path d="M120.027 20.1006H4.44727V142.388H120.027V20.1006Z" fill="#F5F5F3"/>
<path d="M41.7278 30.6914H13.1328V33.2332H41.7278V30.6914ZM74.2766 54.9795H13.1328V99.4605H74.2766V54.9795ZM74.6296 38.3167H13.1328V40.8585H74.6296V38.3167ZM74.6296 45.8714H13.1328V48.4132H74.6296V45.8714ZM74.6296 105.462H13.1328V108.004H74.6296V105.462ZM13.1328 119.018V121.56H114.31V119.018H13.1328ZM13.1328 129.115H114.31V126.573H13.1328V129.115Z" fill="#D8D8CB"/>
<path d="M87.9733 217.582C87.9733 217.582 101.741 220.195 113.109 194.353C124.476 168.512 122.57 124.031 122.57 124.031C122.57 124.031 87.2672 105.462 84.09 109.557C80.9128 113.652 79.3595 123.113 79.6419 126.573C79.9243 130.032 66.0858 183.198 61.0728 193.647C60.0843 195.624 42.5037 216.947 42.1507 219.7C41.021 228.102 53.2357 246.46 67.7803 242.788C73.4993 241.376 84.796 218.571 87.9733 217.582Z" fill="url(#paint0_linear_1598_37332)"/>
<path d="M203.766 28.2202H88.2567C85.7855 28.2202 83.8086 30.1971 83.8086 32.6683V194C83.8086 196.472 85.7855 198.449 88.2567 198.449H203.696C206.167 198.449 208.144 196.472 208.144 194V32.6683C208.214 30.1971 206.167 28.2202 203.766 28.2202Z" fill="#F5F5F3"/>
<path d="M208.214 40.7879V32.6683C208.214 30.1971 206.237 28.2202 203.766 28.2202H88.2567C85.7855 28.2202 83.8086 30.1971 83.8086 32.6683V40.7879H208.214Z" fill="#D8D8CB"/>
<path d="M147.564 34.6451C147.564 35.4924 146.858 36.1984 146.01 36.1984C145.163 36.1984 144.457 35.4924 144.457 34.6451C144.457 33.7978 145.163 33.0918 146.01 33.0918C146.858 33.0918 147.564 33.7978 147.564 34.6451Z" fill="#C6C5B3"/>
<path d="M147.351 34.6452C147.351 35.4219 146.716 35.9867 146.009 35.9867C145.233 35.9867 144.668 35.3513 144.668 34.6452C144.668 33.8686 145.303 33.3037 146.009 33.3037C146.786 33.3037 147.351 33.9392 147.351 34.6452Z" fill="#5C7A8E"/>
<path d="M147.14 34.6451C147.14 35.2805 146.646 35.7747 146.011 35.7747C145.375 35.7747 144.881 35.2805 144.881 34.6451C144.881 34.0096 145.375 33.5154 146.011 33.5154C146.646 33.586 147.14 34.0802 147.14 34.6451Z" fill="#416172"/>
<path d="M146.364 33.8685C146.505 34.1509 146.364 34.4333 146.011 34.6451C145.658 34.857 145.305 34.7863 145.163 34.5039C145.022 34.2215 145.163 33.9391 145.517 33.7273C145.799 33.5861 146.223 33.6567 146.364 33.8685Z" fill="url(#paint1_linear_1598_37332)"/>
<path d="M146.716 35.21C146.786 35.3512 146.716 35.4924 146.574 35.563C146.433 35.6336 146.221 35.6336 146.151 35.4924C146.08 35.3512 146.151 35.21 146.292 35.1394C146.433 35.0688 146.645 35.0688 146.716 35.21Z" fill="url(#paint2_linear_1598_37332)"/>
<path d="M83.8086 185.881V194C83.8086 196.472 85.7855 198.449 88.2567 198.449H203.696C206.167 198.449 208.144 196.472 208.144 194V185.881H83.8086Z" fill="#D8D8CB"/>
<path d="M191.41 47.354V48.5543H200.518V47.354H191.41ZM191.41 50.8842H200.518V49.684H191.41V50.8842ZM191.41 53.2848H200.518V52.0845H191.41V53.2848Z" fill="#A5B7C6"/>
<path d="M191.41 47.4246V48.6248H200.518V47.4246H191.41ZM191.41 50.9548H200.518V49.7545H191.41V50.9548ZM191.41 53.3554H200.518V52.1551H191.41V53.3554Z" fill="#E5E5E5"/>
<path d="M208.144 62.0398H83.8086V86.8221H208.144V62.0398Z" fill="white"/>
<path d="M208.144 62.0398H83.8086V62.8871H208.144V62.0398Z" fill="#E5E5E5"/>
<path d="M208.144 154.32H83.8086V178.255H208.144V154.32Z" fill="#101A21"/>
<path d="M107.814 86.8223H83.8086V110.757H107.814V86.8223Z" fill="#101A21"/>
<path d="M208.144 86.8223H107.814V110.757H208.144V86.8223Z" fill="#FCEDEA"/>
<path d="M107.814 110.828H83.8086V134.763H107.814V110.828Z" fill="#f15635"/>
<path d="M208.144 110.828H107.814V134.763H208.144V110.828Z" fill="#FFCECE"/>
<g opacity="0.18">
<path d="M124.548 40.7878H120.029V142.388H83.8086V147.613H124.548V40.7878Z" fill="#101A21"/>
</g>
<path d="M96.0227 121.63C96.7994 121.418 97.3642 120.712 97.3642 119.936C97.3642 118.947 96.5876 118.171 95.5991 118.171C94.6106 118.171 93.834 118.947 93.834 119.936C93.834 120.712 94.3282 121.418 95.0343 121.63V126.29H96.0933V125.796H96.9406V125.09H96.0933V121.63H96.0227ZM95.5991 119.23C95.9521 119.23 96.3052 119.512 96.3052 119.936C96.3052 120.359 96.0227 120.642 95.5991 120.642C95.2461 120.642 94.8931 120.359 94.8931 119.936C94.8931 119.512 95.1755 119.23 95.5991 119.23Z" fill="white"/>
<path d="M98.282 96.2833C98.282 94.8006 97.0817 93.6003 95.599 93.6003C94.1163 93.6003 92.916 94.8006 92.916 96.2833C92.916 97.766 94.1163 98.9663 95.599 98.9663C97.0817 98.9663 98.282 97.766 98.282 96.2833ZM95.599 98.9663C94.1163 98.9663 92.916 100.167 92.916 101.649C92.916 103.132 92.916 104.332 92.916 104.332H98.282C98.282 104.332 98.282 102.285 98.282 101.649C98.282 100.167 97.0817 98.9663 95.599 98.9663Z" fill="white"/>
<path d="M137.731 98.2336H138.372V101.739C138.372 102.101 138.286 102.424 138.116 102.708C137.947 102.991 137.708 103.214 137.4 103.378C137.091 103.54 136.729 103.621 136.314 103.621C135.899 103.621 135.537 103.54 135.228 103.378C134.92 103.214 134.68 102.991 134.51 102.708C134.341 102.424 134.256 102.101 134.256 101.739V98.2336H134.897V101.687C134.897 101.946 134.954 102.176 135.068 102.377C135.182 102.577 135.344 102.735 135.554 102.85C135.766 102.964 136.019 103.021 136.314 103.021C136.609 103.021 136.862 102.964 137.074 102.85C137.286 102.735 137.448 102.577 137.56 102.377C137.674 102.176 137.731 101.946 137.731 101.687V98.2336ZM142.547 99.5571C142.516 99.2951 142.39 99.0918 142.17 98.947C141.949 98.8023 141.678 98.7299 141.358 98.7299C141.124 98.7299 140.918 98.7678 140.743 98.8436C140.569 98.9194 140.432 99.0237 140.334 99.1564C140.238 99.2891 140.189 99.4399 140.189 99.6088C140.189 99.7501 140.223 99.8716 140.29 99.9732C140.359 100.073 140.447 100.157 140.554 100.224C140.661 100.289 140.773 100.344 140.89 100.387C141.007 100.428 141.115 100.462 141.213 100.488L141.751 100.632C141.889 100.669 142.042 100.719 142.211 100.782C142.382 100.846 142.544 100.933 142.699 101.043C142.856 101.152 142.986 101.292 143.087 101.462C143.189 101.633 143.24 101.842 143.24 102.09C143.24 102.376 143.165 102.635 143.015 102.866C142.867 103.097 142.65 103.28 142.363 103.416C142.079 103.553 141.734 103.621 141.327 103.621C140.948 103.621 140.619 103.559 140.342 103.437C140.066 103.315 139.849 103.144 139.691 102.925C139.534 102.706 139.445 102.452 139.424 102.163H140.086C140.103 102.363 140.171 102.528 140.288 102.659C140.407 102.788 140.557 102.885 140.737 102.949C140.92 103.011 141.117 103.042 141.327 103.042C141.572 103.042 141.791 103.002 141.986 102.923C142.181 102.842 142.335 102.73 142.449 102.587C142.562 102.442 142.619 102.273 142.619 102.08C142.619 101.904 142.57 101.761 142.472 101.651C142.374 101.541 142.245 101.451 142.084 101.382C141.924 101.313 141.751 101.253 141.565 101.201L140.913 101.015C140.5 100.896 140.172 100.726 139.931 100.506C139.69 100.285 139.569 99.9965 139.569 99.6398C139.569 99.3434 139.649 99.0849 139.809 98.8643C139.971 98.642 140.189 98.4697 140.461 98.3473C140.735 98.2232 141.041 98.1612 141.379 98.1612C141.72 98.1612 142.023 98.2224 142.288 98.3447C142.554 98.4653 142.764 98.6308 142.919 98.841C143.076 99.0513 143.159 99.29 143.167 99.5571H142.547ZM144.294 103.528V98.2336H147.489V98.8023H144.935V100.591H147.323V101.16H144.935V102.959H147.53V103.528H144.294ZM148.644 103.528V98.2336H150.433C150.847 98.2336 151.186 98.3042 151.452 98.4455C151.717 98.5851 151.913 98.7773 152.041 99.022C152.168 99.2667 152.232 99.545 152.232 99.8569C152.232 100.169 152.168 100.445 152.041 100.687C151.913 100.928 151.718 101.118 151.454 101.255C151.19 101.392 150.854 101.46 150.443 101.46H148.996V100.881H150.423C150.705 100.881 150.933 100.839 151.105 100.756C151.279 100.674 151.405 100.557 151.483 100.405C151.562 100.252 151.601 100.069 151.601 99.8569C151.601 99.645 151.562 99.4597 151.483 99.3012C151.403 99.1426 151.277 99.0203 151.103 98.9341C150.929 98.8462 150.698 98.8023 150.412 98.8023H149.285V103.528H148.644ZM151.136 101.149L152.439 103.528H151.695L150.412 101.149H151.136ZM157.498 98.2336V103.528H156.878L153.993 99.371H153.942V103.528H153.3V98.2336H153.921L156.816 102.401H156.868V98.2336H157.498ZM134.473 112.528H133.801L135.745 107.234H136.407L138.351 112.528H137.679L136.097 108.071H136.055L134.473 112.528ZM134.722 110.46H137.431V111.028H134.722V110.46ZM139.176 107.234H139.941L141.74 111.628H141.802L143.601 107.234H144.366V112.528H143.766V108.505H143.715L142.06 112.528H141.481L139.827 108.505H139.775V112.528H139.176V107.234ZM145.652 112.528V107.234H148.847V107.802H146.293V109.591H148.681V110.16H146.293V111.959H148.888V112.528H145.652Z" fill="#7A94A5"/>
<path d="M133.161 166.606H132.737V168.794H131.537V163.428H133.867C134.785 163.428 135.35 163.711 135.562 164.276C135.632 164.488 135.703 164.77 135.703 165.052C135.703 165.194 135.703 165.335 135.632 165.476C135.632 165.617 135.562 165.758 135.491 165.829C135.279 166.253 134.926 166.535 134.291 166.606L135.985 168.865H134.644L133.161 166.606ZM132.737 165.758H133.585C134.079 165.758 134.361 165.617 134.503 165.405C134.573 165.264 134.573 165.194 134.573 165.052C134.573 164.911 134.573 164.77 134.503 164.699C134.432 164.558 134.361 164.488 134.149 164.417C133.938 164.346 133.796 164.346 133.514 164.346H132.667V165.758H132.737Z" fill="white"/>
<path d="M139.021 167.735C139.092 167.665 139.092 167.594 139.092 167.524H140.222C140.222 167.877 140.01 168.159 139.798 168.441C139.586 168.583 139.374 168.724 139.163 168.794C138.88 168.865 138.598 168.936 138.315 168.936C137.821 168.936 137.468 168.865 137.115 168.653C136.762 168.441 136.55 168.23 136.409 167.877C136.268 167.594 136.197 167.312 136.197 166.888C136.197 166.676 136.197 166.535 136.268 166.394C136.268 166.253 136.338 166.111 136.409 165.97C136.55 165.617 136.762 165.405 137.115 165.194C137.468 164.982 137.821 164.911 138.245 164.911C138.668 164.911 139.092 164.982 139.374 165.194C139.728 165.405 139.939 165.617 140.081 165.97C140.151 166.182 140.222 166.323 140.222 166.535C140.222 166.747 140.292 166.959 140.292 167.241H137.256C137.256 167.453 137.327 167.594 137.327 167.735C137.468 168.018 137.751 168.159 138.245 168.159C138.527 168.159 138.81 168.088 138.951 167.947C138.951 167.877 139.021 167.806 139.021 167.735ZM137.327 166.182C137.256 166.323 137.256 166.394 137.256 166.535H139.163C139.163 166.394 139.092 166.323 139.092 166.182C139.021 166.041 138.88 165.9 138.739 165.829C138.598 165.758 138.457 165.688 138.245 165.688C137.751 165.688 137.468 165.9 137.327 166.182Z" fill="white"/>
<path d="M144.739 165.052V168.653C144.739 169.006 144.669 169.359 144.528 169.571C144.245 170.136 143.68 170.418 142.692 170.418C141.986 170.418 141.491 170.277 141.138 169.995C140.997 169.854 140.927 169.783 140.856 169.642C140.785 169.501 140.715 169.359 140.715 169.148H141.845C141.845 169.289 141.915 169.43 142.056 169.501C142.198 169.642 142.48 169.712 142.762 169.712C143.186 169.712 143.468 169.571 143.61 169.289C143.68 169.148 143.68 169.006 143.68 168.865V168.371C143.398 168.724 142.974 168.936 142.409 168.936C142.056 168.936 141.703 168.865 141.491 168.724C141.28 168.583 140.997 168.371 140.927 168.088C140.785 167.806 140.715 167.453 140.715 167.029C140.715 166.606 140.785 166.253 140.927 165.97C141.068 165.688 141.28 165.476 141.491 165.264C141.774 165.123 142.056 165.052 142.409 165.052C142.974 165.052 143.398 165.264 143.68 165.617V165.194H144.739V165.052ZM143.398 167.735C143.539 167.594 143.61 167.312 143.61 166.959V166.747C143.61 166.394 143.539 166.182 143.398 165.97C143.257 165.829 143.045 165.688 142.762 165.688C142.551 165.688 142.409 165.759 142.268 165.829C142.127 165.9 142.056 166.041 141.986 166.182C141.915 166.323 141.845 166.535 141.845 166.818C141.845 166.959 141.845 167.1 141.845 167.171C141.845 167.241 141.915 167.382 141.915 167.453C141.986 167.594 142.127 167.735 142.198 167.806C142.268 167.877 142.48 167.947 142.692 167.947C143.045 168.018 143.257 167.947 143.398 167.735Z" fill="white"/>
<path d="M145.587 164.417C145.445 164.346 145.445 164.205 145.445 163.993C145.445 163.852 145.516 163.711 145.587 163.57C145.728 163.499 145.869 163.428 146.01 163.428C146.151 163.428 146.293 163.499 146.434 163.57C146.575 163.64 146.575 163.782 146.575 163.993C146.575 164.135 146.504 164.276 146.434 164.417C146.293 164.488 146.151 164.558 146.01 164.558C145.869 164.558 145.657 164.488 145.587 164.417ZM145.445 165.052H146.504V168.794H145.445V165.052Z" fill="white"/>
<path d="M147.847 168.724C147.564 168.583 147.352 168.441 147.282 168.159C147.211 167.947 147.141 167.735 147.141 167.523H148.2C148.2 167.665 148.2 167.806 148.27 167.876C148.341 168.088 148.553 168.159 148.906 168.159C149.188 168.159 149.4 168.088 149.471 167.947C149.471 167.876 149.541 167.876 149.541 167.806C149.541 167.735 149.541 167.665 149.471 167.665C149.471 167.594 149.4 167.523 149.329 167.523C149.259 167.453 149.118 167.453 149.047 167.382C148.906 167.382 148.765 167.312 148.623 167.312C148.341 167.241 148.058 167.17 147.917 167.029C147.776 166.888 147.564 166.747 147.494 166.606C147.494 166.535 147.423 166.464 147.423 166.394C147.423 166.323 147.423 166.253 147.423 166.182C147.423 166.041 147.423 165.829 147.494 165.688C147.564 165.476 147.776 165.335 148.058 165.193C148.341 165.052 148.623 164.982 148.976 164.982C149.329 164.982 149.682 165.052 149.894 165.123C150.177 165.264 150.318 165.405 150.459 165.617C150.53 165.758 150.6 165.97 150.6 166.182H149.541C149.541 166.111 149.541 165.97 149.471 165.9C149.4 165.829 149.329 165.758 149.259 165.688C149.188 165.617 149.047 165.617 148.906 165.617C148.765 165.617 148.694 165.617 148.623 165.688C148.553 165.758 148.482 165.758 148.482 165.829C148.482 165.9 148.482 165.9 148.482 165.97C148.482 166.041 148.482 166.111 148.482 166.111C148.553 166.182 148.553 166.253 148.694 166.323C148.835 166.394 148.906 166.394 149.047 166.464C149.188 166.464 149.329 166.535 149.471 166.535C149.824 166.606 150.035 166.747 150.247 166.817C150.459 166.888 150.6 167.1 150.671 167.312C150.741 167.453 150.741 167.594 150.741 167.735C150.741 167.947 150.741 168.088 150.671 168.23C150.53 168.441 150.318 168.653 150.035 168.794C149.753 168.936 149.4 169.006 148.976 169.006C148.412 168.936 148.058 168.865 147.847 168.724Z" fill="white"/>
<path d="M151.942 168.724C151.73 168.653 151.589 168.512 151.519 168.3C151.448 168.088 151.377 167.877 151.377 167.594V165.9H150.812V165.052H151.377V164.135H152.436V165.052H153.425V165.9H152.436V167.453C152.436 167.665 152.507 167.806 152.578 167.877C152.648 167.947 152.789 168.018 153.001 168.018C153.142 168.018 153.284 168.018 153.425 167.947V168.794C153.142 168.865 152.86 168.865 152.648 168.865C152.366 168.865 152.083 168.794 151.942 168.724Z" fill="white"/>
<path d="M156.672 167.735C156.742 167.665 156.742 167.594 156.742 167.524H157.872C157.872 167.877 157.66 168.159 157.449 168.441C157.237 168.583 157.025 168.724 156.813 168.794C156.531 168.865 156.248 168.936 155.966 168.936C155.472 168.936 155.119 168.865 154.766 168.653C154.412 168.441 154.201 168.23 154.059 167.877C153.918 167.594 153.848 167.312 153.848 166.888C153.848 166.676 153.848 166.535 153.918 166.394C153.918 166.253 153.989 166.111 154.059 165.97C154.201 165.617 154.412 165.405 154.766 165.194C155.119 164.982 155.472 164.911 155.895 164.911C156.319 164.911 156.742 164.982 157.025 165.194C157.307 165.405 157.59 165.617 157.731 165.97C157.802 166.182 157.872 166.323 157.872 166.535C157.872 166.747 157.943 166.959 157.943 167.241H154.907C154.907 167.453 154.977 167.594 154.977 167.735C155.119 168.018 155.401 168.159 155.895 168.159C156.178 168.159 156.46 168.088 156.601 167.947C156.601 167.877 156.601 167.806 156.672 167.735ZM154.977 166.182C154.907 166.323 154.907 166.394 154.907 166.535H156.813C156.813 166.394 156.742 166.323 156.742 166.182C156.672 166.041 156.531 165.9 156.389 165.829C156.248 165.758 156.107 165.688 155.895 165.688C155.401 165.688 155.119 165.9 154.977 166.182Z" fill="white"/>
<path d="M158.438 165.052H159.497V165.335C159.567 165.194 159.708 165.123 159.779 165.052C159.85 164.982 159.991 164.982 160.132 164.982C160.344 164.982 160.485 165.052 160.626 165.123C160.767 165.194 160.838 165.405 160.838 165.617C160.838 165.829 160.767 165.97 160.626 166.111C160.485 166.253 160.344 166.323 160.132 166.323C159.991 166.323 159.92 166.323 159.779 166.253C159.708 166.182 159.638 166.111 159.567 166.041C159.497 166.041 159.497 166.111 159.497 166.111C159.497 166.182 159.497 166.253 159.497 166.323V168.865H158.438V165.052Z" fill="white"/>
<path d="M137.808 124.858L137.849 123.721L136.888 124.331L136.64 123.896L137.653 123.369L136.64 122.842L136.888 122.407L137.849 123.017L137.808 121.88H138.304L138.263 123.017L139.225 122.407L139.473 122.842L138.459 123.369L139.473 123.896L139.225 124.331L138.263 123.721L138.304 124.858H137.808ZM141.448 124.858L141.489 123.721L140.527 124.331L140.279 123.896L141.293 123.369L140.279 122.842L140.527 122.407L141.489 123.017L141.448 121.88H141.944L141.903 123.017L142.864 122.407L143.112 122.842L142.099 123.369L143.112 123.896L142.864 124.331L141.903 123.721L141.944 124.858H141.448ZM145.087 124.858L145.129 123.721L144.167 124.331L143.919 123.896L144.932 123.369L143.919 122.842L144.167 122.407L145.129 123.017L145.087 121.88H145.584L145.542 123.017L146.504 122.407L146.752 122.842L145.739 123.369L146.752 123.896L146.504 124.331L145.542 123.721L145.584 124.858H145.087ZM148.727 124.858L148.768 123.721L147.807 124.331L147.559 123.896L148.572 123.369L147.559 122.842L147.807 122.407L148.768 123.017L148.727 121.88H149.223L149.182 123.017L150.143 122.407L150.392 122.842L149.378 123.369L150.392 123.896L150.143 124.331L149.182 123.721L149.223 124.858H148.727ZM152.367 124.858L152.408 123.721L151.446 124.331L151.198 123.896L152.211 123.369L151.198 122.842L151.446 122.407L152.408 123.017L152.367 121.88H152.863L152.822 123.017L153.783 122.407L154.031 122.842L153.018 123.369L154.031 123.896L153.783 124.331L152.822 123.721L152.863 124.858H152.367ZM156.006 124.858L156.048 123.721L155.086 124.331L154.838 123.896L155.851 123.369L154.838 122.842L155.086 122.407L156.048 123.017L156.006 121.88H156.503L156.461 123.017L157.423 122.407L157.671 122.842L156.658 123.369L157.671 123.896L157.423 124.331L156.461 123.721L156.503 124.858H156.006ZM137.808 133.858L137.849 132.721L136.888 133.331L136.64 132.896L137.653 132.369L136.64 131.842L136.888 131.407L137.849 132.017L137.808 130.88H138.304L138.263 132.017L139.225 131.407L139.473 131.842L138.459 132.369L139.473 132.896L139.225 133.331L138.263 132.721L138.304 133.858H137.808ZM141.448 133.858L141.489 132.721L140.527 133.331L140.279 132.896L141.293 132.369L140.279 131.842L140.527 131.407L141.489 132.017L141.448 130.88H141.944L141.903 132.017L142.864 131.407L143.112 131.842L142.099 132.369L143.112 132.896L142.864 133.331L141.903 132.721L141.944 133.858H141.448ZM145.087 133.858L145.129 132.721L144.167 133.331L143.919 132.896L144.932 132.369L143.919 131.842L144.167 131.407L145.129 132.017L145.087 130.88H145.584L145.542 132.017L146.504 131.407L146.752 131.842L145.739 132.369L146.752 132.896L146.504 133.331L145.542 132.721L145.584 133.858H145.087Z" fill="#7A94A5"/>
<path d="M123.392 53.3053C123.392 54.0009 123.267 54.602 123.016 55.1086C122.764 55.6153 122.42 56.006 121.982 56.2808C121.544 56.5556 121.044 56.6929 120.481 56.6929C119.919 56.6929 119.419 56.5556 118.981 56.2808C118.543 56.006 118.198 55.6153 117.947 55.1086C117.696 54.602 117.57 54.0009 117.57 53.3053C117.57 52.6098 117.696 52.0087 117.947 51.502C118.198 50.9954 118.543 50.6047 118.981 50.3299C119.419 50.0551 119.919 49.9177 120.481 49.9177C121.044 49.9177 121.544 50.0551 121.982 50.3299C122.42 50.6047 122.764 50.9954 123.016 51.502C123.267 52.0087 123.392 52.6098 123.392 53.3053ZM122.62 53.3053C122.62 52.7343 122.524 52.2523 122.333 51.8595C122.144 51.4666 121.887 51.1693 121.563 50.9675C121.241 50.7657 120.881 50.6648 120.481 50.6648C120.082 50.6648 119.72 50.7657 119.396 50.9675C119.074 51.1693 118.818 51.4666 118.627 51.8595C118.438 52.2523 118.343 52.7343 118.343 53.3053C118.343 53.8764 118.438 54.3583 118.627 54.7512C118.818 55.144 119.074 55.4414 119.396 55.6432C119.72 55.845 120.082 55.9459 120.481 55.9459C120.881 55.9459 121.241 55.845 121.563 55.6432C121.887 55.4414 122.144 55.144 122.333 54.7512C122.524 54.3583 122.62 53.8764 122.62 53.3053ZM129.965 50.0079V56.6028H129.192L125.598 51.4247H125.534V56.6028H124.735V50.0079H125.508L129.115 55.1988H129.179V50.0079H129.965ZM131.563 56.6028V50.0079H132.361V55.8943H135.427V56.6028H131.563ZM137.462 50.0079V56.6028H136.664V50.0079H137.462ZM144.293 50.0079V56.6028H143.52L139.926 51.4247H139.862V56.6028H139.063V50.0079H139.836L143.443 55.1988H143.507V50.0079H144.293ZM145.891 56.6028V50.0079H149.871V50.7163H146.69V52.9447H149.665V53.6531H146.69V55.8943H149.923V56.6028H145.891ZM117.813 67.6028V61.1297H120C120.506 61.1297 120.921 61.2161 121.246 61.3889C121.57 61.5595 121.81 61.7945 121.966 62.0937C122.122 62.3929 122.2 62.7332 122.2 63.1146C122.2 63.496 122.122 63.8342 121.966 64.1292C121.81 64.4242 121.571 64.656 121.249 64.8245C120.926 64.991 120.514 65.0742 120.013 65.0742H118.243V64.3662H119.988C120.333 64.3662 120.611 64.3157 120.822 64.2145C121.035 64.1134 121.189 63.9701 121.284 63.7847C121.381 63.5971 121.429 63.3738 121.429 63.1146C121.429 62.8554 121.381 62.6289 121.284 62.4351C121.187 62.2412 121.032 62.0916 120.819 61.9862C120.606 61.8788 120.325 61.825 119.975 61.825H118.597V67.6028H117.813ZM120.86 64.6949L122.453 67.6028H121.543L119.975 64.6949H120.86ZM123.506 67.6028V61.1297H127.413V61.825H124.29V64.0122H127.211V64.7076H124.29V66.9074H127.464V67.6028H123.506ZM133.251 63.1525C133.181 62.9397 133.09 62.749 132.976 62.5804C132.864 62.4098 132.73 62.2644 132.574 62.1443C132.421 62.0242 132.246 61.9325 132.05 61.8693C131.854 61.8061 131.639 61.7745 131.405 61.7745C131.021 61.7745 130.673 61.8735 130.359 62.0716C130.045 62.2696 129.795 62.5615 129.61 62.9471C129.424 63.3327 129.331 63.8057 129.331 64.3662C129.331 64.9267 129.425 65.3998 129.613 65.7854C129.8 66.171 130.054 66.4628 130.375 66.6609C130.695 66.859 131.055 66.958 131.455 66.958C131.826 66.958 132.153 66.879 132.435 66.721C132.72 66.5608 132.941 66.3353 133.099 66.0446C133.259 65.7517 133.339 65.4072 133.339 65.011L133.579 65.0616H131.632V64.3662H134.098V65.0616C134.098 65.5947 133.984 66.0583 133.756 66.4523C133.531 66.8463 133.219 67.1519 132.821 67.3689C132.425 67.5838 131.97 67.6913 131.455 67.6913C130.882 67.6913 130.379 67.5564 129.945 67.2867C129.513 67.017 129.176 66.6335 128.933 66.1362C128.693 65.6389 128.573 65.0489 128.573 64.3662C128.573 63.8542 128.641 63.3938 128.778 62.985C128.917 62.5741 129.113 62.2243 129.366 61.9357C129.619 61.647 129.918 61.4257 130.264 61.2719C130.609 61.1181 130.99 61.0412 131.405 61.0412C131.746 61.0412 132.064 61.0928 132.359 61.1961C132.657 61.2972 132.921 61.4415 133.153 61.6291C133.387 61.8145 133.582 62.0368 133.737 62.296C133.893 62.5531 134.001 62.8386 134.06 63.1525H133.251ZM136.224 61.1297V67.6028H135.44V61.1297H136.224ZM141.336 62.748C141.298 62.4277 141.144 62.179 140.874 62.002C140.605 61.825 140.274 61.7365 139.882 61.7365C139.595 61.7365 139.345 61.7829 139.13 61.8756C138.917 61.9683 138.75 62.0958 138.63 62.2581C138.512 62.4203 138.453 62.6047 138.453 62.8112C138.453 62.984 138.494 63.1325 138.577 63.2568C138.661 63.379 138.768 63.4812 138.899 63.5634C139.03 63.6435 139.166 63.7099 139.31 63.7625C139.453 63.8131 139.585 63.8542 139.705 63.8858L140.362 64.0628C140.531 64.1071 140.718 64.1682 140.925 64.2461C141.134 64.3241 141.333 64.4305 141.522 64.5654C141.714 64.6981 141.872 64.8688 141.996 65.0774C142.121 65.286 142.183 65.542 142.183 65.8454C142.183 66.1952 142.091 66.5113 141.908 66.7936C141.727 67.076 141.461 67.3004 141.111 67.4669C140.764 67.6333 140.341 67.7166 139.844 67.7166C139.38 67.7166 138.979 67.6418 138.64 67.4922C138.303 67.3426 138.037 67.1339 137.843 66.8663C137.651 66.5987 137.543 66.2879 137.518 65.9339H138.327C138.348 66.1784 138.43 66.3807 138.573 66.5408C138.719 66.6988 138.902 66.8168 139.123 66.8948C139.347 66.9706 139.587 67.0086 139.844 67.0086C140.143 67.0086 140.412 66.9601 140.65 66.8632C140.888 66.7641 141.077 66.6272 141.216 66.4523C141.355 66.2753 141.424 66.0688 141.424 65.8328C141.424 65.6179 141.364 65.443 141.244 65.3081C141.124 65.1733 140.966 65.0637 140.77 64.9794C140.574 64.8951 140.362 64.8214 140.135 64.7582L139.338 64.5306C138.833 64.3852 138.432 64.1776 138.137 63.9079C137.842 63.6382 137.695 63.2853 137.695 62.8491C137.695 62.4867 137.793 62.1706 137.989 61.9009C138.187 61.6291 138.452 61.4184 138.785 61.2688C139.12 61.117 139.494 61.0412 139.907 61.0412C140.324 61.0412 140.695 61.116 141.02 61.2656C141.344 61.4131 141.601 61.6154 141.791 61.8725C141.983 62.1295 142.084 62.4214 142.094 62.748H141.336ZM143.118 61.825V61.1297H147.972V61.825H145.937V67.6028H145.153V61.825H143.118ZM149.182 67.6028V61.1297H151.369C151.875 61.1297 152.29 61.2161 152.615 61.3889C152.939 61.5595 153.179 61.7945 153.335 62.0937C153.491 62.3929 153.569 62.7332 153.569 63.1146C153.569 63.496 153.491 63.8342 153.335 64.1292C153.179 64.4242 152.94 64.656 152.618 64.8245C152.295 64.991 151.884 65.0742 151.382 65.0742H149.612V64.3662H151.357C151.702 64.3662 151.98 64.3157 152.191 64.2145C152.404 64.1134 152.558 63.9701 152.653 63.7847C152.75 63.5971 152.798 63.3738 152.798 63.1146C152.798 62.8554 152.75 62.6289 152.653 62.4351C152.556 62.2412 152.401 62.0916 152.188 61.9862C151.975 61.8788 151.694 61.825 151.344 61.825H149.966V67.6028H149.182ZM152.229 64.6949L153.822 67.6028H152.912L151.344 64.6949H152.229ZM155.141 67.6028H154.319L156.696 61.1297H157.505L159.882 67.6028H159.06L157.126 62.1538H157.075L155.141 67.6028ZM155.444 65.0742H158.757V65.7696H155.444V65.0742ZM159.78 61.825V61.1297H164.635V61.825H162.599V67.6028H161.815V61.825H159.78ZM166.628 61.1297V67.6028H165.845V61.1297H166.628ZM173.662 64.3662C173.662 65.0489 173.538 65.6389 173.292 66.1362C173.045 66.6335 172.707 67.017 172.277 67.2867C171.847 67.5564 171.357 67.6913 170.804 67.6913C170.252 67.6913 169.761 67.5564 169.332 67.2867C168.902 67.017 168.564 66.6335 168.317 66.1362C168.07 65.6389 167.947 65.0489 167.947 64.3662C167.947 63.6835 168.07 63.0935 168.317 62.5963C168.564 62.099 168.902 61.7155 169.332 61.4458C169.761 61.176 170.252 61.0412 170.804 61.0412C171.357 61.0412 171.847 61.176 172.277 61.4458C172.707 61.7155 173.045 62.099 173.292 62.5963C173.538 63.0935 173.662 63.6835 173.662 64.3662ZM172.903 64.3662C172.903 63.8057 172.809 63.3327 172.622 62.9471C172.436 62.5615 172.185 62.2696 171.866 62.0716C171.55 61.8735 171.196 61.7745 170.804 61.7745C170.413 61.7745 170.057 61.8735 169.739 62.0716C169.423 62.2696 169.171 62.5615 168.984 62.9471C168.798 63.3327 168.706 63.8057 168.706 64.3662C168.706 64.9267 168.798 65.3998 168.984 65.7854C169.171 66.171 169.423 66.4628 169.739 66.6609C170.057 66.859 170.413 66.958 170.804 66.958C171.196 66.958 171.55 66.859 171.866 66.6609C172.185 66.4628 172.436 66.171 172.622 65.7854C172.809 65.3998 172.903 64.9267 172.903 64.3662ZM180.113 61.1297V67.6028H179.354L175.827 62.5204H175.764V67.6028H174.98V61.1297H175.738L179.278 66.2247H179.341V61.1297H180.113Z" fill="#5C7A8E"/>
<path d="M94.2724 71.3373C94.2433 71.0922 94.1256 70.9019 93.9192 70.7664C93.7127 70.6309 93.4595 70.5632 93.1595 70.5632C92.9402 70.5632 92.7483 70.5987 92.5838 70.6696C92.4209 70.7406 92.2934 70.8382 92.2015 70.9624C92.1112 71.0865 92.066 71.2277 92.066 71.3857C92.066 71.518 92.0975 71.6317 92.1604 71.7268C92.2249 71.8204 92.3072 71.8986 92.4072 71.9615C92.5071 72.0228 92.612 72.0736 92.7216 72.1139C92.8313 72.1526 92.9321 72.1841 93.024 72.2082L93.5272 72.3437C93.6563 72.3776 93.7998 72.4244 93.9579 72.484C94.1175 72.5437 94.2699 72.6252 94.4151 72.7284C94.5619 72.83 94.6828 72.9606 94.778 73.1203C94.8731 73.28 94.9207 73.4759 94.9207 73.7081C94.9207 73.9759 94.8505 74.2178 94.7102 74.4339C94.5715 74.65 94.3683 74.8218 94.1006 74.9492C93.8345 75.0766 93.5111 75.1403 93.1305 75.1403C92.7757 75.1403 92.4684 75.0831 92.2088 74.9686C91.9507 74.854 91.7475 74.6944 91.5991 74.4895C91.4524 74.2847 91.3693 74.0468 91.35 73.7759H91.9693C91.9854 73.963 92.0483 74.1178 92.158 74.2404C92.2693 74.3613 92.4096 74.4516 92.5789 74.5113C92.7499 74.5694 92.9337 74.5984 93.1305 74.5984C93.3595 74.5984 93.5651 74.5613 93.7474 74.4871C93.9296 74.4113 94.074 74.3065 94.1804 74.1726C94.2869 74.0372 94.3401 73.8791 94.3401 73.6985C94.3401 73.534 94.2941 73.4001 94.2022 73.2969C94.1103 73.1937 93.9893 73.1098 93.8393 73.0453C93.6893 72.9808 93.5272 72.9243 93.3531 72.8759L92.7434 72.7018C92.3563 72.5905 92.0499 72.4316 91.8241 72.2252C91.5983 72.0187 91.4854 71.7486 91.4854 71.4147C91.4854 71.1373 91.5604 70.8954 91.7104 70.689C91.862 70.4809 92.0652 70.3197 92.3201 70.2052C92.5765 70.089 92.8628 70.031 93.1789 70.031C93.4982 70.031 93.7821 70.0882 94.0304 70.2027C94.2788 70.3156 94.4756 70.4705 94.6207 70.6672C94.7675 70.864 94.8449 71.0874 94.853 71.3373H94.2724ZM97.3877 75.1306C97.0296 75.1306 96.7208 75.0516 96.4611 74.8936C96.2031 74.7339 96.0039 74.5113 95.8636 74.2259C95.7249 73.9388 95.6555 73.6049 95.6555 73.2243C95.6555 72.8437 95.7249 72.5082 95.8636 72.2179C96.0039 71.926 96.199 71.6986 96.449 71.5357C96.7006 71.3712 96.9942 71.289 97.3296 71.289C97.5232 71.289 97.7143 71.3212 97.903 71.3857C98.0917 71.4502 98.2634 71.5551 98.4183 71.7002C98.5731 71.8438 98.6965 72.0341 98.7884 72.2711C98.8803 72.5082 98.9263 72.8001 98.9263 73.1469V73.3888H96.062V72.8953H98.3457C98.3457 72.6856 98.3037 72.4985 98.2199 72.334C98.1376 72.1695 98.0199 72.0397 97.8667 71.9446C97.7151 71.8494 97.5361 71.8018 97.3296 71.8018C97.1022 71.8018 96.9054 71.8583 96.7393 71.9712C96.5748 72.0824 96.4482 72.2276 96.3595 72.4066C96.2708 72.5856 96.2265 72.7776 96.2265 72.9824V73.3114C96.2265 73.592 96.2748 73.8299 96.3716 74.0251C96.47 74.2186 96.6063 74.3662 96.7805 74.4678C96.9546 74.5678 97.157 74.6178 97.3877 74.6178C97.5377 74.6178 97.6731 74.5968 97.7941 74.5549C97.9167 74.5113 98.0223 74.4468 98.111 74.3613C98.1997 74.2742 98.2683 74.1662 98.3166 74.0372L98.8682 74.192C98.8102 74.3791 98.7126 74.5436 98.5755 74.6855C98.4384 74.8258 98.2691 74.9355 98.0675 75.0145C97.8659 75.0919 97.6393 75.1306 97.3877 75.1306ZM101.304 75.1306C100.956 75.1306 100.656 75.0484 100.404 74.8839C100.153 74.7194 99.9593 74.4928 99.8238 74.2041C99.6883 73.9154 99.6206 73.5856 99.6206 73.2146C99.6206 72.8372 99.6899 72.5042 99.8286 72.2155C99.969 71.9252 100.164 71.6986 100.414 71.5357C100.666 71.3712 100.959 71.289 101.295 71.289C101.556 71.289 101.791 71.3373 102.001 71.4341C102.211 71.5309 102.383 71.6663 102.516 71.8405C102.65 72.0147 102.733 72.2179 102.766 72.4502H102.195C102.151 72.2808 102.054 72.1308 101.904 72.0002C101.756 71.8679 101.556 71.8018 101.304 71.8018C101.082 71.8018 100.887 71.8599 100.719 71.976C100.553 72.0905 100.423 72.2526 100.329 72.4623C100.237 72.6703 100.192 72.9147 100.192 73.1953C100.192 73.4824 100.237 73.7323 100.327 73.9452C100.419 74.1581 100.548 74.3234 100.714 74.4412C100.882 74.5589 101.079 74.6178 101.304 74.6178C101.453 74.6178 101.587 74.592 101.708 74.5404C101.829 74.4887 101.932 74.4146 102.016 74.3178C102.099 74.221 102.159 74.1049 102.195 73.9694H102.766C102.733 74.1888 102.653 74.3863 102.526 74.5621C102.4 74.7363 102.233 74.875 102.025 74.9782C101.819 75.0798 101.579 75.1306 101.304 75.1306ZM105.942 73.534V71.3373H106.513V75.0532H105.942V74.4242H105.903C105.816 74.6129 105.681 74.7734 105.497 74.9057C105.313 75.0363 105.081 75.1016 104.8 75.1016C104.568 75.1016 104.361 75.0508 104.181 74.9492C104 74.846 103.858 74.6911 103.755 74.4847C103.652 74.2767 103.6 74.0146 103.6 73.6985V71.3373H104.171V73.6598C104.171 73.9307 104.247 74.1468 104.399 74.3081C104.552 74.4694 104.747 74.55 104.984 74.55C105.126 74.55 105.27 74.5137 105.417 74.4412C105.565 74.3686 105.69 74.2573 105.79 74.1073C105.891 73.9573 105.942 73.7662 105.942 73.534ZM107.559 75.0532V71.3373H108.11V71.8986H108.149C108.217 71.7147 108.339 71.5655 108.517 71.451C108.694 71.3365 108.894 71.2793 109.117 71.2793C109.158 71.2793 109.211 71.2801 109.274 71.2817C109.337 71.2833 109.384 71.2857 109.417 71.289V71.8696C109.397 71.8647 109.353 71.8575 109.283 71.8478C109.216 71.8365 109.144 71.8309 109.068 71.8309C108.888 71.8309 108.726 71.8688 108.584 71.9446C108.444 72.0187 108.333 72.122 108.25 72.2542C108.17 72.3848 108.13 72.534 108.13 72.7018V75.0532H107.559ZM111.538 75.1306C111.18 75.1306 110.871 75.0516 110.612 74.8936C110.354 74.7339 110.154 74.5113 110.014 74.2259C109.875 73.9388 109.806 73.6049 109.806 73.2243C109.806 72.8437 109.875 72.5082 110.014 72.2179C110.154 71.926 110.35 71.6986 110.6 71.5357C110.851 71.3712 111.145 71.289 111.48 71.289C111.674 71.289 111.865 71.3212 112.053 71.3857C112.242 71.4502 112.414 71.5551 112.569 71.7002C112.724 71.8438 112.847 72.0341 112.939 72.2711C113.031 72.5082 113.077 72.8001 113.077 73.1469V73.3888H110.212V72.8953H112.496C112.496 72.6856 112.454 72.4985 112.37 72.334C112.288 72.1695 112.17 72.0397 112.017 71.9446C111.866 71.8494 111.687 71.8018 111.48 71.8018C111.253 71.8018 111.056 71.8583 110.89 71.9712C110.725 72.0824 110.599 72.2276 110.51 72.4066C110.421 72.5856 110.377 72.7776 110.377 72.9824V73.3114C110.377 73.592 110.425 73.8299 110.522 74.0251C110.62 74.2186 110.757 74.3662 110.931 74.4678C111.105 74.5678 111.308 74.6178 111.538 74.6178C111.688 74.6178 111.824 74.5968 111.945 74.5549C112.067 74.5113 112.173 74.4468 112.262 74.3613C112.35 74.2742 112.419 74.1662 112.467 74.0372L113.019 74.192C112.961 74.3791 112.863 74.5436 112.726 74.6855C112.589 74.8258 112.42 74.9355 112.218 75.0145C112.016 75.0919 111.79 75.1306 111.538 75.1306ZM92.0564 78.0987V83.0532H91.4854V78.0987H92.0564ZM94.6116 83.1306C94.2762 83.1306 93.9818 83.0508 93.7286 82.8911C93.477 82.7315 93.2803 82.5081 93.1384 82.221C92.998 81.9339 92.9279 81.5985 92.9279 81.2146C92.9279 80.8276 92.998 80.4897 93.1384 80.201C93.2803 79.9123 93.477 79.6881 93.7286 79.5285C93.9818 79.3688 94.2762 79.289 94.6116 79.289C94.9471 79.289 95.2406 79.3688 95.4922 79.5285C95.7454 79.6881 95.9422 79.9123 96.0825 80.201C96.2244 80.4897 96.2954 80.8276 96.2954 81.2146C96.2954 81.5985 96.2244 81.9339 96.0825 82.221C95.9422 82.5081 95.7454 82.7315 95.4922 82.8911C95.2406 83.0508 94.9471 83.1306 94.6116 83.1306ZM94.6116 82.6178C94.8665 82.6178 95.0761 82.5524 95.2406 82.4218C95.4051 82.2912 95.5269 82.1194 95.6059 81.9065C95.685 81.6936 95.7245 81.463 95.7245 81.2146C95.7245 80.9663 95.685 80.7348 95.6059 80.5203C95.5269 80.3058 95.4051 80.1324 95.2406 80.0002C95.0761 79.8679 94.8665 79.8018 94.6116 79.8018C94.3568 79.8018 94.1472 79.8679 93.9827 80.0002C93.8181 80.1324 93.6964 80.3058 93.6174 80.5203C93.5383 80.7348 93.4988 80.9663 93.4988 81.2146C93.4988 81.463 93.5383 81.6936 93.6174 81.9065C93.6964 82.1194 93.8181 82.2912 93.9827 82.4218C94.1472 82.5524 94.3568 82.6178 94.6116 82.6178ZM98.6668 84.5241C98.391 84.5241 98.154 84.4886 97.9556 84.4177C97.7572 84.3483 97.5919 84.2564 97.4596 84.1419C97.329 84.029 97.225 83.908 97.1476 83.779L97.6024 83.4596C97.654 83.5274 97.7193 83.6048 97.7983 83.6919C97.8774 83.7806 97.9854 83.8572 98.1225 83.9217C98.2612 83.9878 98.4426 84.0209 98.6668 84.0209C98.9668 84.0209 99.2144 83.9483 99.4095 83.8032C99.6047 83.658 99.7022 83.4306 99.7022 83.121V82.3662H99.6539C99.6119 82.4339 99.5523 82.5178 99.4748 82.6178C99.399 82.7161 99.2894 82.804 99.1458 82.8815C99.0039 82.9573 98.812 82.9952 98.5701 82.9952C98.2701 82.9952 98.0007 82.9242 97.762 82.7823C97.525 82.6403 97.3371 82.4339 97.1984 82.163C97.0613 81.892 96.9927 81.563 96.9927 81.1759C96.9927 80.7953 97.0597 80.4639 97.1935 80.1816C97.3274 79.8978 97.5137 79.6784 97.7524 79.5236C97.9911 79.3672 98.2669 79.289 98.5797 79.289C98.8217 79.289 99.0136 79.3293 99.1555 79.4099C99.299 79.4889 99.4087 79.5793 99.4845 79.6809C99.5619 79.7809 99.6216 79.8631 99.6635 79.9276H99.7216V79.3373H100.273V83.1597C100.273 83.479 100.201 83.7387 100.055 83.9386C99.9119 84.1402 99.7184 84.2878 99.4748 84.3814C99.2329 84.4765 98.9636 84.5241 98.6668 84.5241ZM98.6475 82.4823C98.8765 82.4823 99.07 82.4299 99.2281 82.325C99.3861 82.2202 99.5063 82.0694 99.5885 81.8727C99.6708 81.6759 99.7119 81.4404 99.7119 81.1662C99.7119 80.8985 99.6716 80.6622 99.591 80.4574C99.5103 80.2526 99.391 80.0921 99.2329 79.976C99.0749 79.8599 98.8797 79.8018 98.6475 79.8018C98.4056 79.8018 98.204 79.8631 98.0427 79.9857C97.883 80.1083 97.7629 80.2728 97.6822 80.4792C97.6032 80.6856 97.5637 80.9147 97.5637 81.1662C97.5637 81.4243 97.604 81.6525 97.6846 81.8509C97.7669 82.0476 97.8878 82.2025 98.0475 82.3154C98.2088 82.4267 98.4088 82.4823 98.6475 82.4823ZM101.318 83.0532V79.3373H101.889V83.0532H101.318ZM101.609 78.718C101.497 78.718 101.401 78.6801 101.321 78.6043C101.242 78.5285 101.202 78.4374 101.202 78.3309C101.202 78.2245 101.242 78.1334 101.321 78.0576C101.401 77.9818 101.497 77.9439 101.609 77.9439C101.72 77.9439 101.815 77.9818 101.894 78.0576C101.975 78.1334 102.015 78.2245 102.015 78.3309C102.015 78.4374 101.975 78.5285 101.894 78.6043C101.815 78.6801 101.72 78.718 101.609 78.718ZM103.506 80.8179V83.0532H102.935V79.3373H103.486V79.9179H103.535C103.622 79.7292 103.754 79.5776 103.932 79.4631C104.109 79.347 104.338 79.289 104.619 79.289C104.87 79.289 105.09 79.3406 105.279 79.4438C105.468 79.5454 105.615 79.7002 105.719 79.9083C105.824 80.1147 105.877 80.376 105.877 80.6921V83.0532H105.306V80.7308C105.306 80.4389 105.23 80.2115 105.078 80.0486C104.927 79.8841 104.719 79.8018 104.454 79.8018C104.272 79.8018 104.109 79.8413 103.965 79.9204C103.824 79.9994 103.711 80.1147 103.629 80.2663C103.547 80.4179 103.506 80.6018 103.506 80.8179Z" fill="#A5B7C6"/>
<path d="M91.5378 77.9321V75.297H91.8569V77.6491H93.0818V77.9321H91.5378ZM95.6967 76.6146C95.6967 76.8925 95.6465 77.1327 95.5461 77.3351C95.4458 77.5376 95.3081 77.6937 95.1331 77.8035C94.9581 77.9133 94.7582 77.9682 94.5335 77.9682C94.3088 77.9682 94.1089 77.9133 93.9339 77.8035C93.7589 77.6937 93.6213 77.5376 93.5209 77.3351C93.4205 77.1327 93.3704 76.8925 93.3704 76.6146C93.3704 76.3367 93.4205 76.0965 93.5209 75.8941C93.6213 75.6916 93.7589 75.5355 93.9339 75.4257C94.1089 75.3159 94.3088 75.261 94.5335 75.261C94.7582 75.261 94.9581 75.3159 95.1331 75.4257C95.3081 75.5355 95.4458 75.6916 95.5461 75.8941C95.6465 76.0965 95.6967 76.3367 95.6967 76.6146ZM95.3879 76.6146C95.3879 76.3864 95.3497 76.1938 95.2733 76.0369C95.1979 75.8799 95.0954 75.7611 94.9658 75.6805C94.8372 75.5998 94.6931 75.5595 94.5335 75.5595C94.374 75.5595 94.2294 75.5998 94.0999 75.6805C93.9712 75.7611 93.8687 75.8799 93.7924 76.0369C93.7169 76.1938 93.6792 76.3864 93.6792 76.6146C93.6792 76.8428 93.7169 77.0353 93.7924 77.1923C93.8687 77.3493 93.9712 77.4681 94.0999 77.5487C94.2294 77.6293 94.374 77.6696 94.5335 77.6696C94.6931 77.6696 94.8372 77.6293 94.9658 77.5487C95.0954 77.4681 95.1979 77.3493 95.2733 77.1923C95.3497 77.0353 95.3879 76.8428 95.3879 76.6146ZM96.2332 77.9321V75.297H97.1236C97.3294 75.297 97.4984 75.3322 97.6305 75.4026C97.7626 75.472 97.8604 75.5677 97.9239 75.6895C97.9873 75.8113 98.0191 75.9498 98.0191 76.1051C98.0191 76.2603 97.9873 76.398 97.9239 76.5181C97.8604 76.6382 97.763 76.7325 97.6318 76.8012C97.5006 76.8689 97.3329 76.9028 97.1287 76.9028H96.4082V76.6146H97.1184C97.2591 76.6146 97.3723 76.594 97.4581 76.5528C97.5447 76.5117 97.6073 76.4533 97.6459 76.3778C97.6854 76.3015 97.7051 76.2106 97.7051 76.1051C97.7051 75.9996 97.6854 75.9074 97.6459 75.8284C97.6065 75.7495 97.5434 75.6886 97.4568 75.6457C97.3702 75.602 97.2557 75.5801 97.1133 75.5801H96.5523V77.9321H96.2332ZM97.4735 76.7484L98.122 77.9321H97.7515L97.1133 76.7484H97.4735ZM98.5508 77.9321V75.297H100.141V75.5801H98.8699V76.4705H100.059V76.7535H98.8699V77.6491H100.162V77.9321H98.5508ZM100.716 75.297H101.097L101.993 77.4844H102.023L102.919 75.297H103.3V77.9321H103.001V75.9301H102.976L102.152 77.9321H101.864L101.04 75.9301H101.015V77.9321H100.716V75.297ZM105.278 75.297V77.9321H104.959V75.297H105.278ZM105.918 77.9321V75.297H106.808C107.015 75.297 107.184 75.3344 107.315 75.409C107.447 75.4828 107.545 75.5827 107.608 75.7088C107.672 75.8349 107.703 75.9755 107.703 76.1308C107.703 76.2861 107.672 76.4272 107.608 76.5541C107.546 76.6811 107.449 76.7823 107.317 76.8578C107.186 76.9324 107.018 76.9697 106.813 76.9697H106.175V76.6866H106.803C106.944 76.6866 107.058 76.6622 107.144 76.6133C107.23 76.5644 107.292 76.4984 107.33 76.4152C107.37 76.3311 107.39 76.2363 107.39 76.1308C107.39 76.0253 107.37 75.9309 107.33 75.8477C107.292 75.7645 107.229 75.6993 107.142 75.6522C107.056 75.6041 106.941 75.5801 106.798 75.5801H106.237V77.9321H105.918ZM109.659 75.9558C109.643 75.8254 109.58 75.7242 109.471 75.6522C109.361 75.5801 109.226 75.5441 109.067 75.5441C108.95 75.5441 108.848 75.563 108.76 75.6007C108.674 75.6384 108.606 75.6903 108.557 75.7564C108.509 75.8224 108.485 75.8975 108.485 75.9815C108.485 76.0519 108.502 76.1124 108.535 76.163C108.57 76.2127 108.613 76.2543 108.667 76.2878C108.72 76.3204 108.775 76.3474 108.834 76.3688C108.892 76.3894 108.946 76.4061 108.995 76.419L109.262 76.4911C109.331 76.5091 109.407 76.534 109.491 76.5657C109.576 76.5974 109.657 76.6407 109.734 76.6956C109.813 76.7497 109.877 76.8192 109.927 76.9041C109.978 76.989 110.003 77.0932 110.003 77.2167C110.003 77.3591 109.966 77.4878 109.891 77.6027C109.818 77.7177 109.71 77.809 109.567 77.8768C109.426 77.9446 109.254 77.9784 109.051 77.9784C108.863 77.9784 108.699 77.948 108.561 77.8871C108.424 77.8262 108.316 77.7413 108.237 77.6323C108.159 77.5234 108.115 77.3969 108.104 77.2528H108.434C108.442 77.3523 108.476 77.4346 108.534 77.4998C108.593 77.5641 108.668 77.6122 108.758 77.6439C108.849 77.6748 108.947 77.6902 109.051 77.6902C109.173 77.6902 109.282 77.6705 109.379 77.6311C109.476 77.5907 109.553 77.535 109.61 77.4638C109.666 77.3917 109.695 77.3077 109.695 77.2116C109.695 77.1241 109.67 77.0529 109.621 76.998C109.572 76.9431 109.508 76.8985 109.428 76.8642C109.348 76.8299 109.262 76.7999 109.17 76.7741L108.845 76.6815C108.64 76.6223 108.477 76.5378 108.356 76.428C108.236 76.3182 108.176 76.1745 108.176 75.997C108.176 75.8495 108.216 75.7208 108.296 75.611C108.377 75.5003 108.485 75.4146 108.62 75.3537C108.757 75.2919 108.909 75.261 109.077 75.261C109.247 75.261 109.398 75.2915 109.53 75.3524C109.662 75.4124 109.767 75.4948 109.844 75.5994C109.922 75.7041 109.963 75.8229 109.967 75.9558H109.659ZM112.257 75.297H112.576V77.0418C112.576 77.2219 112.534 77.3827 112.449 77.5243C112.365 77.6649 112.246 77.776 112.093 77.8575C111.939 77.9381 111.759 77.9784 111.552 77.9784C111.345 77.9784 111.165 77.9381 111.012 77.8575C110.858 77.776 110.739 77.6649 110.654 77.5243C110.57 77.3827 110.528 77.2219 110.528 77.0418V75.297H110.847V77.016C110.847 77.1447 110.875 77.2592 110.932 77.3596C110.989 77.4591 111.069 77.5376 111.174 77.595C111.279 77.6516 111.406 77.6799 111.552 77.6799C111.699 77.6799 111.825 77.6516 111.93 77.595C112.036 77.5376 112.117 77.4591 112.172 77.3596C112.229 77.2592 112.257 77.1447 112.257 77.016V75.297ZM113.214 75.297H113.594L114.49 77.4844H114.521L115.416 75.297H115.797V77.9321H115.499V75.9301H115.473L114.65 77.9321H114.361L113.538 75.9301H113.512V77.9321H113.214V75.297ZM92.351 81.9321H91.5378V79.297H92.387C92.6427 79.297 92.8614 79.3498 93.0432 79.4553C93.2251 79.56 93.3645 79.7105 93.4614 79.9069C93.5583 80.1025 93.6068 80.3367 93.6068 80.6094C93.6068 80.8839 93.5579 81.1202 93.4601 81.3184C93.3623 81.5157 93.2199 81.6675 93.0329 81.7739C92.8459 81.8794 92.6186 81.9321 92.351 81.9321ZM91.8569 81.6491H92.3304C92.5483 81.6491 92.7289 81.607 92.8721 81.523C93.0154 81.4389 93.1222 81.3192 93.1925 81.164C93.2628 81.0087 93.298 80.8239 93.298 80.6094C93.298 80.3967 93.2633 80.2136 93.1938 80.06C93.1243 79.9056 93.0205 79.7873 92.8824 79.7049C92.7443 79.6217 92.5723 79.5801 92.3665 79.5801H91.8569V81.6491ZM96.3654 80.6146C96.3654 80.8925 96.3152 81.1327 96.2149 81.3351C96.1145 81.5376 95.9768 81.6937 95.8018 81.8035C95.6269 81.9133 95.427 81.9682 95.2023 81.9682C94.9775 81.9682 94.7777 81.9133 94.6027 81.8035C94.4277 81.6937 94.29 81.5376 94.1897 81.3351C94.0893 81.1327 94.0391 80.8925 94.0391 80.6146C94.0391 80.3367 94.0893 80.0965 94.1897 79.8941C94.29 79.6916 94.4277 79.5355 94.6027 79.4257C94.7777 79.3159 94.9775 79.261 95.2023 79.261C95.427 79.261 95.6269 79.3159 95.8018 79.4257C95.9768 79.5355 96.1145 79.6916 96.2149 79.8941C96.3152 80.0965 96.3654 80.3367 96.3654 80.6146ZM96.0566 80.6146C96.0566 80.3864 96.0184 80.1938 95.9421 80.0369C95.8666 79.8799 95.7641 79.7611 95.6346 79.6805C95.5059 79.5998 95.3618 79.5595 95.2023 79.5595C95.0427 79.5595 94.8982 79.5998 94.7686 79.6805C94.64 79.7611 94.5375 79.8799 94.4611 80.0369C94.3857 80.1938 94.3479 80.3864 94.3479 80.6146C94.3479 80.8428 94.3857 81.0353 94.4611 81.1923C94.5375 81.3493 94.64 81.4681 94.7686 81.5487C94.8982 81.6293 95.0427 81.6696 95.2023 81.6696C95.3618 81.6696 95.5059 81.6293 95.6346 81.5487C95.7641 81.4681 95.8666 81.3493 95.9421 81.1923C96.0184 81.0353 96.0566 80.8428 96.0566 80.6146ZM96.9019 81.9321V79.297H97.221V81.6491H98.4459V81.9321H96.9019ZM101.061 80.6146C101.061 80.8925 101.011 81.1327 100.91 81.3351C100.81 81.5376 100.672 81.6937 100.497 81.8035C100.322 81.9133 100.122 81.9682 99.8976 81.9682C99.6729 81.9682 99.473 81.9133 99.298 81.8035C99.123 81.6937 98.9854 81.5376 98.885 81.3351C98.7846 81.1327 98.7345 80.8925 98.7345 80.6146C98.7345 80.3367 98.7846 80.0965 98.885 79.8941C98.9854 79.6916 99.123 79.5355 99.298 79.4257C99.473 79.3159 99.6729 79.261 99.8976 79.261C100.122 79.261 100.322 79.3159 100.497 79.4257C100.672 79.5355 100.81 79.6916 100.91 79.8941C101.011 80.0965 101.061 80.3367 101.061 80.6146ZM100.752 80.6146C100.752 80.3864 100.714 80.1938 100.637 80.0369C100.562 79.8799 100.459 79.7611 100.33 79.6805C100.201 79.5998 100.057 79.5595 99.8976 79.5595C99.7381 79.5595 99.5935 79.5998 99.464 79.6805C99.3353 79.7611 99.2328 79.8799 99.1565 80.0369C99.081 80.1938 99.0433 80.3864 99.0433 80.6146C99.0433 80.8428 99.081 81.0353 99.1565 81.1923C99.2328 81.3493 99.3353 81.4681 99.464 81.5487C99.5935 81.6293 99.7381 81.6696 99.8976 81.6696C100.057 81.6696 100.201 81.6293 100.33 81.5487C100.459 81.4681 100.562 81.3493 100.637 81.1923C100.714 81.0353 100.752 80.8428 100.752 80.6146ZM101.597 81.9321V79.297H102.488C102.694 79.297 102.863 79.3322 102.995 79.4026C103.127 79.472 103.224 79.5677 103.288 79.6895C103.351 79.8113 103.383 79.9498 103.383 80.1051C103.383 80.2603 103.351 80.398 103.288 80.5181C103.224 80.6382 103.127 80.7325 102.996 80.8012C102.865 80.8689 102.697 80.9028 102.493 80.9028H101.772V80.6146H102.483C102.623 80.6146 102.736 80.594 102.822 80.5528C102.909 80.5117 102.971 80.4533 103.01 80.3778C103.049 80.3015 103.069 80.2106 103.069 80.1051C103.069 79.9996 103.049 79.9074 103.01 79.8284C102.971 79.7495 102.908 79.6886 102.821 79.6457C102.734 79.602 102.62 79.5801 102.477 79.5801H101.916V81.9321H101.597ZM102.838 80.7484L103.486 81.9321H103.116L102.477 80.7484H102.838Z" fill="#A5B7C6"/>
<path d="M186.821 181.927C186.115 181.433 175.595 190.753 177.642 198.307C181.596 213.064 185.056 223.725 194.023 231.986C197.059 234.739 217.04 239.046 219.229 242.435C226.571 253.732 235.609 265.664 235.609 265.664C242.104 266.441 268.864 241.023 270.629 237.846C270.629 237.846 253.613 219.489 251.636 215.041C245.776 201.908 247.4 179.95 233.491 167.947C230.949 165.758 224.948 161.946 219.229 162.369C213.439 162.793 204.896 168.724 203.201 168.441C203.201 168.441 195.788 158.698 193.387 156.792C191.763 155.521 180.255 142.247 177.925 139.211C176.371 137.234 168.04 139.493 167.405 142.953C167.263 143.941 167.052 146.907 167.687 148.954C169.946 156.156 175.1 160.675 179.69 166.535C182.373 170.065 186.821 181.927 186.821 181.927Z" fill="url(#paint3_linear_1598_37332)"/>
<path d="M186.822 181.927C186.539 181.715 184.703 183.127 182.727 185.316L195.788 207.91L186.822 181.927Z" fill="url(#paint4_linear_1598_37332)"/>
<path d="M198.752 188.987C201.082 194.989 207.154 207.627 208.213 220.477C209.555 236.646 195.01 232.339 194.94 232.339L195.01 232.409C195.01 232.409 205.036 235.304 214.497 237.775C220.075 239.258 224.947 242.788 227.983 247.731L238.079 264.04C241.398 261.145 261.238 248.507 266.886 238.693L248.741 218.359C248.741 218.359 246.481 176.914 231.866 167.312C229.677 165.829 217.604 172.748 209.061 177.973C208.002 178.608 202.494 167.665 193.386 157.992C185.337 149.378 177.359 139.352 177.006 139.352C171.005 138.505 168.745 141.611 168.604 142.388C168.18 145.424 175.241 154.744 184.349 165.193C192.539 174.655 198.329 187.858 198.752 188.987Z" fill="url(#paint5_linear_1598_37332)"/>
<path d="M222.971 261.498C222.971 261.498 250.718 229.373 269.005 226.973L271.053 234.669L274.371 235.304L275.289 238.128L284.891 246.036L235.891 283.951L232.502 273.854L232.714 270.253L229.113 269.618L222.971 261.498Z" fill="#F4785D"/>
<path d="M239.916 261.287L229.184 269.689L232.784 270.324L239.916 261.287Z" fill="#f15635"/>
<path d="M271.052 234.739C271.052 234.739 262.226 236.716 242.457 253.52C242.457 253.52 248.529 243.353 270.064 231.209L271.052 234.739Z" fill="#f15635"/>
<path d="M274.372 235.375C274.372 235.375 261.804 243.282 255.803 249.213C255.803 249.213 269.288 239.682 275.29 238.199L274.372 235.375Z" fill="#f15635"/>
<path d="M169.523 142.671L172.701 147.613C176.231 145.142 180.608 144.859 180.608 144.859L177.008 139.423C177.078 139.352 172.065 139.07 169.523 142.671Z" fill="url(#paint6_linear_1598_37332)"/>
<path d="M107.886 201.837C82.6797 216.311 76.184 205.085 78.0198 203.179C83.5975 197.46 92.5644 184.186 81.55 163.358C81.55 163.358 85.5745 134.763 80.9146 129.891C76.3252 125.09 67.9939 128.055 67.9939 128.055C67.9939 128.055 67.5702 154.956 64.393 160.887C52.249 183.763 52.3196 193.294 54.5083 200.355C54.8614 201.414 45.5415 213.77 45.8945 214.758C47.1654 218.147 60.4391 237.14 70.2532 236.222C73.8541 235.869 82.7503 221.96 78.161 219.347C53.4493 205.156 79.1494 214.617 79.1494 214.617C98.0715 223.301 107.886 201.837 107.886 201.837Z" fill="url(#paint7_linear_1598_37332)"/>
<path d="M71.5947 130.809L72.0183 138.928L68.0645 139.211L68.1351 128.761H69.6178C70.7474 128.761 71.6653 129.679 71.5947 130.809Z" fill="url(#paint8_linear_1598_37332)"/>
<path d="M87.7625 238.834C87.7625 238.834 60.0148 206.709 41.7282 204.309L39.6806 212.005L36.3622 212.64L35.4443 215.464L25.7715 223.372L72.3707 262.487L74.5594 254.932L79.5724 252.744L79.29 247.095L87.7625 238.834Z" fill="#F4785D"/>
<path d="M74.6303 254.862L61.0742 239.046L79.6433 252.673L74.6303 254.862Z" fill="#f15635"/>
<path d="M39.6797 212.005C39.6797 212.005 58.1076 220.548 74.8409 240.67C74.8409 240.67 62.2026 220.618 40.5976 208.545L39.6797 212.005Z" fill="#f15635"/>
<path d="M36.3632 212.64C36.3632 212.64 48.9308 220.548 54.9323 226.478C54.9323 226.478 41.4467 216.947 35.4453 215.464L36.3632 212.64Z" fill="#f15635"/>
<path d="M291.105 122.689H208.285V145.989H291.105V122.689Z" fill="#101A21"/>
<path opacity="0.72" d="M208.355 122.689H196.141V145.989H208.355V122.689Z" fill="#101A21"/>
<path d="M223.958 135.186H222.052L221.77 136.104H220.781L222.335 131.656H223.747L225.3 136.104H224.311L223.958 135.186ZM223.747 134.48L223.041 132.362L222.335 134.48H223.747Z" fill="white"/>
<path d="M226.713 134.339H226.36V136.175H225.371V131.727H227.277C227.983 131.727 228.478 131.939 228.69 132.433C228.76 132.645 228.831 132.786 228.831 133.068C228.831 133.21 228.831 133.28 228.831 133.421C228.831 133.563 228.76 133.633 228.76 133.704C228.619 134.057 228.266 134.269 227.772 134.339L229.184 136.175H228.054L226.713 134.339ZM226.36 133.633H227.066C227.489 133.633 227.701 133.563 227.842 133.351C227.913 133.28 227.913 133.139 227.913 133.068C227.913 132.927 227.913 132.856 227.842 132.786C227.772 132.645 227.701 132.574 227.56 132.574C227.419 132.503 227.277 132.503 227.066 132.503H226.36V133.633Z" fill="white"/>
<path d="M229.254 131.727H232.219V132.503H230.242V133.563H232.219V134.339H230.242V135.469H232.219V136.246H229.254V131.727Z" fill="white"/>
<path d="M234.62 134.198L233.066 131.656H234.125L235.043 133.28L235.961 131.656H237.02L235.467 134.198V136.104H234.479V134.198H234.62Z" fill="white"/>
<path d="M237.797 136.034C237.444 135.893 237.233 135.681 237.091 135.328C236.95 135.116 236.879 134.975 236.809 134.692C236.738 134.48 236.738 134.198 236.738 133.916C236.738 133.421 236.809 133.068 236.95 132.715C237.091 132.362 237.374 132.08 237.727 131.868C238.08 131.656 238.503 131.586 238.998 131.586C239.492 131.586 239.915 131.656 240.269 131.868C240.622 132.08 240.833 132.362 241.045 132.715C241.186 133.068 241.257 133.492 241.257 133.916C241.257 134.41 241.186 134.763 241.045 135.116C240.904 135.469 240.622 135.751 240.269 135.963C239.915 136.175 239.492 136.246 238.998 136.246C238.503 136.246 238.08 136.175 237.797 136.034ZM239.986 134.834C240.057 134.692 240.057 134.622 240.127 134.48C240.127 134.339 240.198 134.198 240.198 133.986C240.198 133.774 240.198 133.633 240.127 133.492C240.127 133.351 240.057 133.21 239.986 133.139C239.916 132.927 239.774 132.786 239.562 132.715C239.351 132.645 239.139 132.574 238.856 132.574C238.574 132.574 238.362 132.645 238.221 132.715C238.08 132.786 237.939 132.998 237.797 133.139C237.727 133.28 237.727 133.421 237.656 133.563C237.656 133.704 237.586 133.845 237.586 134.057C237.586 134.269 237.586 134.41 237.656 134.551C237.656 134.692 237.727 134.834 237.797 134.975C237.868 135.187 238.009 135.328 238.221 135.398C238.433 135.469 238.645 135.54 238.927 135.54C239.421 135.398 239.774 135.187 239.986 134.834Z" fill="white"/>
<path d="M242.246 136.104C241.963 135.963 241.751 135.822 241.61 135.539C241.469 135.328 241.398 134.975 241.398 134.622V131.727H242.387V134.551C242.387 134.833 242.458 135.045 242.599 135.257C242.74 135.469 242.952 135.469 243.305 135.469C243.587 135.469 243.87 135.398 244.011 135.257C244.152 135.116 244.223 134.904 244.223 134.551V131.727H245.211V134.622C245.211 134.975 245.14 135.328 244.999 135.539C244.858 135.751 244.646 135.963 244.364 136.104C244.081 136.246 243.728 136.246 243.305 136.246C242.881 136.246 242.528 136.175 242.246 136.104Z" fill="white"/>
<path d="M247.046 136.034C246.764 135.893 246.552 135.681 246.411 135.398C246.34 135.186 246.27 134.975 246.27 134.692H247.329C247.329 134.833 247.329 134.975 247.399 135.116C247.54 135.398 247.752 135.469 248.176 135.469C248.388 135.469 248.529 135.469 248.67 135.398C248.811 135.328 248.882 135.257 248.953 135.186C249.023 135.116 249.023 135.045 249.023 134.975C249.023 134.904 249.023 134.833 248.953 134.763C248.882 134.692 248.882 134.622 248.741 134.551C248.599 134.48 248.529 134.41 248.458 134.41C248.317 134.339 248.176 134.339 247.964 134.269L247.682 134.198C247.399 134.127 247.117 134.057 246.905 133.916C246.693 133.774 246.552 133.633 246.481 133.421C246.411 133.28 246.411 133.068 246.411 132.927C246.411 132.715 246.481 132.574 246.552 132.433C246.693 132.221 246.834 132.009 247.117 131.868C247.399 131.727 247.752 131.656 248.176 131.656C248.599 131.656 248.882 131.727 249.164 131.868C249.447 132.009 249.659 132.221 249.729 132.433C249.8 132.645 249.87 132.857 249.87 133.068H248.882C248.882 132.927 248.882 132.786 248.811 132.645C248.67 132.433 248.458 132.292 248.105 132.292C247.964 132.292 247.823 132.292 247.682 132.362C247.54 132.433 247.47 132.504 247.399 132.574V132.645V132.715C247.399 132.786 247.399 132.857 247.399 132.927C247.399 132.998 247.47 133.068 247.611 133.139C247.752 133.21 247.823 133.21 247.893 133.28C248.035 133.28 248.176 133.351 248.388 133.421C248.529 133.421 248.6 133.492 248.67 133.492C248.882 133.563 249.094 133.633 249.235 133.704C249.376 133.774 249.517 133.845 249.659 133.986C249.8 134.127 249.87 134.198 249.941 134.339C250.012 134.48 250.012 134.692 250.012 134.904C250.012 135.116 249.941 135.328 249.87 135.469C249.729 135.751 249.517 135.963 249.235 136.104C248.953 136.246 248.529 136.316 248.105 136.316C247.752 136.246 247.329 136.175 247.046 136.034Z" fill="white"/>
<path d="M251.07 136.104C250.788 135.963 250.576 135.822 250.434 135.539C250.293 135.328 250.223 134.975 250.223 134.622V131.727H251.211V134.551C251.211 134.833 251.282 135.045 251.423 135.257C251.564 135.469 251.776 135.469 252.129 135.469C252.411 135.469 252.694 135.398 252.835 135.257C252.976 135.116 253.047 134.904 253.047 134.551V131.727H254.035V134.622C254.035 134.975 253.965 135.328 253.824 135.539C253.682 135.751 253.47 135.963 253.188 136.104C252.906 136.246 252.553 136.246 252.129 136.246C251.705 136.246 251.352 136.175 251.07 136.104Z" fill="white"/>
<path d="M255.73 134.339H255.377V136.175H254.389V131.727H256.295C257.001 131.727 257.495 131.939 257.707 132.433C257.778 132.645 257.848 132.786 257.848 133.068C257.848 133.21 257.848 133.28 257.848 133.421C257.848 133.563 257.778 133.633 257.778 133.704C257.637 134.057 257.283 134.269 256.789 134.339L258.201 136.175H257.072L255.73 134.339ZM255.377 133.633H256.083C256.507 133.633 256.719 133.563 256.86 133.351C256.93 133.28 256.93 133.139 256.93 133.068C256.93 132.927 256.93 132.856 256.86 132.786C256.789 132.645 256.719 132.574 256.577 132.574C256.436 132.503 256.295 132.503 256.083 132.503H255.377V133.633Z" fill="white"/>
<path d="M258.271 131.727H261.237V132.503H259.26V133.563H261.237V134.339H259.26V135.469H261.237V136.246H258.271V131.727Z" fill="white"/>
<path d="M263.074 133.633C263.215 133.421 263.286 133.21 263.356 133.068C263.427 132.927 263.427 132.786 263.427 132.715C263.427 132.574 263.356 132.433 263.286 132.362C263.215 132.292 263.074 132.221 262.862 132.221C262.579 132.221 262.368 132.292 262.297 132.504C262.297 132.574 262.226 132.645 262.226 132.645C262.226 132.715 262.226 132.786 262.226 132.857H261.309C261.309 132.715 261.309 132.574 261.309 132.504C261.309 132.433 261.379 132.292 261.379 132.221C261.45 132.009 261.662 131.798 261.873 131.727C262.085 131.586 262.438 131.586 262.791 131.586C263.144 131.586 263.356 131.656 263.639 131.727C263.85 131.798 264.062 131.939 264.133 132.151C264.274 132.292 264.274 132.504 264.274 132.786C264.274 132.927 264.274 133.068 264.203 133.21C264.133 133.351 264.062 133.563 263.921 133.774C263.78 133.986 263.568 134.339 263.215 134.834H262.226C262.721 134.269 262.933 133.916 263.074 133.633ZM262.438 136.104C262.368 136.034 262.297 135.893 262.297 135.751C262.297 135.61 262.368 135.469 262.438 135.398C262.509 135.328 262.65 135.257 262.862 135.257C263.003 135.257 263.144 135.328 263.286 135.398C263.356 135.469 263.427 135.61 263.427 135.751C263.427 135.893 263.356 136.034 263.286 136.104C263.215 136.175 263.074 136.246 262.862 136.246C262.721 136.246 262.579 136.175 262.438 136.104Z" fill="white"/>
<path d="M299.999 69.3123H208.213V97.6954H299.999V69.3123Z" fill="#f15635"/>
<path opacity="0.72" d="M208.143 69.3123H185.408V97.6954H208.143V69.3123Z" fill="#F4785D"/>
<path d="M208.071 84.0686C207.648 83.8568 207.365 83.5038 207.154 83.0095C206.942 82.5859 206.871 82.0917 206.871 81.5268C206.871 80.962 206.942 80.4678 207.154 80.0441C207.365 79.6205 207.648 79.2675 208.071 79.0557C208.495 78.8438 208.989 78.7026 209.625 78.7026C209.978 78.7026 210.331 78.7732 210.684 78.8438C210.966 78.9851 211.249 79.1263 211.46 79.3381C211.672 79.5499 211.813 79.7617 211.955 80.0441C212.096 80.3265 212.166 80.609 212.166 80.8914H210.896C210.896 80.5384 210.754 80.2559 210.543 80.0441C210.26 79.8323 209.978 79.7617 209.554 79.7617C209.272 79.7617 208.989 79.8323 208.777 79.9735C208.566 80.1147 208.424 80.2559 208.283 80.5384C208.213 80.6796 208.142 80.8208 208.142 81.0326C208.142 81.1738 208.071 81.3856 208.071 81.668C208.071 81.9505 208.071 82.1623 208.142 82.3035C208.142 82.5153 208.213 82.6565 208.283 82.7977C208.424 83.0095 208.566 83.2213 208.777 83.3626C208.989 83.5038 209.272 83.5744 209.554 83.5744C209.978 83.5744 210.331 83.4332 210.543 83.2213C210.754 83.0095 210.896 82.7271 210.896 82.4447H212.166C212.166 82.7271 212.096 83.0095 211.955 83.292C211.813 83.5744 211.672 83.7862 211.46 83.9274C211.249 84.1392 210.966 84.2804 210.613 84.4216C210.26 84.5628 209.907 84.5628 209.554 84.5628C209.06 84.4216 208.495 84.2804 208.071 84.0686Z" fill="white"/>
<path d="M213.791 84.1392C213.367 83.9274 213.085 83.645 212.873 83.292C212.732 83.0801 212.591 82.7977 212.52 82.5153C212.45 82.2329 212.379 81.8799 212.379 81.5268C212.379 80.962 212.45 80.4678 212.661 80.0441C212.873 79.6205 213.156 79.2675 213.579 79.0557C214.003 78.8438 214.497 78.7026 215.133 78.7026C215.697 78.7026 216.262 78.8438 216.686 79.0557C217.109 79.2675 217.392 79.6205 217.604 80.0441C217.815 80.4678 217.886 80.962 217.886 81.5268C217.886 82.0917 217.815 82.5859 217.604 83.0095C217.392 83.4332 217.109 83.7862 216.686 83.998C216.262 84.2098 215.768 84.351 215.133 84.351C214.638 84.4216 214.144 84.351 213.791 84.1392ZM216.474 82.6565C216.545 82.5153 216.615 82.3741 216.615 82.1623C216.615 82.0211 216.686 81.8093 216.686 81.5268C216.686 81.315 216.686 81.1032 216.615 80.8914C216.615 80.7502 216.545 80.5384 216.474 80.3971C216.333 80.1853 216.192 79.9735 215.98 79.8323C215.768 79.6911 215.486 79.6205 215.133 79.6205C214.779 79.6205 214.568 79.6911 214.356 79.8323C214.144 79.9735 214.003 80.1147 213.862 80.3971C213.791 80.5384 213.72 80.6796 213.72 80.8914C213.72 81.0326 213.65 81.2444 213.65 81.5268C213.65 81.8093 213.65 81.9505 213.72 82.1623C213.72 82.3035 213.791 82.5153 213.862 82.6565C214.003 82.8683 214.144 83.0801 214.356 83.2213C214.568 83.3626 214.85 83.4332 215.203 83.4332C215.839 83.4332 216.262 83.1507 216.474 82.6565Z" fill="white"/>
<path d="M218.309 78.844H219.509L221.98 82.5861V78.844H223.11V84.2806H221.909L219.438 80.5385V84.2806H218.309V78.844Z" fill="white"/>
<path d="M228.899 81.3151V81.6681C228.899 82.2329 228.829 82.6566 228.617 83.0802C228.405 83.5038 228.123 83.8568 227.699 84.0687C227.275 84.2805 226.852 84.4217 226.287 84.4217C225.722 84.4217 225.157 84.2805 224.733 84.0687C224.31 83.8568 224.027 83.5038 223.816 83.0096C223.604 82.5859 223.533 82.1623 223.533 81.5269C223.533 80.8914 223.604 80.4678 223.816 80.0442C224.027 79.6205 224.31 79.2675 224.733 78.9851C225.157 78.7027 225.651 78.6321 226.287 78.6321C226.64 78.6321 226.993 78.7027 227.346 78.7733C227.628 78.8439 227.911 79.0557 228.123 79.1969C228.334 79.3381 228.476 79.5499 228.617 79.8324C228.758 80.1148 228.829 80.3266 228.829 80.609H227.628C227.558 80.3266 227.487 80.0442 227.275 79.903C227.134 79.8324 226.993 79.6912 226.852 79.6912C226.71 79.6205 226.499 79.6206 226.287 79.6206C225.934 79.6206 225.722 79.6912 225.44 79.8324C225.228 79.9736 225.016 80.1148 224.945 80.3972C224.875 80.5384 224.804 80.6796 224.804 80.8914C224.804 81.0326 224.733 81.3151 224.733 81.5269C224.733 81.7387 224.733 82.0211 224.804 82.1623C224.804 82.3035 224.875 82.5153 224.945 82.6566C225.087 82.8684 225.228 83.0802 225.44 83.2214C225.651 83.3626 225.934 83.4332 226.287 83.4332C226.569 83.4332 226.852 83.3626 227.063 83.292C227.275 83.1508 227.416 83.0096 227.558 82.7978C227.628 82.7272 227.628 82.586 227.628 82.5153C227.628 82.4447 227.628 82.3035 227.699 82.2329H226.287V81.3151H228.899Z" fill="white"/>
<path d="M230.876 82.0212H230.452V84.2806H229.252V78.844H231.582C232.5 78.844 233.065 79.1264 233.276 79.6913C233.347 79.9031 233.418 80.1855 233.418 80.4679C233.418 80.6091 233.418 80.7503 233.347 80.8915C233.347 81.0327 233.276 81.1739 233.206 81.2446C232.994 81.7388 232.641 81.9506 232.006 82.0212L233.7 84.2806H232.359L230.876 82.0212ZM230.452 81.2446H231.299C231.794 81.2446 232.076 81.1033 232.217 80.8915C232.288 80.7503 232.288 80.6797 232.288 80.5385C232.288 80.3973 232.288 80.2561 232.217 80.1855C232.147 80.0443 232.076 79.9737 231.864 79.9031C231.723 79.8325 231.511 79.8325 231.229 79.8325H230.382V81.2446H230.452Z" fill="white"/>
<path d="M237.655 83.1509H235.325L234.972 84.2806H233.771L235.678 78.844H237.443L239.349 84.2806H238.149L237.655 83.1509ZM237.372 82.233L236.525 79.6913L235.678 82.233H237.372Z" fill="white"/>
<path d="M239.773 79.8325H238.502V78.844H242.244V79.8325H240.973V84.2806H239.773V79.8325Z" fill="white"/>
<path d="M243.303 84.2099C242.95 84.0687 242.738 83.8569 242.526 83.5745C242.314 83.292 242.314 82.8684 242.314 82.4448V78.9146H243.515V82.3742C243.515 82.7272 243.585 83.0096 243.797 83.2214C244.009 83.4333 244.221 83.5039 244.644 83.5039C244.997 83.5039 245.28 83.4333 245.492 83.2214C245.703 83.0096 245.774 82.7978 245.774 82.3742V78.9146H246.974V82.4448C246.974 82.939 246.904 83.292 246.763 83.5745C246.621 83.8569 246.339 84.0687 245.986 84.2099C245.633 84.3511 245.209 84.4217 244.715 84.4217C244.08 84.4217 243.656 84.3511 243.303 84.2099Z" fill="white"/>
<path d="M247.398 78.844H248.599V83.2921H250.223V84.2806H247.398V78.844Z" fill="white"/>
<path d="M254.036 83.1509H251.706L251.353 84.2806H250.152L252.059 78.844H253.824L255.73 84.2806H254.53L254.036 83.1509ZM253.753 82.233L252.906 79.6913L252.059 82.233H253.753Z" fill="white"/>
<path d="M256.154 79.8325H254.883V78.844H258.625V79.8325H257.354V84.2806H256.154V79.8325Z" fill="white"/>
<path d="M258.766 78.844H259.966V84.2806H258.766V78.844Z" fill="white"/>
<path d="M261.73 84.1392C261.307 83.9274 261.024 83.645 260.813 83.292C260.671 83.0801 260.53 82.7977 260.46 82.5153C260.389 82.2329 260.318 81.8799 260.318 81.5268C260.318 80.962 260.389 80.4678 260.601 80.0441C260.813 79.6205 261.095 79.2675 261.519 79.0557C261.942 78.8438 262.437 78.7026 263.072 78.7026C263.637 78.7026 264.202 78.8438 264.625 79.0557C265.049 79.2675 265.331 79.6205 265.543 80.0441C265.755 80.4678 265.826 80.962 265.826 81.5268C265.826 82.0917 265.755 82.5859 265.543 83.0095C265.331 83.4332 265.049 83.7862 264.625 83.998C264.202 84.2098 263.707 84.351 263.072 84.351C262.578 84.4216 262.083 84.351 261.73 84.1392ZM264.413 82.6565C264.484 82.5153 264.555 82.3741 264.555 82.1623C264.555 82.0211 264.625 81.8093 264.625 81.5268C264.625 81.315 264.625 81.1032 264.555 80.8914C264.555 80.7502 264.484 80.5384 264.413 80.3971C264.272 80.1853 264.131 79.9735 263.919 79.8323C263.707 79.6911 263.425 79.6205 263.072 79.6205C262.719 79.6205 262.507 79.6911 262.295 79.8323C262.083 79.9735 261.942 80.1147 261.801 80.3971C261.73 80.5384 261.66 80.6796 261.66 80.8914C261.66 81.0326 261.589 81.2444 261.589 81.5268C261.589 81.8093 261.589 81.9505 261.66 82.1623C261.66 82.3035 261.73 82.5153 261.801 82.6565C261.942 82.8683 262.083 83.0801 262.295 83.2213C262.507 83.3626 262.79 83.4332 263.143 83.4332C263.778 83.4332 264.202 83.1507 264.413 82.6565Z" fill="white"/>
<path d="M266.25 78.844H267.45L269.921 82.5861V78.844H271.051V84.2806H269.851L267.38 80.5385V84.2806H266.25V78.844Z" fill="white"/>
<path d="M272.322 84.1392C271.969 83.9274 271.687 83.7155 271.546 83.3625C271.475 83.1507 271.404 82.8683 271.404 82.5153H272.675C272.675 82.7271 272.675 82.8683 272.746 83.0095C272.887 83.2919 273.24 83.5037 273.734 83.5037C273.946 83.5037 274.158 83.5037 274.299 83.4331C274.44 83.3625 274.582 83.2919 274.652 83.1507C274.723 83.0095 274.723 82.9389 274.723 82.8683C274.723 82.7977 274.723 82.6565 274.652 82.5859C274.582 82.4447 274.511 82.374 274.44 82.3034C274.299 82.2328 274.229 82.1622 274.087 82.1622C273.946 82.1622 273.734 82.0916 273.522 82.021L273.169 81.9504C272.816 81.8798 272.463 81.7386 272.252 81.5974C272.04 81.4562 271.828 81.2444 271.687 81.0326C271.616 80.8207 271.546 80.6089 271.546 80.3971C271.546 80.1853 271.616 79.9735 271.687 79.7617C271.828 79.4792 272.04 79.1968 272.393 79.0556C272.746 78.9144 273.169 78.7732 273.664 78.7732C274.158 78.7732 274.582 78.8438 274.864 79.0556C275.217 79.1968 275.429 79.4792 275.57 79.7617C275.641 79.9735 275.711 80.2559 275.711 80.5383H274.511C274.511 80.3265 274.511 80.1853 274.44 80.0441C274.299 79.7617 274.017 79.6205 273.593 79.6205C273.381 79.6205 273.24 79.6205 273.099 79.6911C272.958 79.7617 272.816 79.8323 272.816 79.9735C272.816 80.0441 272.816 80.0441 272.746 80.1147C272.746 80.1853 272.746 80.1853 272.746 80.2559C272.746 80.3265 272.746 80.3971 272.816 80.4677C272.887 80.5383 272.958 80.6089 273.028 80.6795C273.169 80.7501 273.24 80.8207 273.381 80.8207C273.522 80.8207 273.734 80.8913 273.946 80.9619C274.087 81.0326 274.228 81.0326 274.228 81.0326C274.511 81.1032 274.723 81.1738 274.935 81.2444C275.146 81.315 275.288 81.4562 275.499 81.5268C275.641 81.668 275.782 81.8092 275.852 81.9504C275.923 82.1622 275.994 82.374 275.994 82.5859C275.994 82.8683 275.923 83.0801 275.852 83.2919C275.711 83.6449 275.429 83.8567 275.076 84.0686C274.723 84.2804 274.229 84.351 273.734 84.351C273.169 84.4216 272.675 84.351 272.322 84.1392Z" fill="white"/>
<path d="M276.628 84.2806C276.487 84.1394 276.416 83.9982 276.416 83.8569C276.416 83.6451 276.487 83.5039 276.628 83.3627C276.769 83.2215 276.91 83.2215 277.122 83.2215C277.334 83.2215 277.475 83.2921 277.616 83.3627C277.758 83.5039 277.828 83.6451 277.828 83.8569C277.828 84.0688 277.758 84.21 277.616 84.2806C277.475 84.3512 277.334 84.4218 277.122 84.4218C276.91 84.4218 276.769 84.3512 276.628 84.2806ZM276.557 78.844H277.758L277.616 82.5861H276.698L276.557 78.844Z" fill="white"/>
<path d="M227.419 89.5758C227.419 89.717 227.348 89.9288 227.348 90.1406H226.007C225.795 90.1406 225.654 90.1406 225.512 90.1406V90.07C225.583 89.9994 225.654 89.9994 225.654 89.9994C225.654 89.9994 225.654 89.9288 225.654 89.7876V89.3639V88.4461C225.654 88.1637 225.654 87.9519 225.654 87.8813C225.654 87.8813 225.654 87.8106 225.583 87.8106C225.583 87.8106 225.512 87.8106 225.371 87.8106V87.6694C225.512 87.6694 225.654 87.6694 225.936 87.6694C226.148 87.6694 226.571 87.6694 227.277 87.6694V87.8813C227.277 87.9519 227.277 88.0225 227.277 88.0225V88.1637H227.136C227.136 88.0225 227.136 87.8813 227.136 87.8813C227.136 87.8813 227.066 87.8812 226.924 87.8106C226.783 87.8106 226.713 87.8106 226.642 87.8106C226.501 87.8106 226.43 87.8106 226.289 87.8106C226.289 87.9519 226.289 88.0931 226.289 88.3049V88.6579C226.36 88.6579 226.43 88.6579 226.501 88.6579H226.713C226.854 88.6579 226.854 88.6579 226.924 88.6579C226.924 88.6579 226.924 88.5873 226.995 88.4461H227.136C227.136 88.5873 227.136 88.7285 227.136 88.7991C227.136 88.9403 227.136 89.0815 227.136 89.2227H226.995C226.995 89.0815 226.995 89.0109 226.995 89.0109C226.995 89.0109 226.924 88.9403 226.783 88.9403C226.713 88.9403 226.642 88.9403 226.571 88.9403C226.501 88.9403 226.43 88.9403 226.289 88.9403V89.5052C226.289 89.6464 226.289 89.7876 226.289 89.9288H226.571C226.924 89.9288 227.136 89.9288 227.207 89.8582V89.7876L227.277 89.5758H227.419Z" fill="white"/>
<path d="M229.607 90.1408C229.466 90.1408 229.324 90.1408 229.254 90.1408C229.183 90.1408 229.042 90.1408 228.901 90.1408C228.901 89.8584 228.901 89.6466 228.901 89.5054V89.1523C228.901 88.8699 228.759 88.7287 228.548 88.7287C228.406 88.7287 228.336 88.7993 228.265 88.8699C228.195 88.9405 228.195 89.0111 228.195 89.0817V89.4348C228.195 89.7172 228.195 89.929 228.195 89.9996C228.195 90.0702 228.265 90.0702 228.406 90.0702V90.2114C228.336 90.2114 228.124 90.2114 227.912 90.2114C227.7 90.2114 227.559 90.2114 227.418 90.2114V90.0702C227.559 90.0702 227.63 90.0702 227.63 90.0702L227.7 89.9996C227.7 89.8584 227.7 89.7172 227.7 89.5054V89.2229C227.7 89.0111 227.7 88.8699 227.7 88.7993L227.63 88.7287C227.63 88.7287 227.559 88.7287 227.489 88.7287V88.6581C227.7 88.6581 227.912 88.5875 228.195 88.5169H228.265V88.7993L228.548 88.5169C228.618 88.5169 228.689 88.4463 228.83 88.4463C229.042 88.4463 229.183 88.5169 229.254 88.5875C229.324 88.6581 229.395 88.7993 229.395 89.0111C229.395 89.0111 229.395 89.0817 229.395 89.2229C229.395 89.3641 229.395 89.4348 229.395 89.5054C229.395 89.7172 229.395 89.7878 229.395 89.8584C229.395 89.929 229.395 89.929 229.466 89.929C229.466 89.929 229.536 89.929 229.677 89.929V90.1408H229.607Z" fill="white"/>
<path d="M230.455 88.4461C230.455 88.5167 230.455 88.7286 230.455 89.011V89.2934V89.7876C230.455 90.1407 230.455 90.4231 230.384 90.6349C230.313 90.8467 230.172 90.9879 229.96 91.0585C229.89 91.0585 229.819 91.1291 229.749 91.1291H229.678L229.607 90.9879H229.678C229.819 90.9879 229.89 90.9173 229.96 90.7761C230.031 90.6349 230.031 90.3525 230.031 89.8582V89.1522C230.031 88.9404 230.031 88.7992 230.031 88.7286C230.031 88.7286 230.031 88.6579 229.96 88.6579C229.96 88.6579 229.89 88.6579 229.819 88.6579V88.5874C229.89 88.5874 230.172 88.5167 230.455 88.4461ZM230.455 87.8813C230.455 87.9519 230.455 88.0225 230.384 88.0931C230.313 88.1637 230.243 88.1637 230.172 88.1637C230.102 88.1637 230.031 88.1637 229.96 88.0931C229.89 88.0225 229.89 87.9519 229.89 87.8813C229.89 87.8107 229.89 87.7401 229.96 87.6695C230.031 87.5989 230.102 87.5989 230.172 87.5989C230.243 87.5989 230.313 87.5989 230.384 87.6695C230.384 87.7401 230.455 87.7401 230.455 87.8813Z" fill="white"/>
<path d="M232.574 89.2935C232.574 89.7171 232.433 89.9995 232.15 90.1408C232.009 90.2114 231.868 90.282 231.656 90.282C231.373 90.282 231.162 90.2114 231.02 90.0702C230.879 89.9289 230.809 89.7171 230.809 89.3641C230.809 88.9405 230.95 88.6581 231.232 88.5875C231.373 88.5169 231.515 88.5168 231.726 88.5168C232.15 88.5168 232.362 88.6581 232.503 88.9405C232.574 88.9405 232.574 89.0817 232.574 89.2935ZM232.079 89.4347C232.079 89.1523 232.079 88.9405 232.009 88.7993C231.938 88.6581 231.868 88.5875 231.726 88.5875C231.515 88.5875 231.373 88.7993 231.373 89.2229C231.373 89.7877 231.515 90.0702 231.797 90.0702C231.938 90.0702 232.079 89.9995 232.15 89.7877C232.079 89.7171 232.079 89.5759 232.079 89.4347Z" fill="white"/>
<path d="M234.62 88.5874C234.549 88.5874 234.478 88.658 234.408 88.658C234.408 88.658 234.337 88.7992 234.266 88.9404C234.125 89.2935 233.984 89.5759 233.843 89.7877L233.56 90.4937C233.49 90.7055 233.349 90.8468 233.278 90.988C233.207 91.0586 233.066 91.1292 232.925 91.1292C232.854 91.1292 232.713 91.1292 232.643 91.0586C232.643 90.988 232.713 90.8468 232.713 90.7055H232.784C232.854 90.7762 232.925 90.8468 233.066 90.8468C233.207 90.8468 233.278 90.7055 233.419 90.4937L233.49 90.3525L232.925 88.8698C232.925 88.7992 232.854 88.7286 232.854 88.7286C232.854 88.7286 232.784 88.7286 232.713 88.7286V88.658C232.784 88.658 232.925 88.658 233.137 88.658C233.349 88.658 233.49 88.658 233.631 88.658V88.7286C233.49 88.7286 233.419 88.7286 233.419 88.7992V88.8698C233.419 88.9404 233.49 89.011 233.49 89.0816L233.772 89.7877L233.913 89.4347C234.055 89.0816 234.125 88.8698 234.125 88.7992C234.125 88.7286 234.055 88.7286 233.913 88.7286V88.658C233.984 88.658 234.125 88.658 234.266 88.658C234.337 88.658 234.478 88.658 234.549 88.658V88.5874H234.62Z" fill="white"/>
<path d="M237.373 88.5874C237.303 88.5874 237.232 88.658 237.162 88.658C237.162 88.658 237.091 88.7992 237.02 88.9404C236.879 89.2935 236.738 89.5759 236.597 89.7877L236.314 90.4937C236.244 90.7055 236.103 90.8468 236.032 90.988C235.961 91.0586 235.82 91.1292 235.679 91.1292C235.608 91.1292 235.467 91.1292 235.396 91.0586C235.396 90.988 235.467 90.8468 235.467 90.7055H235.538C235.608 90.7762 235.679 90.8468 235.82 90.8468C235.961 90.8468 236.032 90.7055 236.173 90.4937L236.244 90.3525L235.679 88.8698C235.679 88.7992 235.608 88.7286 235.608 88.7286C235.608 88.7286 235.538 88.7286 235.467 88.7286V88.658C235.538 88.658 235.679 88.658 235.891 88.658C236.103 88.658 236.244 88.658 236.385 88.658V88.7286C236.244 88.7286 236.173 88.7286 236.173 88.7992V88.8698C236.173 88.9404 236.244 89.011 236.244 89.0816L236.526 89.7877L236.667 89.4347C236.809 89.0816 236.879 88.8698 236.879 88.7992C236.879 88.7286 236.809 88.7286 236.667 88.7286V88.658C236.738 88.658 236.879 88.658 237.02 88.658C237.091 88.658 237.232 88.658 237.303 88.658V88.5874H237.373Z" fill="white"/>
<path d="M239.21 89.2935C239.21 89.7171 239.069 89.9995 238.787 90.1408C238.646 90.2114 238.504 90.282 238.293 90.282C238.01 90.282 237.798 90.2114 237.657 90.0702C237.516 89.9289 237.445 89.7171 237.445 89.3641C237.445 88.9405 237.587 88.6581 237.869 88.5875C238.01 88.5169 238.151 88.5168 238.363 88.5168C238.787 88.5168 238.999 88.6581 239.14 88.9405C239.14 88.9405 239.21 89.0817 239.21 89.2935ZM238.646 89.4347C238.646 89.1523 238.646 88.9405 238.575 88.7993C238.504 88.6581 238.434 88.5875 238.293 88.5875C238.081 88.5875 237.94 88.7993 237.94 89.2229C237.94 89.7877 238.081 90.0702 238.363 90.0702C238.504 90.0702 238.646 89.9995 238.716 89.7877C238.646 89.7171 238.646 89.5759 238.646 89.4347Z" fill="white"/>
<path d="M241.398 90.1408C241.186 90.1408 241.115 90.1408 241.045 90.1408C240.974 90.1408 240.974 90.1408 240.833 90.1408C240.762 90.1408 240.692 90.1408 240.621 90.1408C240.621 90.0702 240.621 89.929 240.621 89.8584C240.55 89.929 240.48 89.9996 240.268 90.1408C240.197 90.1408 240.127 90.2114 239.986 90.2114C239.844 90.2114 239.703 90.1408 239.562 90.0702C239.491 89.9996 239.421 89.8584 239.421 89.7172C239.421 89.7172 239.421 89.6466 239.421 89.576C239.421 89.5054 239.421 89.4347 239.421 89.3641V89.1523C239.421 88.9405 239.421 88.7993 239.421 88.7287L239.35 88.6581C239.35 88.6581 239.28 88.6581 239.209 88.6581V88.5875C239.421 88.5875 239.703 88.5169 239.915 88.4463H239.986C239.986 88.6581 239.986 88.7993 239.986 89.0111V89.3641C239.986 89.5054 239.986 89.6466 239.986 89.7172C239.986 89.7878 240.056 89.8584 240.056 89.8584C240.127 89.929 240.197 89.929 240.268 89.929C240.339 89.929 240.48 89.929 240.55 89.8584C240.621 89.7878 240.621 89.7172 240.692 89.6466C240.692 89.576 240.692 89.576 240.692 89.5054V89.2229C240.692 89.0111 240.692 88.8699 240.692 88.7993L240.621 88.7287C240.621 88.7287 240.55 88.7287 240.48 88.7287V88.6581C240.692 88.6581 240.974 88.5875 241.186 88.5169H241.257C241.257 88.7287 241.257 88.8699 241.257 89.0817V89.6466C241.257 89.929 241.257 90.0702 241.257 90.0702C241.257 90.0702 241.257 90.0702 241.327 90.0702C241.327 90.0702 241.398 90.0702 241.539 90.0702V90.1408H241.398Z" fill="white"/>
<path d="M242.81 88.4461V88.7286C242.81 88.7992 242.81 88.8698 242.81 88.8698H242.739C242.669 88.7992 242.598 88.7286 242.528 88.7286C242.457 88.7286 242.386 88.7286 242.316 88.7992C242.245 88.8698 242.245 88.9404 242.245 89.011V89.4346C242.245 89.5052 242.245 89.6464 242.245 89.7876C242.245 89.8582 242.245 89.8582 242.316 89.8582C242.316 89.8582 242.457 89.8582 242.598 89.8582V89.9995C242.386 89.9995 242.245 89.9995 242.033 89.9995C241.821 89.9995 241.68 89.9995 241.539 89.9995V89.8582C241.68 89.8582 241.751 89.8582 241.751 89.8582L241.821 89.7876C241.821 89.6464 241.821 89.5052 241.821 89.2934V89.011C241.821 88.7992 241.821 88.658 241.821 88.5874L241.751 88.5167C241.751 88.5167 241.68 88.5167 241.61 88.5167V88.4461C241.821 88.4461 242.033 88.3755 242.316 88.3049H242.386V88.658C242.457 88.5874 242.528 88.4461 242.669 88.3755C242.739 88.3049 242.81 88.3049 242.881 88.3049C242.669 88.4461 242.739 88.4461 242.81 88.4461Z" fill="white"/>
<path d="M244.928 89.5758C244.928 89.7876 244.857 89.9288 244.716 89.9994C244.575 90.07 244.363 90.1406 244.151 90.1406C244.01 90.1406 243.798 90.1406 243.586 90.07C243.586 89.9288 243.586 89.8582 243.586 89.7876V89.5758H243.727C243.727 89.717 243.727 89.7876 243.727 89.7876C243.798 89.9288 243.939 89.9994 244.151 89.9994C244.292 89.9994 244.363 89.9994 244.434 89.9288C244.504 89.8582 244.504 89.7876 244.504 89.717C244.504 89.5758 244.433 89.5052 244.363 89.5052C244.292 89.5052 244.222 89.5052 244.08 89.4346C243.869 89.364 243.727 89.364 243.657 89.2934C243.586 89.2227 243.516 89.0815 243.516 88.9403C243.516 88.7991 243.586 88.6579 243.727 88.5167C243.869 88.3755 244.01 88.3755 244.292 88.3755C244.504 88.3755 244.645 88.3755 244.787 88.4461C244.787 88.5167 244.787 88.6579 244.787 88.8697H244.645C244.645 88.7991 244.645 88.7285 244.645 88.6579C244.575 88.5873 244.433 88.5167 244.292 88.5167C244.222 88.5167 244.151 88.5167 244.08 88.5873C244.01 88.6579 244.01 88.6579 244.01 88.7991C244.01 88.8697 244.08 88.9403 244.151 89.0109C244.222 89.0109 244.292 89.0109 244.434 89.0815C244.645 89.1521 244.787 89.1521 244.857 89.2227C244.928 89.364 244.928 89.4346 244.928 89.5758Z" fill="white"/>
<path d="M247.118 90.1407C246.977 90.1407 246.836 90.1407 246.765 90.1407C246.695 90.1407 246.553 90.1407 246.412 90.1407C246.412 89.8583 246.412 89.6465 246.412 89.5053V89.1522C246.412 88.8698 246.271 88.7286 246.059 88.7286C245.918 88.7286 245.847 88.7992 245.777 88.8698C245.706 88.9404 245.706 89.011 245.706 89.0816V89.2934C245.706 89.5053 245.706 89.7171 245.706 89.8583C245.706 89.9289 245.706 89.9289 245.777 89.9289C245.777 89.9289 245.847 89.9289 245.988 89.9289V90.0701C245.847 90.0701 245.706 90.0701 245.494 90.0701C245.282 90.0701 245.141 90.0701 245 90.0701V89.9289C245.141 89.9289 245.212 89.9289 245.212 89.9289L245.282 89.8583C245.282 89.7171 245.282 89.4346 245.282 89.0816V88.5168C245.282 88.2344 245.282 88.0932 245.282 87.9519C245.282 87.8813 245.282 87.8813 245.212 87.8813C245.212 87.8813 245.141 87.8813 245 87.8813V87.6695C245.212 87.6695 245.494 87.5989 245.706 87.5283H245.777C245.777 87.5283 245.777 87.5989 245.777 87.6695C245.777 87.9519 245.777 88.2344 245.777 88.5874V88.658L246.13 88.3756C246.2 88.3756 246.271 88.305 246.412 88.305C246.624 88.305 246.765 88.3756 246.836 88.4462C246.906 88.5168 246.977 88.658 246.977 88.8698C246.977 88.8698 246.977 88.9404 246.977 89.0816C246.977 89.2228 246.977 89.2934 246.977 89.4346C246.977 89.6465 246.977 89.7171 246.977 89.7877C246.977 89.8583 246.977 89.8583 247.048 89.8583C247.048 89.8583 247.118 89.8583 247.259 89.8583V90.1407H247.118Z" fill="white"/>
<path d="M249.023 89.2935C249.023 89.7171 248.882 89.9995 248.599 90.1408C248.458 90.2114 248.317 90.282 248.105 90.282C247.823 90.282 247.611 90.2114 247.47 90.0702C247.328 89.9289 247.258 89.7171 247.258 89.3641C247.258 88.9405 247.399 88.6581 247.681 88.5875C247.823 88.5169 247.964 88.5168 248.176 88.5168C248.599 88.5168 248.811 88.6581 248.952 88.9405C248.952 88.9405 249.023 89.0817 249.023 89.2935ZM248.529 89.4347C248.529 89.1523 248.529 88.9405 248.458 88.7993C248.387 88.6581 248.317 88.5875 248.176 88.5875C247.964 88.5875 247.823 88.7993 247.823 89.2229C247.823 89.7877 247.964 90.0702 248.246 90.0702C248.387 90.0702 248.529 89.9995 248.599 89.7877C248.529 89.7171 248.529 89.5759 248.529 89.4347Z" fill="white"/>
<path d="M251.141 89.1523C251.141 89.2935 251.141 89.4347 251.071 89.5759C251 89.6465 251 89.7877 250.929 89.7877C250.929 89.7877 250.859 89.8583 250.788 89.9289C250.718 89.9995 250.576 90.0702 250.506 90.1408C250.435 90.2114 250.365 90.2114 250.223 90.2114C250.082 90.2114 250.012 90.2114 249.87 90.1408V90.7762C249.87 90.8468 249.87 90.8468 249.87 90.9174C249.87 90.9174 249.87 90.9174 249.941 90.9174C249.941 90.9174 250.012 90.9174 250.153 90.9174V91.0586C250.012 91.0586 249.8 91.0586 249.588 91.0586C249.447 91.0586 249.306 91.0586 249.094 91.0586V90.988C249.235 90.988 249.306 90.988 249.306 90.988C249.306 90.988 249.306 90.9174 249.306 90.8468C249.306 90.7762 249.306 90.7056 249.306 90.5644V90.282V89.2229C249.306 89.2229 249.306 89.1523 249.306 88.9405C249.306 88.8699 249.306 88.7993 249.306 88.7993C249.306 88.7993 249.306 88.7287 249.235 88.7287C249.235 88.7287 249.164 88.7287 249.094 88.7287V88.6581C249.306 88.6581 249.588 88.5875 249.8 88.5168H249.87C249.87 88.5875 249.87 88.6581 249.87 88.7993C249.941 88.7287 250.082 88.6581 250.153 88.5875C250.223 88.5169 250.294 88.5168 250.435 88.5168C250.718 88.5168 250.929 88.6581 251.071 88.8699C251.141 88.8699 251.141 89.0111 251.141 89.1523ZM250.647 89.3641C250.647 89.0817 250.576 88.9405 250.435 88.8699C250.365 88.7993 250.294 88.7993 250.223 88.7993C250.082 88.7993 249.941 88.8699 249.87 89.0111V89.8583C250.012 89.9996 250.082 89.9996 250.223 89.9996C250.435 89.9996 250.576 89.9289 250.647 89.7171C250.647 89.5759 250.647 89.5053 250.647 89.3641Z" fill="white"/>
<path d="M253.26 89.1523C253.26 89.2935 253.26 89.4347 253.19 89.5759C253.119 89.6465 253.119 89.7877 253.049 89.7877C253.049 89.7877 252.978 89.8583 252.907 89.9289C252.837 89.9995 252.696 90.0702 252.625 90.1408C252.554 90.2114 252.484 90.2114 252.343 90.2114C252.201 90.2114 252.131 90.2114 251.99 90.1408V90.7762C251.99 90.8468 251.99 90.8468 251.99 90.9174C251.99 90.9174 251.99 90.9174 252.06 90.9174C252.06 90.9174 252.131 90.9174 252.272 90.9174V91.0586C252.131 91.0586 251.919 91.0586 251.707 91.0586C251.566 91.0586 251.425 91.0586 251.213 91.0586V90.988C251.354 90.988 251.425 90.988 251.425 90.988C251.425 90.988 251.425 90.9174 251.425 90.8468C251.425 90.7762 251.425 90.7056 251.425 90.5644V90.282V89.2229C251.425 89.2229 251.425 89.1523 251.425 88.9405C251.425 88.8699 251.425 88.7993 251.425 88.7993C251.425 88.7993 251.425 88.7287 251.354 88.7287C251.354 88.7287 251.283 88.7287 251.213 88.7287V88.6581C251.425 88.6581 251.707 88.5875 251.919 88.5168H251.99C251.99 88.5875 251.99 88.6581 251.99 88.7993C252.06 88.7287 252.201 88.6581 252.272 88.5875C252.343 88.5169 252.413 88.5168 252.554 88.5168C252.837 88.5168 253.049 88.6581 253.19 88.8699C253.26 88.8699 253.26 89.0111 253.26 89.1523ZM252.837 89.3641C252.837 89.0817 252.766 88.9405 252.625 88.8699C252.554 88.7993 252.484 88.7993 252.413 88.7993C252.272 88.7993 252.131 88.8699 252.06 89.0111V89.8583C252.201 89.9996 252.272 89.9996 252.413 89.9996C252.625 89.9996 252.766 89.9289 252.837 89.7171C252.766 89.5759 252.837 89.5053 252.837 89.3641Z" fill="white"/>
<path d="M254.461 90.1407C254.32 90.1407 254.179 90.1407 253.967 90.1407C253.755 90.1407 253.614 90.1407 253.473 90.1407V89.9994C253.614 89.9994 253.684 89.9994 253.684 89.9994L253.755 89.9288C253.755 89.7876 253.755 89.6464 253.755 89.4346V89.1522C253.755 88.9404 253.755 88.7992 253.755 88.7286L253.684 88.6579C253.684 88.6579 253.614 88.6579 253.543 88.6579V88.5874C253.755 88.5874 254.037 88.5167 254.249 88.4461H254.32C254.32 88.658 254.32 88.8698 254.32 89.011V89.5758C254.32 89.6464 254.32 89.7876 254.32 89.9288C254.32 89.9994 254.32 89.9994 254.391 89.9994C254.391 89.9994 254.461 89.9994 254.602 89.9994V90.1407H254.461ZM254.179 87.8813C254.179 87.9519 254.179 88.0225 254.108 88.0931C254.037 88.1637 253.967 88.1637 253.896 88.1637C253.826 88.1637 253.755 88.1637 253.684 88.0931C253.614 88.0225 253.614 87.9519 253.614 87.8813C253.614 87.8107 253.614 87.7401 253.684 87.6695C253.755 87.5989 253.826 87.5989 253.896 87.5989C253.967 87.5989 254.037 87.5989 254.108 87.6695C254.179 87.7401 254.179 87.7401 254.179 87.8813Z" fill="white"/>
<path d="M256.579 90.1408C256.438 90.1408 256.297 90.1408 256.226 90.1408C256.156 90.1408 256.015 90.1408 255.873 90.1408C255.873 89.8584 255.873 89.6466 255.873 89.5054V89.1523C255.873 88.8699 255.732 88.7287 255.52 88.7287C255.379 88.7287 255.308 88.7993 255.238 88.8699C255.167 88.9405 255.167 89.0111 255.167 89.0817V89.4348C255.167 89.7172 255.167 89.929 255.167 89.9996C255.167 90.0702 255.238 90.0702 255.379 90.0702V90.2114C255.309 90.2114 255.097 90.2114 254.885 90.2114C254.673 90.2114 254.532 90.2114 254.391 90.2114V90.0702C254.532 90.0702 254.602 90.0702 254.602 90.0702L254.673 89.9996C254.673 89.8584 254.673 89.7172 254.673 89.5054V89.2229C254.673 89.0111 254.673 88.8699 254.673 88.7993L254.602 88.7287C254.602 88.7287 254.532 88.7287 254.461 88.7287V88.6581C254.673 88.6581 254.885 88.5875 255.167 88.5169H255.238V88.7993L255.52 88.5169C255.591 88.5169 255.662 88.4463 255.803 88.4463C256.015 88.4463 256.156 88.5169 256.226 88.5875C256.297 88.6581 256.368 88.7993 256.368 89.0111C256.368 89.0111 256.368 89.0817 256.368 89.2229C256.368 89.3641 256.368 89.4348 256.368 89.5054C256.368 89.7172 256.368 89.7878 256.368 89.8584C256.368 89.929 256.368 89.929 256.438 89.929C256.438 89.929 256.509 89.929 256.65 89.929V90.1408H256.579Z" fill="white"/>
<path d="M258.554 90.282C258.554 90.5644 258.484 90.7762 258.272 90.9175C258.06 91.0587 257.778 91.1293 257.495 91.1293C257.213 91.1293 257.072 91.0587 256.931 90.9881C256.789 90.9175 256.719 90.7762 256.719 90.635C256.719 90.5644 256.719 90.4232 256.789 90.4232C256.789 90.4232 256.86 90.3526 257.001 90.282C257.072 90.282 257.072 90.2114 257.142 90.2114C257.001 90.2114 256.86 90.0702 256.86 89.9996C256.86 89.929 256.86 89.8584 256.931 89.7878C256.931 89.7878 257.001 89.7878 257.001 89.7172C257.001 89.7172 257.072 89.6466 257.142 89.576C256.86 89.5054 256.719 89.2935 256.719 89.0817C256.719 88.8699 256.789 88.7287 256.931 88.5875C257.072 88.4463 257.284 88.4463 257.495 88.4463C257.707 88.4463 257.919 88.5169 258.06 88.5875C258.131 88.5875 258.201 88.5875 258.201 88.5875C258.272 88.5875 258.343 88.5875 258.484 88.5875V88.7993H258.201C258.201 88.8699 258.201 88.9405 258.201 88.9405C258.201 89.2229 258.06 89.4348 257.778 89.5054C257.637 89.576 257.495 89.576 257.425 89.576C257.354 89.576 257.354 89.576 257.284 89.576C257.213 89.6466 257.142 89.6466 257.142 89.7172C257.142 89.7878 257.213 89.7878 257.284 89.7878C257.354 89.7878 257.425 89.7878 257.566 89.7878C257.637 89.7878 257.637 89.7878 257.778 89.7878C257.848 89.7878 257.919 89.7878 257.99 89.7878C258.272 89.7878 258.413 89.8584 258.484 89.9996C258.554 90.0702 258.554 90.2114 258.554 90.282ZM258.131 90.4938C258.131 90.3526 258.06 90.282 257.99 90.282C257.919 90.282 257.848 90.282 257.778 90.282H257.425C257.354 90.282 257.354 90.282 257.284 90.282C257.142 90.3526 257.001 90.4938 257.001 90.635C257.001 90.7762 257.072 90.8469 257.142 90.9175C257.213 90.9881 257.354 90.9881 257.566 90.9881C257.778 90.9881 257.919 90.9175 257.99 90.8468C258.131 90.7056 258.131 90.635 258.131 90.4938ZM257.848 89.0817C257.848 88.7993 257.778 88.6581 257.566 88.6581C257.354 88.6581 257.284 88.7993 257.284 89.0111C257.284 89.2935 257.354 89.4348 257.566 89.4348C257.707 89.4348 257.848 89.2935 257.848 89.0817Z" fill="white"/>
<path d="M258.98 89.6464C259.05 89.6464 259.121 89.6464 259.192 89.717C259.262 89.7876 259.262 89.8582 259.262 89.9288C259.262 89.9994 259.262 90.07 259.192 90.1406C259.121 90.2112 259.05 90.2112 258.98 90.2112C258.909 90.2112 258.838 90.2112 258.768 90.1406C258.697 90.07 258.697 89.9994 258.697 89.9288C258.697 89.8582 258.697 89.7876 258.768 89.717C258.838 89.717 258.909 89.6464 258.98 89.6464ZM258.909 89.4346C258.909 89.364 258.909 89.2933 258.838 89.1521C258.838 89.0109 258.768 88.7991 258.768 88.5873C258.697 88.2343 258.697 88.0225 258.697 87.8813V87.8106C258.697 87.8106 258.838 87.74 259.05 87.6694H259.262C259.262 87.74 259.262 87.74 259.262 87.74C259.262 87.8106 259.262 87.9519 259.192 88.1637L259.121 88.7285L259.05 89.3639L258.909 89.4346Z" fill="white"/>
<defs>
<linearGradient id="paint0_linear_1598_37332" x1="5.91397" y1="157.96" x2="190.462" y2="206.725" gradientUnits="userSpaceOnUse">
<stop offset="0.1142" stop-color="#FCEDEA"/>
<stop offset="0.1167" stop-color="#FCEDE9"/>
<stop offset="0.2671" stop-color="#FCD6BE"/>
<stop offset="0.4131" stop-color="#FCC39D"/>
<stop offset="0.5514" stop-color="#FCB785"/>
<stop offset="0.6791" stop-color="#FCAF76"/>
<stop offset="0.7859" stop-color="#FCAC71"/>
</linearGradient>
<linearGradient id="paint1_linear_1598_37332" x1="145.422" y1="33.0769" x2="145.954" y2="34.9093" gradientUnits="userSpaceOnUse">
<stop stop-color="#F5F5F3"/>
<stop offset="0.8967" stop-color="#F5F5F3" stop-opacity="0"/>
</linearGradient>
<linearGradient id="paint2_linear_1598_37332" x1="146.771" y1="36.1793" x2="146.16" y2="34.8195" gradientUnits="userSpaceOnUse">
<stop stop-color="#F5F5F3"/>
<stop offset="0.8967" stop-color="#F5F5F3" stop-opacity="0"/>
</linearGradient>
<linearGradient id="paint3_linear_1598_37332" x1="282.937" y1="198.259" x2="197.397" y2="202.59" gradientUnits="userSpaceOnUse">
<stop offset="0.1142" stop-color="#FCEDEA"/>
<stop offset="0.2167" stop-color="#FCE6DC"/>
<stop offset="0.4274" stop-color="#FCDAC4"/>
<stop offset="0.6226" stop-color="#FCD3B5"/>
<stop offset="0.7859" stop-color="#FCD0B0"/>
</linearGradient>
<linearGradient id="paint4_linear_1598_37332" x1="215.799" y1="163.207" x2="184.359" y2="202.725" gradientUnits="userSpaceOnUse">
<stop offset="0.1407" stop-color="#FCAC71"/>
<stop offset="1" stop-color="#FCD0B0"/>
</linearGradient>
<linearGradient id="paint5_linear_1598_37332" x1="340.91" y1="281.65" x2="155.73" y2="166.3" gradientUnits="userSpaceOnUse">
<stop offset="0.1407" stop-color="#FCAC71"/>
<stop offset="1" stop-color="#FCAC71" stop-opacity="0"/>
</linearGradient>
<linearGradient id="paint6_linear_1598_37332" x1="179.814" y1="151.629" x2="169.791" y2="134.889" gradientUnits="userSpaceOnUse">
<stop offset="0.1142" stop-color="#FCEDEA"/>
<stop offset="0.2167" stop-color="#FCE6DC"/>
<stop offset="0.4274" stop-color="#FCDAC4"/>
<stop offset="0.6226" stop-color="#FCD3B5"/>
<stop offset="0.7859" stop-color="#FCD0B0"/>
</linearGradient>
<linearGradient id="paint7_linear_1598_37332" x1="135.044" y1="139.433" x2="80.8185" y2="174.743" gradientUnits="userSpaceOnUse">
<stop offset="0.1142" stop-color="#FCEDEA"/>
<stop offset="0.2167" stop-color="#FCE6DC"/>
<stop offset="0.4274" stop-color="#FCDAC4"/>
<stop offset="0.6226" stop-color="#FCD3B5"/>
<stop offset="0.7859" stop-color="#FCD0B0"/>
</linearGradient>
<linearGradient id="paint8_linear_1598_37332" x1="64.6333" y1="132.451" x2="78.4012" y2="137.233" gradientUnits="userSpaceOnUse">
<stop offset="0.1142" stop-color="#FCEDEA"/>
<stop offset="0.2167" stop-color="#FCE6DC"/>
<stop offset="0.4274" stop-color="#FCDAC4"/>
<stop offset="0.6226" stop-color="#FCD3B5"/>
<stop offset="0.7859" stop-color="#FCD0B0"/>
</linearGradient>
</defs>
</svg>
