<svg xmlns="http://www.w3.org/2000/svg" width="250" height="166" viewBox="0 0 250 166" fill="none">
  <g clip-path="url(#clip0_1597_34559)">
    <path d="M0 149.644C0 144.491 55.9349 140.332 124.969 140.332C194.003 140.332 249.938 144.491 249.938 149.644C249.938 154.797 194.003 158.956 124.969 158.956C55.9349 158.956 0 154.735 0 149.644Z" fill="#101A21"/>
    <path d="M238.84 130.704H228.41V150.507H210.717V130.704H174.275V114.873L208.11 59H228.41V116.487H238.84V130.704ZM210.717 116.549V76.9414L187.747 116.549H210.717Z" fill="#01389f"/>
    <path d="M76.5642 130.704H66.1346V150.507H48.4415V130.704H12V114.873L45.8341 59H66.1346V116.487H76.5642V130.704ZM48.4415 116.549V76.9414L25.4716 116.549H48.4415Z" fill="#01389f"/>
    <mask id="mask0_1597_34559" style="mask-type:luminance" maskUnits="userSpaceOnUse" x="70" y="46" width="125" height="105">
      <path d="M194.809 46.2793H70.4609V150.699H194.809V46.2793Z" fill="white"/>
    </mask>
    <g mask="url(#mask0_1597_34559)">
      <path d="M174.362 148.56C197.418 125.504 197.418 88.1229 174.362 65.067C151.307 42.0111 113.925 42.0111 90.8695 65.067C67.8136 88.1229 67.8136 125.504 90.8695 148.56C113.925 171.616 151.307 171.616 174.362 148.56Z" fill="#5D5D5D"/>
      <path d="M83.498 106.808C83.498 79.6788 105.475 57.7021 132.604 57.7021C159.733 57.7021 181.71 79.6788 181.71 106.808C181.71 133.938 159.733 155.914 132.604 155.914C105.475 155.914 83.498 133.938 83.498 106.808Z" fill="#4A4A4A"/>
      <path d="M132.604 148.713C109.51 148.713 90.6992 129.902 90.6992 106.808C90.6992 83.7141 109.51 64.9036 132.604 64.9036C155.698 64.9036 174.508 83.7141 174.508 106.808C174.571 129.902 155.76 148.713 132.604 148.713ZM132.604 65.5865C109.882 65.5865 91.3821 84.0866 91.3821 106.808C91.3821 129.53 109.882 148.03 132.604 148.03C155.325 148.03 173.826 129.53 173.826 106.808C173.826 84.0866 155.325 65.5865 132.604 65.5865Z" fill="#767676"/>
      <path d="M132.603 148.216C109.757 148.216 91.1328 129.592 91.1328 106.746C91.1328 83.9004 109.757 65.2761 132.603 65.2761C155.449 65.2761 174.073 83.9004 174.073 106.746C174.073 129.654 155.449 148.216 132.603 148.216ZM132.603 65.7107C109.943 65.7107 91.5053 84.1487 91.5053 106.808C91.5053 129.468 109.943 147.906 132.603 147.906C155.262 147.906 173.7 129.468 173.7 106.808C173.7 84.1487 155.262 65.7107 132.603 65.7107Z" fill="#3F3F3F"/>
      <path d="M132.604 159.639C103.488 159.639 79.7734 135.924 79.7734 106.808C79.7734 77.6922 103.488 53.9773 132.604 53.9773C161.72 53.9773 185.435 77.6922 185.435 106.808C185.435 135.924 161.782 159.639 132.604 159.639ZM132.604 54.7223C103.861 54.7223 80.5184 78.1268 80.5184 106.808C80.5184 135.552 103.923 158.894 132.604 158.894C161.348 158.894 184.69 135.552 184.69 106.808C184.69 78.0647 161.348 54.7223 132.604 54.7223Z" fill="#767676"/>
      <path d="M132.604 159.08C103.799 159.08 80.332 135.614 80.332 106.808C80.332 78.0027 103.799 54.5361 132.604 54.5361C161.41 54.5361 184.876 78.0027 184.876 106.808C184.876 135.614 161.472 159.08 132.604 159.08ZM132.604 54.9086C103.985 54.9086 80.7045 78.189 80.7045 106.808C80.7045 135.428 103.985 158.708 132.604 158.708C161.224 158.708 184.504 135.428 184.504 106.808C184.504 78.189 161.224 54.9086 132.604 54.9086Z" fill="#3F3F3F"/>
      <path d="M163.707 150.451L162.9 157.466C163.273 157.28 163.583 157.032 163.956 156.845L164.142 150.203L163.707 150.451Z" fill="#4A4A4A"/>
      <path d="M170.35 144.553L170.846 151.817C171.715 151.072 172.585 150.265 173.454 149.458L171.964 143.001L170.35 144.553Z" fill="#4A4A4A"/>
      <path d="M173.951 140.953L175.007 147.906C175.317 147.595 175.565 147.347 175.876 147.037L174.386 140.58L173.951 140.953Z" fill="#4A4A4A"/>
      <path d="M178.793 133.503L181.152 140.394C181.835 139.463 182.456 138.469 183.077 137.414L179.91 131.516L178.793 133.503Z" fill="#4A4A4A"/>
      <path d="M181.4 129.095L184.194 135.552C184.38 135.179 184.567 134.807 184.753 134.496L181.649 128.661L181.4 129.095Z" fill="#4A4A4A"/>
      <path d="M184.131 120.59L188.166 126.674C188.539 125.556 188.911 124.439 189.221 123.322L184.69 118.479L184.131 120.59Z" fill="#4A4A4A"/>
      <path d="M185.496 115.686L189.904 121.149C190.028 120.776 190.09 120.342 190.214 119.969L185.682 115.127L185.496 115.686Z" fill="#4A4A4A"/>
      <path d="M185.994 106.808L191.457 111.588C191.581 110.409 191.581 109.229 191.644 108.05L185.994 104.511V106.808Z" fill="#4A4A4A"/>
      <path d="M185.994 101.717L191.643 105.877C191.643 105.442 191.643 105.07 191.581 104.635L185.932 101.159L185.994 101.717Z" fill="#4A4A4A"/>
      <path d="M184.131 92.964L190.649 96.1922C190.463 95.0748 190.215 93.8952 189.904 92.7778L183.51 90.8533L184.131 92.964Z" fill="#4A4A4A"/>
      <path d="M182.827 88.0597L189.345 90.605C189.221 90.2325 189.097 89.798 188.973 89.4255L182.641 87.501L182.827 88.0597Z" fill="#4A4A4A"/>
      <path d="M178.854 80.1134L185.993 81.5413C185.496 80.4859 184.938 79.4305 184.379 78.4372L177.736 78.251L178.854 80.1134Z" fill="#4A4A4A"/>
      <path d="M176.246 75.7056L183.262 76.5126C183.075 76.1401 182.827 75.8297 182.641 75.4572L175.998 75.271L176.246 75.7056Z" fill="#4A4A4A"/>
      <path d="M170.349 69.0628L177.612 68.5661C176.867 67.697 176.06 66.8279 175.253 65.9587L168.797 67.4487L170.349 69.0628Z" fill="#4A4A4A"/>
      <path d="M166.747 65.4621L173.701 64.4067C173.39 64.0963 173.142 63.848 172.831 63.5376L166.375 65.0275L166.747 65.4621Z" fill="#4A4A4A"/>
      <path d="M159.299 60.6198L166.19 58.2607C165.259 57.5778 164.266 56.957 163.21 56.3362L157.312 59.5023L159.299 60.6198Z" fill="#4A4A4A"/>
      <path d="M154.892 58.0123L161.348 55.2186C160.976 55.0324 160.603 54.8462 160.293 54.6599L154.457 57.764L154.892 58.0123Z" fill="#4A4A4A"/>
      <path d="M146.447 55.2811L152.531 51.2458C151.413 50.8733 150.296 50.5008 149.178 50.1904L144.336 54.7223L146.447 55.2811Z" fill="#4A4A4A"/>
      <path d="M141.481 53.9152L146.944 49.5074C146.571 49.3833 146.137 49.3212 145.764 49.197L140.922 53.7289L141.481 53.9152Z" fill="#4A4A4A"/>
      <path d="M132.604 53.4184L137.384 47.9553C136.204 47.8311 135.025 47.8311 133.845 47.769L130.307 53.4184H132.604Z" fill="#4A4A4A"/>
      <path d="M127.514 53.4184L131.673 47.769C131.239 47.769 130.866 47.769 130.432 47.769L126.955 53.4184H127.514Z" fill="#4A4A4A"/>
      <path d="M118.822 55.281L122.05 48.7625C120.932 48.9487 119.753 49.197 118.635 49.5074L116.711 55.9018L118.822 55.281Z" fill="#4A4A4A"/>
      <path d="M113.856 56.5847L116.401 50.0662C116.028 50.1903 115.594 50.3145 115.221 50.4386L113.297 56.7709L113.856 56.5847Z" fill="#4A4A4A"/>
      <path d="M105.971 60.5578L107.399 53.4185C106.344 53.9151 105.288 54.4738 104.295 55.0326L104.047 61.6752L105.971 60.5578Z" fill="#4A4A4A"/>
      <path d="M101.501 63.103L102.308 56.0879C101.936 56.2741 101.625 56.5225 101.253 56.7087L101.066 63.3514L101.501 63.103Z" fill="#4A4A4A"/>
      <path d="M94.9205 69.0628L94.4238 61.7993C93.5547 62.5443 92.6855 63.3513 91.8164 64.1584L93.3064 70.6148L94.9205 69.0628Z" fill="#4A4A4A"/>
      <path d="M91.2585 72.6635L90.2031 65.7104C89.8927 66.0209 89.6444 66.2692 89.334 66.5796L90.8239 73.036L91.2585 72.6635Z" fill="#4A4A4A"/>
      <path d="M86.4144 80.1132L84.0554 73.2222C83.3725 74.1534 82.7517 75.1467 82.1309 76.2021L85.297 82.0997L86.4144 80.1132Z" fill="#4A4A4A"/>
      <path d="M83.87 84.5209L81.0763 78.0645C80.8901 78.4369 80.7038 78.8094 80.5176 79.1198L83.6216 84.9554L83.87 84.5209Z" fill="#4A4A4A"/>
      <path d="M81.077 92.9641L77.0417 86.8801C76.6692 87.9976 76.2967 89.115 75.9863 90.2325L80.5182 95.0748L81.077 92.9641Z" fill="#4A4A4A"/>
      <path d="M79.7728 97.9307L75.3651 92.4675C75.2409 92.84 75.1788 93.2746 75.0547 93.6471L79.5866 98.4894L79.7728 97.9307Z" fill="#4A4A4A"/>
      <path d="M79.2763 106.808L73.8132 102.028C73.689 103.207 73.689 104.387 73.627 105.566L79.2763 109.105V106.808Z" fill="#4A4A4A"/>
      <path d="M79.2763 111.899L73.627 107.739C73.627 108.174 73.627 108.546 73.689 108.981L79.3384 112.457L79.2763 111.899Z" fill="#4A4A4A"/>
      <path d="M81.0771 120.59L74.5586 117.362C74.7448 118.479 74.9932 119.659 75.3036 120.776L81.6979 122.701L81.0771 120.59Z" fill="#4A4A4A"/>
      <path d="M82.3798 125.495L75.8613 122.949C75.9855 123.322 76.1097 123.756 76.2338 124.129L82.5661 126.053L82.3798 125.495Z" fill="#4A4A4A"/>
      <path d="M86.4147 133.441L79.2754 132.013C79.772 133.068 80.3308 134.124 80.8895 135.117L87.5322 135.365L86.4147 133.441Z" fill="#4A4A4A"/>
      <path d="M88.9605 137.911L81.9453 137.104C82.1316 137.476 82.3799 137.786 82.5661 138.159L89.2088 138.345L88.9605 137.911Z" fill="#4A4A4A"/>
      <path d="M94.8592 144.491L87.5957 144.988C88.3407 145.857 89.1477 146.726 89.9548 147.595L96.4112 146.105L94.8592 144.491Z" fill="#4A4A4A"/>
      <path d="M98.4589 148.154L91.5059 149.209C91.8163 149.52 92.1267 149.768 92.375 150.079L98.8314 148.589L98.4589 148.154Z" fill="#4A4A4A"/>
      <path d="M92.252 106.808C92.252 84.5211 110.318 66.4556 132.605 66.4556C154.892 66.4556 172.957 84.5211 172.957 106.808C172.957 129.095 154.892 147.161 132.605 147.161C110.318 147.161 92.252 129.095 92.252 106.808Z" fill="#2A2A2A"/>
      <path d="M132.542 61.2408C131.921 62.4825 131.425 63.5999 131.238 64.0966C131.549 63.662 132.107 62.6066 132.728 61.365C133.349 60.1234 133.846 59.0059 134.032 58.5093C133.722 58.9438 133.163 59.9371 132.542 61.2408Z" fill="#5D5D5D"/>
      <path d="M129.686 61.3027C129.127 62.6064 128.693 63.7239 128.568 64.2205C128.817 63.7239 129.313 62.6685 129.872 61.3648C130.431 60.0611 130.865 58.9437 130.99 58.447C130.741 58.9437 130.245 59.999 129.686 61.3027Z" fill="#5D5D5D"/>
      <path d="M126.83 61.6131C126.395 62.9168 126.023 64.0964 125.898 64.593C126.147 64.0964 126.581 62.9789 127.016 61.6752C127.45 60.3715 127.823 59.192 127.947 58.6953C127.699 59.1299 127.264 60.2473 126.83 61.6131Z" fill="#5D5D5D"/>
      <path d="M123.973 62.0478C123.601 63.4135 123.291 64.531 123.229 65.0897C123.415 64.5931 123.787 63.4135 124.16 62.1098C124.532 60.7441 124.843 59.6266 124.905 59.0679C124.718 59.5645 124.346 60.682 123.973 62.0478Z" fill="#5D5D5D"/>
      <path d="M121.18 62.6687C120.869 64.0345 120.683 65.214 120.621 65.7727C120.807 65.2761 121.056 64.0965 121.366 62.7308C121.676 61.365 121.863 60.1854 121.925 59.6267C121.801 60.1234 121.49 61.3029 121.18 62.6687Z" fill="#5D5D5D"/>
      <path d="M118.449 63.4756C118.262 64.8414 118.076 66.0209 118.076 66.5797C118.2 66.0209 118.449 64.9035 118.635 63.4756C118.821 62.1098 119.007 60.9303 119.007 60.3716C118.883 60.9303 118.635 62.1098 118.449 63.4756Z" fill="#5D5D5D"/>
      <path d="M115.78 64.469C115.656 65.8348 115.594 67.0764 115.594 67.5731C115.718 67.0144 115.842 65.8348 115.966 64.469C116.09 63.1033 116.152 61.8616 116.152 61.365C116.028 61.8616 115.904 63.0412 115.78 64.469Z" fill="#5D5D5D"/>
      <path d="M113.11 65.5865C113.048 66.9523 113.11 68.1939 113.11 68.6905C113.172 68.1318 113.234 66.9523 113.296 65.5865C113.358 64.2207 113.296 62.9791 113.296 62.4824C113.234 62.9791 113.172 64.2207 113.11 65.5865Z" fill="#5D5D5D"/>
      <path d="M110.566 66.8902C110.628 68.256 110.69 69.4976 110.752 69.9942C110.814 69.4355 110.752 68.256 110.69 66.8902C110.628 65.5244 110.566 64.2828 110.441 63.7861C110.503 64.2828 110.503 65.5244 110.566 66.8902Z" fill="#5D5D5D"/>
      <path d="M108.143 68.3799C108.267 69.7457 108.453 70.9252 108.577 71.484C108.577 70.9252 108.515 69.7457 108.329 68.3799C108.205 67.0141 108.019 65.8346 107.895 65.2759C107.895 65.7725 107.957 66.9521 108.143 68.3799Z" fill="#5D5D5D"/>
      <path d="M105.784 69.9942C106.032 71.36 106.281 72.5395 106.405 73.0362C106.343 72.4774 106.219 71.2979 105.97 69.9321C105.722 68.5663 105.474 67.3868 105.35 66.8901C105.35 67.3868 105.536 68.5663 105.784 69.9942Z" fill="#5D5D5D"/>
      <path d="M103.488 71.7324C103.798 73.0982 104.109 74.2156 104.295 74.7744C104.233 74.2156 103.985 73.0361 103.674 71.7324C103.364 70.3666 103.053 69.2492 102.867 68.6904C102.929 69.1871 103.178 70.3666 103.488 71.7324Z" fill="#5D5D5D"/>
      <path d="M101.377 73.657C101.75 74.9607 102.184 76.1402 102.371 76.6368C102.246 76.0781 101.936 74.9607 101.564 73.5949C101.191 72.2291 100.757 71.1116 100.57 70.615C100.632 71.1116 100.943 72.2912 101.377 73.657Z" fill="#5D5D5D"/>
      <path d="M99.3292 75.6435C99.8259 76.9472 100.26 78.0646 100.509 78.5613C100.385 78.0646 100.012 76.8851 99.5155 75.5814C99.0188 74.2777 98.5843 73.1602 98.3359 72.6636C98.4601 73.2223 98.8326 74.3398 99.3292 75.6435Z" fill="#5D5D5D"/>
      <path d="M97.4666 77.8162C98.0254 79.0579 98.522 80.1753 98.8324 80.6099C98.6462 80.1132 98.2116 78.9958 97.6529 77.6921C97.0942 76.3884 96.5975 75.333 96.2871 74.8984C96.4113 75.4572 96.9079 76.5125 97.4666 77.8162Z" fill="#5D5D5D"/>
      <path d="M95.7271 80.0512C96.3479 81.2928 96.9687 82.3482 97.2791 82.7828C97.0929 82.2861 96.5342 81.2308 95.9134 79.9891C95.2925 78.7475 94.6717 77.6921 94.3613 77.2576C94.5476 77.7542 95.0442 78.8096 95.7271 80.0512Z" fill="#5D5D5D"/>
      <path d="M94.1126 82.4723C94.8575 83.6518 95.4783 84.6451 95.7888 85.0797C95.5404 84.583 94.9817 83.5277 94.2367 82.3481C93.4918 81.1686 92.871 80.1753 92.5605 79.7407C92.8089 80.2374 93.3676 81.2307 94.1126 82.4723Z" fill="#5D5D5D"/>
      <path d="M92.6234 84.8935C93.4305 86.011 94.1134 87.0043 94.4859 87.4389C94.2376 86.9422 93.5547 85.9489 92.8097 84.8314C92.0026 83.714 91.3198 82.7207 90.9473 82.2861C91.1956 82.7828 91.8785 83.7761 92.6234 84.8935Z" fill="#5D5D5D"/>
      <path d="M91.3195 87.4388C92.1886 88.5563 92.9336 89.4254 93.306 89.86C92.9956 89.4254 92.3128 88.4321 91.4436 87.3767C90.5745 86.2593 89.8295 85.3901 89.457 84.9556C89.7674 85.3901 90.5124 86.3834 91.3195 87.4388Z" fill="#5D5D5D"/>
      <path d="M90.203 90.1084C91.1342 91.1638 91.9412 92.0329 92.3758 92.4054C92.0654 91.9708 91.2583 91.0396 90.3271 89.9842C89.3959 88.9289 88.5889 88.0597 88.1543 87.6873C88.5268 88.1218 89.2718 89.053 90.203 90.1084Z" fill="#5D5D5D"/>
      <path d="M89.2705 92.7779C90.2638 93.7712 91.1329 94.5782 91.5675 94.8886C91.195 94.4541 90.3879 93.5849 89.3946 92.6537C88.4014 91.6604 87.5322 90.8534 87.0977 90.543C87.4081 90.9775 88.2772 91.8467 89.2705 92.7779Z" fill="#5D5D5D"/>
      <path d="M88.465 95.5714C89.5203 96.5027 90.4515 97.2476 90.8861 97.558C90.5136 97.1855 89.6445 96.3785 88.5891 95.4473C87.5337 94.5161 86.6025 93.7711 86.168 93.4607C86.5405 93.8332 87.4096 94.6402 88.465 95.5714Z" fill="#5D5D5D"/>
      <path d="M87.843 98.365C88.9605 99.2341 89.9538 99.917 90.3884 100.165C90.0159 99.7929 89.0846 99.0479 87.9672 98.1788C86.8497 97.3096 85.8564 96.6267 85.4219 96.3784C85.7944 96.7509 86.7256 97.4959 87.843 98.365Z" fill="#5D5D5D"/>
      <path d="M87.4086 101.159C88.5881 101.904 89.5814 102.587 90.0781 102.835C89.6435 102.462 88.6502 101.78 87.5328 101.035C86.3532 100.29 85.3599 99.6067 84.8633 99.3584C85.2358 99.7309 86.2291 100.414 87.4086 101.159Z" fill="#5D5D5D"/>
      <path d="M87.0992 104.015C88.2787 104.697 89.3341 105.256 89.8307 105.505C89.3962 105.194 88.3408 104.573 87.1612 103.828C85.9817 103.145 84.9263 102.587 84.4297 102.338C84.9263 102.711 85.9196 103.332 87.0992 104.015Z" fill="#5D5D5D"/>
      <path d="M87.0362 106.87C88.2779 107.491 89.3953 107.988 89.892 108.174C89.4574 107.864 88.402 107.305 87.1604 106.684C85.9188 106.063 84.8013 105.567 84.3047 105.38C84.7393 105.691 85.7946 106.25 87.0362 106.87Z" fill="#5D5D5D"/>
      <path d="M87.1604 109.726C88.4641 110.285 89.5816 110.719 90.0782 110.844C89.5816 110.595 88.5262 110.099 87.2225 109.54C85.9188 108.981 84.8013 108.547 84.3047 108.422C84.8013 108.671 85.8567 109.229 87.1604 109.726Z" fill="#5D5D5D"/>
      <path d="M87.408 112.582C88.7117 113.016 89.8913 113.389 90.3879 113.513C89.8913 113.264 88.7738 112.83 87.4701 112.395C86.1664 111.961 84.9869 111.588 84.4902 111.464C84.9869 111.712 86.1043 112.147 87.408 112.582Z" fill="#5D5D5D"/>
      <path d="M87.8432 115.437C89.209 115.81 90.3264 116.12 90.8851 116.182C90.3885 115.996 89.209 115.624 87.9053 115.251C86.5395 114.879 85.422 114.568 84.8633 114.506C85.3599 114.692 86.5395 115.065 87.8432 115.437Z" fill="#5D5D5D"/>
      <path d="M88.5263 118.231C89.8921 118.541 91.0717 118.728 91.6304 118.79C91.1337 118.604 89.9542 118.355 88.5884 118.045C87.2226 117.734 86.0431 117.548 85.4844 117.486C85.981 117.61 87.1606 117.921 88.5263 118.231Z" fill="#5D5D5D"/>
      <path d="M89.272 120.963C90.6378 121.149 91.8173 121.273 92.3761 121.335C91.8173 121.211 90.6378 120.963 89.272 120.776C87.9062 120.59 86.7267 120.466 86.168 120.404C86.7267 120.528 87.9062 120.776 89.272 120.963Z" fill="#5D5D5D"/>
      <path d="M90.2642 123.632C91.63 123.756 92.8716 123.818 93.3683 123.818C92.8095 123.694 91.63 123.57 90.2642 123.446C88.8984 123.322 87.6568 123.26 87.1602 123.26C87.7189 123.384 88.8984 123.508 90.2642 123.632Z" fill="#5D5D5D"/>
      <path d="M91.4439 126.301C92.8097 126.301 94.0513 126.301 94.5479 126.301C93.9892 126.239 92.8097 126.177 91.4439 126.115C90.0781 126.115 88.8365 126.115 88.3398 126.115C88.8365 126.177 90.016 126.239 91.4439 126.301Z" fill="#5D5D5D"/>
      <path d="M92.7486 128.847C94.1144 128.785 95.356 128.723 95.8526 128.598C95.2939 128.536 94.1144 128.598 92.7486 128.661C91.3828 128.723 90.1412 128.785 89.6445 128.909C90.1412 128.909 91.3207 128.909 92.7486 128.847Z" fill="#5D5D5D"/>
      <path d="M94.1763 131.268C95.5421 131.144 96.7216 130.958 97.2804 130.833C96.7216 130.833 95.5421 130.896 94.1763 131.082C92.8105 131.206 91.631 131.392 91.0723 131.516C91.631 131.516 92.8105 131.454 94.1763 131.268Z" fill="#5D5D5D"/>
      <path d="M95.79 133.627C97.1558 133.379 98.3353 133.131 98.8941 133.006C98.3353 133.068 97.1558 133.193 95.79 133.441C94.4242 133.689 93.2447 133.938 92.748 134.062C93.2447 134.062 94.4242 133.875 95.79 133.627Z" fill="#5D5D5D"/>
      <path d="M97.5908 135.924C98.9566 135.614 100.074 135.303 100.633 135.117C100.074 135.179 98.8945 135.427 97.5908 135.738C96.225 136.048 95.1076 136.359 94.5488 136.545C95.0455 136.483 96.225 136.234 97.5908 135.924Z" fill="#5D5D5D"/>
      <path d="M99.4521 138.035C100.756 137.6 101.935 137.228 102.432 137.042C101.873 137.166 100.756 137.476 99.39 137.849C98.0243 138.221 96.9068 138.656 96.4102 138.842C96.9689 138.78 98.1484 138.469 99.4521 138.035Z" fill="#5D5D5D"/>
      <path d="M101.501 140.084C102.805 139.587 103.923 139.152 104.419 138.904C103.86 139.028 102.743 139.401 101.439 139.897C100.136 140.394 99.0181 140.829 98.5215 141.077C99.0181 140.953 100.198 140.58 101.501 140.084Z" fill="#5D5D5D"/>
      <path d="M103.612 141.946C104.853 141.387 105.971 140.89 106.467 140.58C105.971 140.766 104.853 141.201 103.55 141.76C102.246 142.318 101.19 142.877 100.756 143.125C101.253 143.001 102.37 142.505 103.612 141.946Z" fill="#5D5D5D"/>
      <path d="M105.909 143.746C107.15 143.126 108.206 142.505 108.64 142.194C108.144 142.381 107.026 142.939 105.847 143.56C104.605 144.181 103.55 144.802 103.115 145.112C103.612 144.864 104.667 144.367 105.909 143.746Z" fill="#5D5D5D"/>
      <path d="M121.367 150.948C122.298 149.892 123.043 148.961 123.353 148.527C122.981 148.899 122.174 149.768 121.242 150.824C120.311 151.879 119.566 152.81 119.256 153.245C119.628 152.872 120.435 152.003 121.367 150.948Z" fill="#5D5D5D"/>
      <path d="M124.16 151.569C125.03 150.451 125.712 149.458 125.961 149.023C125.588 149.396 124.843 150.327 123.974 151.444C123.105 152.562 122.422 153.555 122.174 153.99C122.546 153.617 123.353 152.686 124.16 151.569Z" fill="#5D5D5D"/>
      <path d="M127.017 152.003C127.762 150.823 128.445 149.83 128.693 149.333C128.321 149.768 127.638 150.761 126.893 151.879C126.148 153.058 125.465 154.052 125.217 154.548C125.527 154.176 126.21 153.183 127.017 152.003Z" fill="#5D5D5D"/>
      <path d="M129.871 152.314C130.554 151.134 131.113 150.079 131.361 149.582C131.051 150.017 130.43 151.072 129.685 152.252C129.002 153.431 128.444 154.486 128.195 154.983C128.506 154.486 129.127 153.493 129.871 152.314Z" fill="#5D5D5D"/>
      <path d="M132.728 152.375C133.349 151.134 133.846 150.016 134.032 149.52C133.722 149.954 133.163 151.01 132.542 152.251C131.921 153.493 131.425 154.61 131.238 155.107C131.549 154.672 132.107 153.617 132.728 152.375Z" fill="#5D5D5D"/>
      <path d="M135.583 152.251C136.142 150.948 136.576 149.83 136.7 149.333C136.452 149.83 135.955 150.886 135.397 152.189C134.838 153.493 134.403 154.61 134.279 155.107C134.528 154.672 135.024 153.555 135.583 152.251Z" fill="#5D5D5D"/>
      <path d="M138.44 152.003C138.874 150.699 139.247 149.52 139.371 149.023C139.123 149.52 138.688 150.637 138.253 151.941C137.819 153.245 137.446 154.424 137.322 154.921C137.509 154.424 137.943 153.307 138.44 152.003Z" fill="#5D5D5D"/>
      <path d="M141.232 151.569C141.604 150.203 141.915 149.085 141.977 148.527C141.791 149.023 141.418 150.203 141.046 151.506C140.673 152.872 140.363 153.99 140.301 154.548C140.487 154.052 140.86 152.872 141.232 151.569Z" fill="#5D5D5D"/>
      <path d="M161.719 141.884C161.409 140.518 161.098 139.401 160.912 138.842C160.974 139.401 161.223 140.58 161.533 141.884C161.843 143.25 162.154 144.367 162.34 144.926C162.278 144.367 162.03 143.187 161.719 141.884Z" fill="#5D5D5D"/>
      <path d="M163.892 139.959C163.457 138.656 163.085 137.476 162.898 136.979C163.023 137.538 163.333 138.656 163.706 140.021C164.078 141.387 164.513 142.505 164.699 143.001C164.575 142.443 164.264 141.263 163.892 139.959Z" fill="#5D5D5D"/>
      <path d="M165.941 137.911C165.445 136.607 165.01 135.49 164.762 134.993C164.886 135.552 165.258 136.669 165.755 137.973C166.252 139.277 166.686 140.394 166.935 140.891C166.748 140.394 166.376 139.214 165.941 137.911Z" fill="#5D5D5D"/>
      <path d="M167.803 135.8C167.245 134.558 166.748 133.441 166.438 133.006C166.624 133.503 167.058 134.62 167.617 135.924C168.176 137.228 168.734 138.283 168.983 138.718C168.797 138.159 168.362 137.042 167.803 135.8Z" fill="#5D5D5D"/>
      <path d="M169.542 133.503C168.921 132.261 168.301 131.206 167.99 130.771C168.176 131.268 168.735 132.386 169.356 133.565C169.977 134.807 170.598 135.862 170.908 136.297C170.722 135.8 170.163 134.745 169.542 133.503Z" fill="#5D5D5D"/>
      <path d="M171.157 131.144C170.412 129.964 169.791 128.971 169.48 128.536C169.729 129.033 170.288 130.088 171.032 131.268C171.777 132.447 172.398 133.441 172.709 133.875C172.46 133.379 171.84 132.323 171.157 131.144Z" fill="#5D5D5D"/>
      <path d="M172.583 128.661C171.776 127.543 171.093 126.55 170.721 126.115C170.969 126.612 171.652 127.605 172.459 128.723C173.266 129.84 173.949 130.833 174.321 131.268C174.073 130.833 173.39 129.84 172.583 128.661Z" fill="#5D5D5D"/>
      <path d="M173.887 126.115C173.017 124.998 172.272 124.129 171.838 123.694C172.148 124.129 172.831 125.122 173.7 126.177C174.569 127.295 175.314 128.164 175.687 128.598C175.501 128.164 174.756 127.233 173.887 126.115Z" fill="#5D5D5D"/>
      <path d="M175.005 123.508C174.074 122.452 173.267 121.583 172.832 121.273C173.142 121.708 173.949 122.639 174.881 123.694C175.812 124.749 176.619 125.557 177.054 125.991C176.743 125.432 175.936 124.501 175.005 123.508Z" fill="#5D5D5D"/>
      <path d="M175.998 120.776C175.005 119.783 174.136 118.976 173.701 118.666C174.074 119.1 174.881 119.969 175.874 120.9C176.867 121.894 177.736 122.701 178.171 123.011C177.799 122.639 176.991 121.77 175.998 120.776Z" fill="#5D5D5D"/>
      <path d="M176.806 118.045C175.751 117.113 174.819 116.369 174.385 116.058C174.757 116.431 175.626 117.238 176.682 118.169C177.737 119.1 178.668 119.845 179.103 120.155C178.73 119.783 177.861 118.976 176.806 118.045Z" fill="#5D5D5D"/>
      <path d="M177.426 115.251C176.309 114.382 175.315 113.699 174.881 113.451C175.315 113.823 176.185 114.568 177.302 115.437C178.419 116.306 179.413 116.989 179.847 117.238C179.475 116.865 178.482 116.058 177.426 115.251Z" fill="#5D5D5D"/>
      <path d="M177.861 112.395C176.681 111.65 175.688 110.968 175.191 110.719C175.626 111.092 176.619 111.775 177.737 112.52C178.916 113.265 179.91 113.885 180.406 114.196C179.972 113.885 178.978 113.202 177.861 112.395Z" fill="#5D5D5D"/>
      <path d="M178.109 109.54C176.929 108.857 175.874 108.298 175.377 108.05C175.812 108.36 176.867 108.981 178.046 109.726C179.288 110.409 180.281 110.968 180.778 111.216C180.343 110.906 179.288 110.285 178.109 109.54Z" fill="#5D5D5D"/>
      <path d="M178.17 106.684C176.929 106.063 175.811 105.567 175.314 105.38C175.811 105.691 176.804 106.25 178.046 106.87C179.288 107.491 180.405 107.988 180.902 108.174C180.467 107.864 179.412 107.305 178.17 106.684Z" fill="#5D5D5D"/>
      <path d="M178.109 103.828C176.805 103.269 175.688 102.835 175.191 102.711C175.688 102.959 176.743 103.456 178.047 104.014C179.351 104.573 180.468 104.946 180.965 105.132C180.468 104.884 179.351 104.387 178.109 103.828Z" fill="#5D5D5D"/>
      <path d="M177.861 100.972C176.557 100.538 175.378 100.165 174.881 100.041C175.378 100.29 176.495 100.724 177.799 101.159C179.102 101.593 180.282 101.966 180.779 102.09C180.282 101.904 179.164 101.469 177.861 100.972Z" fill="#5D5D5D"/>
      <path d="M177.364 98.1788C175.998 97.8063 174.881 97.4959 174.322 97.4338C174.819 97.6201 175.998 97.9926 177.302 98.3651C178.668 98.7375 179.785 98.9859 180.344 99.11C179.847 98.9238 178.73 98.5513 177.364 98.1788Z" fill="#5D5D5D"/>
      <path d="M176.743 95.3851C175.377 95.0747 174.197 94.8885 173.639 94.8264C174.135 95.0127 175.315 95.261 176.681 95.5714C178.046 95.8818 179.226 96.068 179.785 96.1301C179.288 95.9439 178.109 95.6335 176.743 95.3851Z" fill="#5D5D5D"/>
      <path d="M175.936 92.5917C174.57 92.4055 173.391 92.2813 172.832 92.2192C173.391 92.3434 174.57 92.5296 175.936 92.778C177.302 92.9642 178.481 93.0884 179.04 93.1505C178.481 93.0263 177.302 92.84 175.936 92.5917Z" fill="#5D5D5D"/>
      <path d="M174.942 89.9221C173.576 89.7979 172.335 89.7358 171.838 89.7358C172.397 89.86 173.576 89.9842 174.942 90.1083C176.308 90.2325 177.549 90.2946 178.046 90.2946C177.549 90.1704 176.37 90.0462 174.942 89.9221Z" fill="#5D5D5D"/>
      <path d="M173.825 87.3147C172.459 87.3147 171.217 87.3147 170.721 87.3147C171.279 87.3768 172.459 87.4389 173.825 87.5009C175.253 87.5009 176.432 87.5009 176.929 87.5009C176.432 87.3768 175.191 87.3147 173.825 87.3147Z" fill="#5D5D5D"/>
      <path d="M172.522 84.7694C171.156 84.8314 169.915 84.8935 169.418 85.0177C169.977 85.0177 171.156 85.0177 172.522 84.9556C173.888 84.8935 175.129 84.7694 175.626 84.7073C175.129 84.7073 173.888 84.7073 172.522 84.7694Z" fill="#5D5D5D"/>
      <path d="M171.032 82.2862C169.666 82.4103 168.486 82.5966 167.928 82.7207C168.486 82.7207 169.666 82.5966 171.032 82.4724C172.398 82.3483 173.577 82.162 174.136 82.0378C173.639 82.0378 172.46 82.162 171.032 82.2862Z" fill="#5D5D5D"/>
      <path d="M169.417 79.927C168.051 80.1753 166.872 80.4236 166.375 80.5478C166.934 80.4857 168.113 80.3616 169.479 80.1132C170.845 79.8649 172.024 79.6166 172.583 79.4924C172.024 79.5545 170.783 79.6787 169.417 79.927Z" fill="#5D5D5D"/>
      <path d="M167.679 77.6921C166.313 78.0025 165.195 78.3129 164.637 78.4991C165.195 78.4371 166.375 78.1887 167.679 77.8783C169.044 77.5679 170.162 77.2575 170.721 77.0713C170.224 77.1334 169.044 77.3817 167.679 77.6921Z" fill="#5D5D5D"/>
      <path d="M165.818 75.5195C164.514 75.954 163.335 76.3265 162.838 76.5128C163.397 76.3886 164.514 76.0782 165.88 75.7057C167.246 75.2711 168.363 74.8986 168.86 74.7124C168.301 74.8366 167.121 75.147 165.818 75.5195Z" fill="#5D5D5D"/>
      <path d="M163.767 73.5328C162.464 74.0295 161.346 74.4641 160.85 74.7124C161.408 74.5882 162.526 74.2157 163.829 73.7191C165.133 73.2224 166.251 72.7879 166.747 72.5396C166.189 72.6637 165.071 73.0362 163.767 73.5328Z" fill="#5D5D5D"/>
      <path d="M161.596 71.6083C160.355 72.167 159.237 72.7257 158.803 72.974C159.299 72.7878 160.417 72.3532 161.721 71.7945C163.024 71.2358 164.08 70.677 164.576 70.4287C164.018 70.615 162.9 71.0495 161.596 71.6083Z" fill="#5D5D5D"/>
      <path d="M159.36 69.8699C158.119 70.4907 157.063 71.1116 156.629 71.422C157.126 71.2357 158.181 70.677 159.423 70.0562C160.664 69.4354 161.72 68.8146 162.154 68.5042C161.657 68.6904 160.54 69.2491 159.36 69.8699Z" fill="#5D5D5D"/>
      <path d="M156.939 68.2558C155.76 69.0008 154.767 69.6216 154.332 69.9941C154.829 69.7458 155.884 69.187 157.064 68.4421C158.243 67.6971 159.236 67.0763 159.671 66.7659C159.174 66.9521 158.181 67.5729 156.939 68.2558Z" fill="#5D5D5D"/>
      <path d="M154.518 66.8281C153.401 67.6352 152.407 68.3181 151.973 68.6905C152.469 68.4422 153.463 67.7593 154.58 66.9523C155.698 66.1452 156.691 65.4623 157.125 65.0898C156.629 65.3382 155.635 66.0211 154.518 66.8281Z" fill="#5D5D5D"/>
      <path d="M151.972 65.5242C150.917 66.3934 149.985 67.1383 149.551 67.5729C149.985 67.2625 150.979 66.5796 152.034 65.7105C153.151 64.8413 154.021 64.0343 154.455 63.7239C154.021 63.9101 153.027 64.6551 151.972 65.5242Z" fill="#5D5D5D"/>
      <path d="M149.303 64.4068C148.248 65.338 147.379 66.1451 147.068 66.5797C147.503 66.2693 148.434 65.4622 149.427 64.531C150.483 63.5998 151.29 62.7306 151.724 62.3582C151.29 62.6686 150.359 63.4756 149.303 64.4068Z" fill="#5D5D5D"/>
      <path d="M146.634 63.4136C145.641 64.4069 144.834 65.276 144.523 65.7105C144.958 65.3381 145.827 64.531 146.758 63.5377C147.752 62.5444 148.559 61.6753 148.869 61.2407C148.435 61.6132 147.565 62.4203 146.634 63.4136Z" fill="#5D5D5D"/>
      <path d="M143.84 62.6066C142.909 63.6619 142.164 64.5932 141.854 65.0277C142.226 64.6552 143.033 63.7861 143.964 62.7307C144.895 61.6754 145.64 60.7441 145.951 60.3096C145.578 60.6821 144.771 61.5512 143.84 62.6066Z" fill="#5D5D5D"/>
      <path d="M141.046 61.9856C140.239 63.1031 139.494 64.0964 139.246 64.5309C139.619 64.0964 140.364 63.1652 141.233 62.1098C142.102 60.9923 142.785 59.999 143.033 59.5645C142.661 59.9369 141.916 60.9302 141.046 61.9856Z" fill="#5D5D5D"/>
      <path d="M138.252 61.5512C137.507 62.7307 136.824 63.724 136.576 64.2207C136.949 63.7861 137.632 62.7928 138.377 61.6753C139.121 60.4958 139.742 59.5025 140.053 59.0059C139.68 59.4404 138.997 60.4337 138.252 61.5512Z" fill="#5D5D5D"/>
      <path d="M135.398 61.3027C134.715 62.4822 134.157 63.5376 133.908 64.0964C134.219 63.6618 134.839 62.6064 135.584 61.4269C136.267 60.1853 136.826 59.1299 137.074 58.6953C136.702 59.0678 136.081 60.1232 135.398 61.3027Z" fill="#5D5D5D"/>
      <path d="M132.605 147.161C154.892 147.161 172.957 129.095 172.957 106.808C172.957 84.5211 154.892 66.4556 132.605 66.4556C110.318 66.4556 92.252 84.5211 92.252 106.808C92.252 129.095 110.318 147.161 132.605 147.161ZM170.846 105.318C170.846 105.318 171.095 112.333 169.046 118.604C166.997 124.936 162.652 130.461 162.652 130.461C160.603 132.882 157.499 132.82 155.823 130.275C154.147 127.729 151.167 123.26 149.242 120.342L145.952 115.313C144.027 112.395 145.145 109.043 148.373 107.801L154.023 105.691C157.313 104.449 162.279 102.587 165.197 101.531C168.053 100.414 170.598 102.152 170.846 105.318ZM143.034 69.9942C143.034 69.9942 149.739 71.9187 155.14 75.8298C160.541 79.7409 164.452 85.5144 164.452 85.5144C166.128 88.246 165.073 91.1638 162.155 91.9708C159.175 92.7779 154.022 94.2058 150.67 95.137L144.897 96.7511C141.544 97.6823 138.626 95.5715 138.502 92.095L138.254 86.0731C138.13 82.5966 137.881 77.2576 137.695 74.1536C137.509 71.1116 139.93 69.2492 143.034 69.9942ZM136.578 122.08L140.303 126.798C142.475 129.53 145.828 133.689 147.752 136.11C149.677 138.532 148.808 141.449 145.828 142.691C145.828 142.691 139.247 145.05 132.605 145.05C125.962 145.05 119.381 142.691 119.381 142.691C116.401 141.449 115.532 138.532 117.457 136.11C119.381 133.689 122.734 129.53 124.907 126.798L128.631 122.08C130.866 119.349 134.405 119.349 136.578 122.08ZM100.819 85.5144C100.819 85.5144 104.73 79.7409 110.131 75.8298C115.532 71.9187 122.237 69.9942 122.237 69.9942C125.341 69.2492 127.762 71.1116 127.638 74.2157C127.514 77.2577 127.266 82.6587 127.079 86.1352L126.831 92.1571C126.707 95.6336 123.789 97.7444 120.437 96.8132L114.663 95.1991C111.311 94.2678 106.158 92.84 103.178 92.0329C100.198 91.1638 99.1429 88.246 100.819 85.5144ZM100.074 101.469C102.93 102.525 107.958 104.449 111.249 105.629L116.898 107.739C120.188 108.981 121.244 112.333 119.319 115.251L116.029 120.28C114.104 123.198 111.125 127.667 109.448 130.213C107.772 132.758 104.668 132.882 102.619 130.399C102.619 130.399 98.3359 124.874 96.2872 118.604C94.2385 112.271 94.4869 105.318 94.4869 105.318C94.6731 102.152 97.2184 100.414 100.074 101.469Z" fill="#E0E0E0"/>
      <path d="M130.307 97.3097C130.307 96.0681 131.362 95.0127 132.604 95.0127C133.845 95.0127 134.901 96.0681 134.901 97.3097C134.901 98.5513 133.845 99.6067 132.604 99.6067C131.362 99.6067 130.307 98.6134 130.307 97.3097Z" fill="#4A4A4A"/>
      <path d="M131.301 97.3098C131.301 96.5648 131.86 96.0061 132.604 96.0061C133.349 96.0061 133.908 96.5648 133.908 97.3098C133.908 98.0548 133.349 98.6135 132.604 98.6135C131.922 98.6135 131.301 98.0548 131.301 97.3098Z" fill="#BABABA"/>
      <path d="M131.92 97.3097C131.92 96.9372 132.23 96.5647 132.665 96.5647C133.037 96.5647 133.41 96.8751 133.41 97.3097C133.41 97.6822 133.099 98.0546 132.665 98.0546C132.23 98.0546 131.92 97.7442 131.92 97.3097Z" fill="#E0E0E0"/>
      <path d="M122.92 106.063C121.74 105.691 121.058 104.387 121.43 103.208C121.803 102.028 123.106 101.345 124.286 101.718C125.465 102.09 126.148 103.394 125.776 104.635C125.403 105.753 124.1 106.436 122.92 106.063Z" fill="#4A4A4A"/>
      <path d="M123.23 105.07C122.547 104.822 122.175 104.139 122.423 103.456C122.671 102.773 123.354 102.401 124.037 102.649C124.72 102.897 125.092 103.58 124.844 104.263C124.596 104.946 123.913 105.318 123.23 105.07Z" fill="#BABABA"/>
      <path d="M123.416 104.573C123.044 104.449 122.858 104.015 122.982 103.642C123.106 103.27 123.54 103.083 123.913 103.207C124.285 103.332 124.472 103.766 124.347 104.139C124.161 104.449 123.789 104.697 123.416 104.573Z" fill="#E0E0E0"/>
      <path d="M128.879 115.81C128.134 116.803 126.706 117.051 125.651 116.306C124.657 115.561 124.409 114.134 125.154 113.078C125.899 112.085 127.327 111.837 128.382 112.582C129.437 113.327 129.624 114.754 128.879 115.81Z" fill="#4A4A4A"/>
      <path d="M128.072 115.189C127.637 115.748 126.83 115.872 126.271 115.499C125.713 115.065 125.588 114.258 125.961 113.699C126.396 113.14 127.203 113.016 127.761 113.389C128.382 113.823 128.506 114.63 128.072 115.189Z" fill="#BABABA"/>
      <path d="M127.638 114.879C127.389 115.189 126.955 115.251 126.645 115.065C126.334 114.816 126.272 114.382 126.458 114.072C126.707 113.761 127.141 113.699 127.452 113.885C127.824 114.134 127.886 114.568 127.638 114.879Z" fill="#E0E0E0"/>
      <path d="M140.053 113.14C140.798 114.134 140.549 115.624 139.556 116.369C138.501 117.114 137.073 116.865 136.328 115.872C135.583 114.879 135.831 113.389 136.824 112.644C137.88 111.837 139.308 112.085 140.053 113.14Z" fill="#4A4A4A"/>
      <path d="M139.245 113.699C139.68 114.258 139.555 115.065 138.935 115.499C138.376 115.934 137.569 115.81 137.134 115.189C136.7 114.63 136.824 113.823 137.445 113.389C138.003 113.016 138.81 113.14 139.245 113.699Z" fill="#BABABA"/>
      <path d="M138.748 114.01C138.997 114.32 138.935 114.754 138.562 115.003C138.252 115.251 137.817 115.189 137.569 114.817C137.321 114.506 137.383 114.072 137.755 113.823C138.066 113.637 138.5 113.699 138.748 114.01Z" fill="#E0E0E0"/>
      <path d="M140.922 101.717C142.101 101.345 143.405 101.966 143.778 103.207C144.15 104.387 143.529 105.691 142.288 106.063C141.108 106.436 139.804 105.815 139.432 104.573C139.06 103.394 139.742 102.09 140.922 101.717Z" fill="#4A4A4A"/>
      <path d="M141.232 102.649C141.915 102.4 142.66 102.773 142.846 103.456C143.094 104.139 142.722 104.884 142.039 105.07C141.356 105.318 140.611 104.946 140.425 104.263C140.177 103.58 140.549 102.835 141.232 102.649Z" fill="#BABABA"/>
      <path d="M141.418 103.207C141.79 103.083 142.225 103.27 142.349 103.642C142.473 104.015 142.287 104.449 141.914 104.573C141.542 104.697 141.107 104.511 140.983 104.139C140.797 103.704 141.045 103.332 141.418 103.207Z" fill="#E0E0E0"/>
      <path d="M138.19 106.808C138.19 109.912 135.707 112.396 132.603 112.396C129.499 112.396 127.016 109.912 127.016 106.808C127.016 103.704 129.499 101.221 132.603 101.221C135.707 101.221 138.19 103.704 138.19 106.808Z" fill="#5D5D5D"/>
      <path d="M147.752 136.11C145.827 133.689 142.475 129.53 140.302 126.798L136.577 122.08C134.404 119.349 130.866 119.349 128.693 122.08L124.968 126.798C122.795 129.53 119.443 133.689 117.518 136.11C115.594 138.532 116.463 141.449 119.443 142.691C119.443 142.691 126.023 145.05 132.666 145.05C139.309 145.05 145.889 142.691 145.889 142.691C148.807 141.449 149.676 138.532 147.752 136.11ZM142.599 140.704C142.599 140.704 137.633 142.505 132.604 142.505C127.575 142.505 122.609 140.704 122.609 140.704C120.374 139.773 119.691 137.538 121.181 135.738C122.609 133.938 125.154 130.772 126.768 128.723L129.624 125.184C131.238 123.136 133.97 123.136 135.584 125.184L138.44 128.723C140.054 130.772 142.599 133.938 144.027 135.738C145.517 137.538 144.834 139.773 142.599 140.704Z" fill="#C2C2C2"/>
      <path d="M165.196 101.469C162.34 102.524 157.312 104.449 154.022 105.629L148.372 107.739C145.082 108.981 144.027 112.333 145.951 115.251L149.241 120.28C151.166 123.197 154.146 127.667 155.822 130.213C157.498 132.758 160.602 132.882 162.651 130.399C162.651 130.399 166.934 124.874 168.983 118.603C171.032 112.271 170.783 105.318 170.783 105.318C170.597 102.152 168.052 100.414 165.196 101.469ZM167.928 107.801C167.928 107.801 168.114 113.078 166.562 117.858C165.01 122.639 161.782 126.798 161.782 126.798C160.23 128.661 157.871 128.598 156.629 126.612C155.325 124.687 153.09 121.273 151.663 119.1L149.179 115.313C147.751 113.14 148.559 110.533 151.042 109.602L155.263 107.988C157.746 107.056 161.533 105.629 163.706 104.821C165.817 104.076 167.742 105.38 167.928 107.801Z" fill="#C2C2C2"/>
      <path d="M137.632 74.1536C137.756 77.1955 138.004 82.5966 138.19 86.0731L138.439 92.095C138.563 95.5715 141.481 97.6823 144.833 96.751L150.606 95.1369C153.959 94.2057 159.112 92.7778 162.091 91.9708C165.071 91.1637 166.065 88.2459 164.388 85.5144C164.388 85.5144 160.477 79.7409 155.076 75.8298C149.675 71.9187 142.97 69.9941 142.97 69.9941C139.929 69.2492 137.507 71.1116 137.632 74.1536ZM144.46 73.5328C144.46 73.5328 149.551 75.0227 153.586 77.9405C157.622 80.9204 160.601 85.2661 160.601 85.2661C161.843 87.3147 161.098 89.4876 158.863 90.1084C156.628 90.7292 152.717 91.7846 150.172 92.5295L145.826 93.7091C143.281 94.392 141.108 92.8399 140.984 90.1705L140.798 85.6385C140.673 83.0311 140.487 78.9338 140.425 76.6368C140.239 74.3398 142.101 72.9119 144.46 73.5328Z" fill="#C2C2C2"/>
      <path d="M103.177 91.9709C106.157 92.7779 111.31 94.2058 114.662 95.137L120.436 96.7511C123.788 97.6823 126.706 95.5716 126.83 92.0951L127.078 86.0732C127.264 82.5967 127.451 77.2577 127.637 74.1537C127.761 71.1117 125.34 69.1872 122.236 69.9321C122.236 69.9321 115.531 71.8567 110.13 75.7678C104.729 79.6789 100.818 85.4524 100.818 85.4524C99.1418 88.246 100.197 91.1638 103.177 91.9709ZM104.605 85.2661C104.605 85.2661 107.585 80.9205 111.62 77.9406C115.655 75.0228 120.746 73.5328 120.746 73.5328C123.105 72.9741 124.967 74.402 124.843 76.699C124.719 78.996 124.533 83.0312 124.471 85.7007L124.285 90.2326C124.16 92.84 121.988 94.4541 119.442 93.7712L115.097 92.5917C112.551 91.9088 108.64 90.7913 106.405 90.1705C104.108 89.4876 103.363 87.3148 104.605 85.2661Z" fill="#C2C2C2"/>
      <path d="M109.385 130.213C111.061 127.667 114.041 123.197 115.965 120.28L119.255 115.251C121.18 112.333 120.063 108.981 116.834 107.739L111.185 105.629C107.895 104.387 102.928 102.524 100.01 101.469C97.1547 100.414 94.6093 102.152 94.361 105.318C94.361 105.318 94.1127 112.333 96.1614 118.603C98.21 124.936 102.494 130.461 102.494 130.461C104.604 132.882 107.708 132.82 109.385 130.213ZM103.487 126.736C103.487 126.736 100.259 122.577 98.7067 117.796C97.1547 113.016 97.3409 107.739 97.3409 107.739C97.5271 105.318 99.4517 104.014 101.624 104.821C103.797 105.629 107.584 107.056 110.068 107.988L114.289 109.602C116.772 110.533 117.579 113.078 116.151 115.313L113.668 119.1C112.24 121.273 110.005 124.687 108.702 126.612C107.336 128.536 105.039 128.598 103.487 126.736Z" fill="#C2C2C2"/>
      <path d="M136.701 106.808C136.701 109.043 134.9 110.905 132.603 110.905C130.368 110.905 128.506 109.105 128.506 106.808C128.506 104.573 130.306 102.711 132.603 102.711C134.838 102.711 136.701 104.511 136.701 106.808Z" fill="#2A2A2A"/>
    </g>
    <mask id="mask1_1597_34559" style="mask-type:luminance" maskUnits="userSpaceOnUse" x="70" y="46" width="125" height="105">
      <path d="M194.809 46.2793H70.4609V150.699H194.809V46.2793Z" fill="white"/>
    </mask>
    <g mask="url(#mask1_1597_34559)">
      <path d="M132.481 151.196L81.5742 151.072C81.6984 149.458 82.4434 148.837 83.3746 148.03C84.3679 147.161 86.4165 146.105 86.4165 143.684C86.4165 143.684 118.45 148.961 132.481 149.085" fill="#5D5D5D"/>
      <path d="M132.48 149.023C125.155 148.713 113.297 147.161 103.24 146.167C103.24 146.167 105.723 147.968 109.572 149.023C112.863 149.954 126.21 150.079 132.48 150.141" fill="#4A4A4A"/>
      <path d="M100.198 148.154C100.198 148.216 100.198 148.216 100.198 148.154C99.8873 147.968 99.6389 147.844 99.3906 147.657C99.5148 147.906 99.7631 148.03 100.198 148.154Z" fill="#5D5D5D"/>
      <path d="M115.284 151.072C114.911 151.072 114.601 151.072 114.291 151.072C110.69 151.072 108.703 150.389 107.089 149.892C106.096 149.582 105.227 149.272 104.171 149.147C102.433 148.961 101.192 148.589 100.26 148.154H100.198C99.7636 148.03 99.5774 147.844 99.3912 147.658C99.0187 147.347 98.7083 147.037 98.5841 146.788C98.2737 146.106 97.5287 145.485 97.2804 145.298C96.97 145.236 96.5975 145.174 96.2871 145.174C96.4734 145.361 96.9079 145.795 97.715 146.416C98.1495 146.788 98.3358 147.161 98.522 147.533C98.7703 148.03 99.0187 148.589 100.012 148.899C100.695 149.147 101.688 149.272 102.744 149.458C104.047 149.644 105.351 149.892 106.034 150.203C106.468 150.389 107.462 150.824 109.076 151.134L115.284 151.072Z" fill="#767676"/>
      <path d="M98.1505 145.857C98.7093 146.354 98.9576 146.788 99.1438 147.161C99.2059 147.347 99.3301 147.471 99.3922 147.657C99.6405 147.844 99.8888 148.03 100.261 148.216C100.882 148.402 101.813 148.589 102.869 148.713C104.234 148.899 105.6 149.147 106.345 149.52C108.021 150.265 111.25 151.072 115.285 150.886V151.134C115.533 151.134 115.844 151.134 116.154 151.072V150.699C111.374 150.948 109.139 150.203 107.214 149.582C106.221 149.272 105.352 148.961 104.234 148.837C101.192 148.527 99.3921 147.533 99.0197 146.602C98.7713 146.105 98.3368 145.671 97.9643 145.36C97.8401 145.36 97.778 145.36 97.5918 145.298C97.716 145.485 97.9022 145.671 98.1505 145.857Z" fill="#3F3F3F"/>
      <path d="M106.344 149.458C105.537 149.085 104.171 148.899 102.867 148.651C101.874 148.464 100.881 148.34 100.26 148.154C101.191 148.589 102.433 148.961 104.171 149.147C105.226 149.272 106.095 149.52 107.089 149.892C108.703 150.451 110.689 151.072 114.29 151.072C114.6 151.072 114.973 151.072 115.283 151.072V150.824C111.186 151.01 107.958 150.265 106.344 149.458Z" fill="#3F3F3F"/>
      <path d="M98.1504 145.857C97.9021 145.671 97.7158 145.485 97.5296 145.298C97.4675 145.298 97.3433 145.298 97.2812 145.236C97.5296 145.423 98.2745 146.043 98.585 146.726C98.7091 147.037 98.9574 147.347 99.392 147.595C99.2678 147.471 99.2058 147.285 99.1437 147.099C98.9574 146.85 98.7091 146.354 98.1504 145.857Z" fill="#3F3F3F"/>
      <path d="M92.8726 144.678C92.8726 144.678 90.2652 144.802 90.0169 145.361C89.8927 145.609 88.4648 147.471 88.4648 147.471L90.8239 147.658L92.1897 146.168L94.4246 146.044L95.2317 144.926L92.8726 144.678Z" fill="#4A4A4A"/>
      <path d="M94.7973 146.478C94.7973 146.478 92.7486 146.788 92.7486 146.851C92.7486 146.913 91.6311 148.216 91.6311 148.216L89.6445 148.527L90.3274 149.334L91.6311 148.527L92.7486 147.658L93.9281 147.037L95.356 146.975L94.7973 146.478Z" fill="#4A4A4A"/>
      <path d="M132.48 151.196L183.573 151.072C183.449 149.458 182.704 148.837 181.772 148.03C180.779 147.161 178.73 146.105 178.73 143.684C178.73 143.684 146.51 148.899 132.418 149.023" fill="#5D5D5D"/>
      <path d="M132.48 149.023C139.806 148.775 151.788 147.285 161.907 146.167C161.907 146.167 159.424 147.968 155.575 149.023C152.284 149.954 138.751 150.079 132.48 150.141" fill="#4A4A4A"/>
      <path d="M165.012 148.216C165.322 148.03 165.57 147.906 165.819 147.719C165.633 147.906 165.446 148.092 165.012 148.216Z" fill="#5D5D5D"/>
      <path d="M149.926 151.134C150.298 151.134 150.609 151.134 150.919 151.134C154.52 151.134 156.506 150.451 158.12 149.954C159.114 149.644 159.983 149.334 161.038 149.21C162.777 149.023 164.018 148.651 164.949 148.216H165.011C165.446 148.092 165.632 147.906 165.819 147.72C166.191 147.409 166.501 147.099 166.626 146.85C166.936 146.168 167.681 145.547 167.929 145.36C168.24 145.298 168.612 145.236 168.923 145.236C168.736 145.423 168.302 145.857 167.495 146.478C167.06 146.85 166.874 147.223 166.688 147.595C166.439 148.092 166.191 148.651 165.198 148.961C164.515 149.21 163.522 149.334 162.466 149.52C161.162 149.706 159.859 149.954 159.176 150.265C158.741 150.451 157.748 150.886 156.134 151.196L149.926 151.134Z" fill="#767676"/>
      <path d="M167.06 145.919C166.501 146.416 166.253 146.851 166.067 147.223C166.005 147.409 165.881 147.533 165.818 147.72C165.57 147.906 165.322 148.092 164.949 148.278C164.329 148.465 163.397 148.651 162.342 148.775C161.038 148.961 159.61 149.21 158.865 149.582C157.189 150.327 153.961 151.134 149.926 150.948V151.196C149.677 151.196 149.367 151.196 149.057 151.134V150.762C153.837 151.01 156.072 150.265 157.996 149.644C158.99 149.334 159.859 149.023 160.976 148.899C164.018 148.589 165.819 147.596 166.191 146.664C166.439 146.168 166.936 145.733 167.246 145.423C167.371 145.423 167.433 145.423 167.557 145.361C167.495 145.547 167.246 145.671 167.06 145.919Z" fill="#3F3F3F"/>
      <path d="M158.865 149.52C159.672 149.148 161.038 148.961 162.342 148.713C163.335 148.527 164.329 148.403 164.949 148.216C164.018 148.651 162.777 149.023 161.038 149.21C159.983 149.334 159.114 149.582 158.12 149.955C156.506 150.513 154.52 151.134 150.919 151.134C150.609 151.134 150.236 151.134 149.926 151.134V150.886C153.961 151.072 157.189 150.265 158.865 149.52Z" fill="#3F3F3F"/>
      <path d="M167.06 145.919C167.308 145.733 167.495 145.547 167.681 145.36C167.743 145.36 167.867 145.36 167.929 145.298C167.681 145.485 166.936 146.105 166.625 146.788C166.501 147.099 166.253 147.409 165.818 147.657C165.943 147.533 166.005 147.347 166.067 147.161C166.253 146.85 166.501 146.354 167.06 145.919Z" fill="#3F3F3F"/>
      <path d="M172.275 144.678C172.275 144.678 174.882 144.802 175.131 145.361C175.255 145.609 176.683 147.471 176.683 147.471L174.324 147.658L172.958 146.168L170.723 146.044L169.916 144.988L172.275 144.678Z" fill="#4A4A4A"/>
      <path d="M170.412 146.478C170.412 146.478 172.461 146.788 172.461 146.851C172.461 146.913 173.578 148.216 173.578 148.216L175.565 148.527L174.882 149.334L173.578 148.527L172.461 147.658L171.281 147.037L169.854 146.975L170.412 146.478Z" fill="#4A4A4A"/>
      <path d="M123.604 148.961C123.542 149.085 123.355 149.209 123.231 149.334C123.107 149.458 123.107 149.582 123.045 149.644C123.107 149.582 123.231 149.52 123.293 149.396C123.355 149.334 123.417 149.272 123.479 149.272C123.542 149.209 123.666 149.147 123.728 149.085C123.79 148.961 123.728 148.837 123.728 148.775C123.666 148.713 123.728 148.651 123.728 148.589C123.79 148.464 123.914 148.402 123.914 148.34C123.852 148.34 123.728 148.402 123.604 148.527C123.604 148.589 123.542 148.589 123.542 148.651C123.542 148.713 123.542 148.775 123.542 148.837C123.604 148.837 123.604 148.899 123.604 148.961Z" fill="#5D5D5D"/>
      <path d="M125.341 149.147C125.279 149.21 125.155 149.334 125.093 149.396C124.969 149.458 124.969 149.582 124.969 149.644C125.031 149.582 125.093 149.52 125.155 149.458C125.217 149.396 125.403 149.334 125.465 149.21C125.59 149.023 125.527 148.899 125.527 148.775C125.527 148.651 125.527 148.589 125.465 148.527C125.403 148.589 125.341 148.651 125.341 148.775C125.341 148.899 125.403 149.023 125.341 149.147Z" fill="#5D5D5D"/>
      <path d="M127.514 149.272C127.389 149.458 127.203 149.644 127.203 149.768C127.265 149.644 127.451 149.582 127.638 149.334C127.762 149.023 127.7 148.775 127.638 148.713C127.638 148.837 127.638 149.085 127.514 149.272Z" fill="#5D5D5D"/>
      <path d="M129.562 149.272C129.562 149.396 129.5 149.52 129.5 149.582C129.5 149.644 129.438 149.768 129.5 149.83C129.5 149.768 129.562 149.706 129.624 149.644C129.686 149.582 129.749 149.458 129.749 149.334C129.811 149.085 129.749 148.837 129.686 148.775C129.686 148.837 129.624 149.023 129.562 149.272Z" fill="#5D5D5D"/>
      <path d="M131.239 149.334C131.177 149.458 131.115 149.582 131.115 149.644C131.115 149.768 131.115 149.83 131.115 149.892C131.177 149.83 131.177 149.768 131.239 149.706C131.301 149.644 131.364 149.52 131.426 149.396C131.488 149.085 131.426 148.899 131.364 148.775C131.301 148.899 131.301 149.147 131.239 149.334Z" fill="#5D5D5D"/>
      <path d="M133.101 149.458C133.039 149.52 132.976 149.582 132.914 149.706C132.852 149.768 132.914 149.892 132.976 149.892C132.976 149.768 133.101 149.768 133.287 149.582C133.411 149.334 133.287 149.147 133.349 149.085C133.163 149.023 133.101 149.334 133.101 149.458Z" fill="#5D5D5D"/>
      <path d="M134.715 149.396C134.467 149.582 134.28 149.83 134.156 149.768C134.218 149.83 134.342 149.83 134.467 149.768C134.591 149.706 134.715 149.582 134.839 149.52L134.901 149.458C134.963 149.396 135.025 149.396 135.087 149.334C135.15 149.272 135.15 149.21 135.212 149.147C135.274 149.023 135.274 148.961 135.274 148.899C135.15 148.961 135.087 149.21 134.839 149.272C134.777 149.334 134.715 149.334 134.715 149.396Z" fill="#5D5D5D"/>
      <path d="M136.951 149.209C136.703 149.458 136.703 149.706 136.641 149.768C136.765 149.768 136.951 149.52 137.075 149.334C137.137 149.272 137.324 149.147 137.324 149.023C137.386 148.899 137.324 148.775 137.324 148.775C137.261 148.837 137.261 148.899 137.199 149.023C137.199 149.085 137.075 149.085 136.951 149.209Z" fill="#5D5D5D"/>
      <path d="M139.62 149.023C139.558 149.209 139.496 149.334 139.496 149.458C139.496 149.582 139.496 149.706 139.558 149.768C139.558 149.706 139.62 149.582 139.62 149.458C139.62 149.334 139.744 149.209 139.744 149.085C139.869 148.713 139.806 148.464 139.806 148.34C139.744 148.402 139.682 148.713 139.62 149.023Z" fill="#5D5D5D"/>
      <path d="M141.979 148.837C141.917 149.085 141.793 149.396 141.793 149.52C141.917 149.458 142.041 149.21 142.165 148.899C142.29 148.589 142.103 148.278 142.041 148.216C142.041 148.34 142.041 148.589 141.979 148.837Z" fill="#5D5D5D"/>
      <path d="M107.463 145.05C108.456 144.181 109.512 143.622 109.946 143.312C109.449 143.498 108.394 143.995 107.339 144.926C106.842 145.36 106.283 145.795 106.159 146.354C106.097 146.602 106.035 146.85 105.973 147.037C105.911 147.223 105.787 147.347 105.725 147.471C105.849 147.409 105.973 147.285 106.035 147.099C106.159 146.912 106.159 146.664 106.283 146.416C106.47 145.919 106.966 145.547 107.463 145.05Z" fill="#5D5D5D"/>
      <path d="M109.759 146.106C110.069 145.609 110.504 145.236 110.876 144.926C111.249 144.616 111.497 144.367 111.683 144.243C111.497 144.367 111.186 144.554 110.752 144.864C110.379 145.174 109.945 145.547 109.572 146.044C109.2 146.602 109.2 147.161 108.952 147.596C108.765 147.968 108.393 148.154 108.145 148.278C108.331 148.216 108.765 148.092 109.014 147.658C109.386 147.161 109.448 146.602 109.759 146.106Z" fill="#5D5D5D"/>
      <path d="M112.552 146.85C113.048 146.105 113.731 145.609 113.918 145.298C113.607 145.485 112.924 145.919 112.428 146.726C112.303 146.912 112.179 147.099 112.117 147.285C112.055 147.471 111.931 147.657 111.807 147.782C111.621 148.092 111.372 148.216 111.248 148.34C111.434 148.278 111.683 148.154 111.931 147.844C112.055 147.719 112.179 147.533 112.241 147.347C112.303 147.223 112.428 147.037 112.552 146.85Z" fill="#5D5D5D"/>
      <path d="M114.664 147.782C114.85 147.409 114.974 147.037 115.161 146.788C115.347 146.54 115.533 146.354 115.595 146.167C115.471 146.292 115.285 146.416 115.036 146.726C114.85 146.975 114.664 147.347 114.478 147.72C114.291 148.092 114.229 148.464 113.981 148.713C113.733 148.961 113.546 149.147 113.484 149.272C113.609 149.147 113.795 149.023 114.105 148.837C114.354 148.589 114.478 148.154 114.664 147.782Z" fill="#5D5D5D"/>
      <path d="M117.333 148.03C117.519 147.533 117.829 147.161 117.891 146.975C117.767 147.099 117.395 147.409 117.146 147.968C117.084 148.092 117.022 148.216 117.022 148.34C117.022 148.465 117.022 148.589 117.022 148.651C117.022 148.837 116.898 148.961 116.836 149.023C116.898 148.961 117.146 148.899 117.208 148.651C117.208 148.465 117.208 148.216 117.333 148.03Z" fill="#5D5D5D"/>
      <path d="M119.63 148.216C119.816 147.906 120.002 147.595 120.064 147.471C119.94 147.533 119.692 147.782 119.506 148.154C119.444 148.34 119.319 148.464 119.257 148.651C119.195 148.837 119.195 148.961 119.195 149.023C119.319 148.837 119.444 148.589 119.63 148.216Z" fill="#5D5D5D"/>
      <path d="M159.61 144.057C159.361 142.629 158.989 141.387 158.803 140.829C158.865 141.387 159.175 142.629 159.424 144.057C159.734 145.485 159.92 146.788 159.61 147.285C159.796 147.099 159.92 146.602 159.92 146.043C159.92 145.423 159.796 144.74 159.61 144.057Z" fill="#5D5D5D"/>
      <path d="M157.686 145.236C157.624 144.553 157.499 143.933 157.375 143.436C157.251 142.939 157.189 142.505 157.127 142.256C157.127 142.505 157.189 142.939 157.251 143.436C157.375 143.933 157.437 144.553 157.562 145.174C157.562 145.485 157.562 145.795 157.562 146.105C157.562 146.416 157.499 146.664 157.499 146.975C157.437 147.471 157.375 147.906 157.251 148.092C157.437 147.906 157.562 147.471 157.624 146.975C157.686 146.726 157.686 146.416 157.686 146.105C157.686 145.919 157.686 145.609 157.686 145.236Z" fill="#5D5D5D"/>
      <path d="M155.699 146.043C155.637 144.74 155.575 143.684 155.513 143.125C155.451 143.622 155.451 144.74 155.513 146.043C155.513 146.354 155.575 146.664 155.575 146.975C155.575 147.223 155.513 147.533 155.451 147.782C155.326 148.278 155.326 148.713 155.451 148.961C155.388 148.713 155.451 148.34 155.575 147.844C155.637 147.595 155.699 147.347 155.761 147.037C155.761 146.664 155.699 146.354 155.699 146.043Z" fill="#5D5D5D"/>
      <path d="M153.092 146.851C153.03 145.795 153.092 144.926 153.03 144.491C152.968 144.864 152.844 145.795 152.906 146.851C153.03 147.906 152.658 148.713 152.72 149.148C152.782 148.961 152.844 148.651 152.968 148.278C153.092 147.844 153.154 147.347 153.092 146.851Z" fill="#5D5D5D"/>
      <path d="M150.857 147.782C150.919 146.912 150.795 146.23 150.795 145.919C150.733 146.23 150.795 146.975 150.671 147.72C150.609 147.906 150.609 148.154 150.485 148.278C150.423 148.34 150.36 148.402 150.298 148.527C150.236 148.589 150.236 148.713 150.236 148.837C150.298 149.085 150.485 149.023 150.547 149.085C150.609 149.147 150.547 149.272 150.485 149.334C150.485 149.334 150.547 149.272 150.547 149.209C150.547 149.147 150.609 149.085 150.547 149.023C150.423 148.961 150.298 148.899 150.298 148.775C150.298 148.651 150.36 148.527 150.547 148.402C150.609 148.34 150.671 148.216 150.671 148.092C150.795 148.03 150.795 147.906 150.857 147.782Z" fill="#5D5D5D"/>
      <path d="M148.807 148.154C148.931 147.782 148.869 147.471 148.869 147.223C148.869 146.975 148.869 146.726 148.869 146.602C148.807 146.726 148.745 146.912 148.745 147.223C148.745 147.471 148.745 147.782 148.621 148.092C148.559 148.402 148.249 148.527 148.062 148.713C147.814 148.899 147.876 149.209 147.876 149.272C147.876 149.147 147.938 148.899 148.124 148.775C148.311 148.713 148.683 148.527 148.807 148.154Z" fill="#5D5D5D"/>
      <path d="M146.262 148.34C146.386 148.092 146.51 147.844 146.572 147.658C146.634 147.471 146.634 147.285 146.634 147.161C146.572 147.285 146.51 147.409 146.448 147.595C146.386 147.782 146.2 147.968 146.138 148.216C145.951 148.403 145.827 148.651 145.703 148.775C145.579 148.961 145.455 149.085 145.393 149.147C145.455 149.085 145.641 148.961 145.765 148.837C145.951 148.775 146.075 148.589 146.262 148.34Z" fill="#5D5D5D"/>
      <path d="M144.461 148.527C144.399 148.216 144.337 147.968 144.337 147.844C144.337 147.906 144.213 148.03 144.213 148.154C144.213 148.278 144.213 148.465 144.275 148.589C144.337 148.899 144.089 148.961 143.965 149.085C144.027 149.085 144.151 149.085 144.275 149.023C144.461 148.899 144.524 148.713 144.461 148.527Z" fill="#5D5D5D"/>
    </g>
    <path d="M111.994 11.7622C111.994 19.6465 107.213 23.8059 101.378 23.8059C95.3559 23.8059 91.0723 19.0878 91.0723 12.1968C91.0723 4.93331 95.6042 0.153076 101.688 0.153076C107.958 0.153076 111.994 4.93331 111.994 11.7622ZM94.2384 12.1347C94.2384 17.0391 96.9079 21.3848 101.564 21.3848C106.282 21.3848 108.889 17.0391 108.889 11.8864C108.889 7.35447 106.53 2.57423 101.564 2.57423C96.6596 2.57423 94.2384 7.10614 94.2384 12.1347Z" fill="#E7E8E9"/>
    <path d="M130.741 15.0524C130.741 21.1363 126.52 23.8058 122.546 23.8058C118.077 23.8058 114.662 20.5155 114.662 15.3628C114.662 9.83759 118.263 6.60938 122.795 6.60938C127.575 6.60938 130.741 10.0238 130.741 15.0524ZM117.704 15.2386C117.704 18.8393 119.753 21.5709 122.671 21.5709C125.526 21.5709 127.637 18.9014 127.637 15.1765C127.637 12.3829 126.271 8.84429 122.733 8.84429C119.194 8.84429 117.704 12.1346 117.704 15.2386Z" fill="#E7E8E9"/>
    <path d="M134.528 12.3208C134.528 10.2101 134.466 8.53388 134.404 6.98186H137.074L137.198 9.7755H137.26C138.502 7.78891 140.426 6.60938 143.096 6.60938C147.069 6.60938 150.049 9.96175 150.049 14.9903C150.049 20.888 146.448 23.8058 142.599 23.8058C140.426 23.8058 138.502 22.8746 137.508 21.1984H137.446V30.1381H134.466V12.3208H134.528ZM137.508 16.7286C137.508 17.1631 137.57 17.5977 137.633 17.9702C138.191 20.0189 139.992 21.4467 142.102 21.4467C145.268 21.4467 147.069 18.8393 147.069 15.1145C147.069 11.8242 145.331 8.96845 142.164 8.96845C140.116 8.96845 138.253 10.4584 137.633 12.6933C137.508 13.0658 137.446 13.5004 137.446 13.9349V16.7286H137.508Z" fill="#E7E8E9"/>
    <path d="M153.464 20.3913C154.333 20.9501 155.885 21.5709 157.375 21.5709C159.548 21.5709 160.541 20.4534 160.541 19.1497C160.541 17.7219 159.672 16.9148 157.499 16.1078C154.519 15.0524 153.153 13.4383 153.153 11.4517C153.153 8.78221 155.264 6.60938 158.803 6.60938C160.479 6.60938 161.907 7.10602 162.838 7.60267L162.093 9.7755C161.472 9.34094 160.231 8.84429 158.741 8.84429C157.002 8.84429 156.009 9.83759 156.009 11.0792C156.009 12.445 157.002 13.0658 159.113 13.8728C161.969 14.9903 163.459 16.3561 163.459 18.8393C163.459 21.7571 161.224 23.7437 157.313 23.7437C155.512 23.7437 153.836 23.3092 152.719 22.6263L153.464 20.3913Z" fill="#E7E8E9"/>
    <path d="M166.748 21.6952C166.748 20.4536 167.617 19.5845 168.735 19.5845C169.976 19.5845 170.721 20.4536 170.721 21.6952C170.721 22.8748 169.914 23.806 168.735 23.806C167.555 23.806 166.748 22.8748 166.748 21.6952ZM167.617 16.8529L167.121 0.525635H170.411L169.914 16.8529H167.617Z" fill="#E7E8E9"/>
  </g>
  <defs>
    <clipPath id="clip0_1597_34559">
      <rect width="250" height="165.694" fill="white" transform="translate(0 0.153076)"/>
    </clipPath>
  </defs>
</svg>