<svg width="202" height="158" viewBox="0 0 202 158" fill="none" xmlns="http://www.w3.org/2000/svg">
<path d="M103.71 157.62C146.871 157.62 181.86 153.813 181.86 149.118C181.86 144.422 146.871 140.615 103.71 140.615C60.5494 140.615 25.5605 144.422 25.5605 149.118C25.5605 153.813 60.5494 157.62 103.71 157.62Z" fill="#101A21"/>
<path d="M138.806 104.234C137.818 70.5723 149.928 38.047 168.465 15.7043" stroke="#40484D" stroke-width="1.1425" stroke-miterlimit="10"/>
<path d="M150.077 37.454C151.856 19.9556 138.411 29.644 164.807 14.716C169.009 12.3433 163.818 15.8034 158.183 28.7542C156.157 33.6479 148.792 47.3896 145.035 60.1427C139.499 78.5308 145.084 66.9146 142.86 48.8725C142.168 40.5681 140.141 32.8076 146.023 26.5299C148.841 30.2866 150.126 35.0814 150.077 37.454Z" fill="#40484D"/>
<path d="M178.648 11.4534C179.636 9.22906 179.785 5.96665 179.884 2.95138C185.519 0.232701 190.907 -0.360465 193.526 0.183271C184.184 5.71949 181.614 12.4915 176.621 19.9555C162.534 40.0243 148.347 49.4655 141.674 72.6979C146.716 52.6785 148.742 49.4655 156.75 30.3853C161.1 19.9061 168.169 9.1302 178.302 3.7917C178.994 6.11494 179.142 9.42678 178.648 11.4534Z" fill="#101A21"/>
<path d="M48.2992 141.505C46.2231 107.447 30.2571 99.5384 20.2227 91.0364" stroke="#40484D" stroke-width="0.8047" stroke-miterlimit="10"/>
<path d="M27.0441 100.725C25.7095 100.527 22.9908 100.873 20.3216 102.307C19.7778 99.934 20.025 96.4739 18.9375 92.5688C24.8692 96.4739 27.9339 96.1773 38.4131 108.238C32.6298 102.356 22.8425 108.288 20.6676 103.394C22.2988 102.158 25.1657 100.626 27.0441 100.725Z" fill="#101A21"/>
<path d="M19.185 85.5991C17.9493 85.4014 16.3675 85.9451 14.588 86.6372C13.4511 83.869 13.2534 81.0021 13.5005 79.4697C15.5272 81.9907 17.7516 82.8804 20.1242 83.8196C32.7784 88.911 31.4932 99.1925 39.2538 109.227C25.1661 92.8654 19.3828 96.721 14.934 87.3786C16.3181 86.39 18.0976 85.698 19.185 85.5991Z" fill="#40484D"/>
<path d="M48.2987 141.505C49.139 112.045 38.5609 83.5725 22.3477 63.998" stroke="#40484D" stroke-miterlimit="10"/>
<path d="M38.414 83.0783C36.8817 67.7548 48.5967 76.2569 25.5127 63.1578C21.8548 61.0817 26.4024 64.1464 31.3455 75.466C33.125 79.717 39.551 91.778 42.8628 102.949C47.707 119.014 42.8134 108.881 44.7412 93.0632C45.3343 85.797 47.1138 78.9755 41.973 73.4888C39.5015 76.8006 38.414 80.9528 38.414 83.0783Z" fill="#101A21"/>
<path d="M13.4508 60.2907C12.6105 58.3629 12.4622 55.4959 12.4128 52.8761C7.46971 50.5034 2.77381 50.0091 0.5 50.454C8.70547 55.2982 10.9298 61.2299 15.2797 67.7547C27.5879 85.3026 40.0444 93.5575 45.8773 113.923C41.4779 96.4244 39.6984 93.6069 32.6793 76.8499C28.8731 67.6558 22.6449 58.264 13.7968 53.5681C13.1542 55.6442 13.0059 58.5112 13.4508 60.2907Z" fill="#40484D"/>
<path d="M165.203 67.2111V138.441C165.203 140.22 164.461 141.851 163.275 142.988L163.225 143.038C162.088 144.076 160.606 144.718 158.925 144.718H48.4476C46.767 144.718 45.284 144.076 44.1471 143.038L44.0977 142.988C42.9114 141.851 42.1699 140.22 42.1699 138.441V67.2111C42.1699 63.2567 43.9 59.5 46.9647 56.8801L96.7413 14.6664C100.795 11.2557 106.677 11.2557 110.73 14.6664L160.507 56.8801C163.473 59.5 165.203 63.2567 165.203 67.2111Z" fill="#DB4E30"/>
<g opacity="0.5">
<path d="M138.081 8.87056L56.3262 23.7192L72.7648 114.228L154.52 99.3798L138.081 8.87056Z" fill="#808080"/>
</g>
<path d="M136.497 5.16304L54.7422 20.0117L71.1808 110.521L152.936 95.6723L136.497 5.16304Z" fill="#FBFBFB"/>
<path d="M130.949 62.0702L80.7274 71.2149C79.7388 71.4126 78.7502 70.7206 78.6019 69.732L77.6627 64.5418C77.465 63.5532 78.157 62.5646 79.1456 62.4163L129.367 53.2716C130.356 53.0739 131.344 53.7659 131.493 54.7545L132.432 59.9447C132.63 60.9333 131.987 61.8725 130.949 62.0702Z" fill="white"/>
<path d="M130.455 61.5759L80.2333 70.7205C79.2447 70.9182 78.2561 70.2262 78.1078 69.2376L77.1686 64.0474C76.9709 63.0588 77.6629 62.0702 78.6515 61.9219L128.873 52.7772C129.862 52.5795 130.85 53.2715 130.998 54.2601L131.938 59.4503C132.135 60.439 131.493 61.3781 130.455 61.5759Z" fill="#E8E8E8"/>
<path d="M133.371 75.3178L83.1493 84.4625C82.1607 84.6602 81.1721 83.9681 81.0238 82.9795L80.0846 77.7893C79.8869 76.8007 80.5789 75.8121 81.5675 75.6638L131.789 66.5192C132.778 66.3214 133.766 67.0135 133.914 68.0021L134.854 73.1923C135.051 74.1809 134.359 75.1695 133.371 75.3178Z" fill="white"/>
<path d="M132.877 74.8234L82.6552 83.9681C81.6665 84.1658 80.6779 83.4738 80.5296 82.4852L79.5905 77.2949C79.3927 76.3063 80.0848 75.3177 81.0734 75.1694L131.295 66.0248C132.283 65.8271 133.272 66.5191 133.42 67.5077L134.36 72.6979C134.557 73.6865 133.865 74.6751 132.877 74.8234Z" fill="#E8E8E8"/>
<g opacity="0.5">
<path d="M135.793 88.5651L85.5712 97.7098C84.5826 97.9075 83.5939 97.2155 83.4456 96.2269L82.5065 91.0367C82.3088 90.048 83.0008 89.0594 83.9894 88.9111L134.211 79.7665C135.199 79.5688 136.188 80.2608 136.336 81.2494L137.276 86.4396C137.424 87.4282 136.781 88.4168 135.793 88.5651Z" fill="#101A21"/>
</g>
<path d="M135.298 88.0707L85.077 97.2154C84.0884 97.4131 83.0998 96.7211 82.9515 95.7325L82.0123 90.5423C81.8146 89.5537 82.5066 88.565 83.4952 88.4167L133.717 79.2721C134.705 79.0744 135.694 79.7664 135.842 80.755L136.781 85.9452C136.93 86.9338 136.287 87.9225 135.298 88.0707Z" fill="#101A21"/>
<path d="M114.378 44.8254C117.198 37.1945 113.299 28.7219 105.668 25.9014C98.0368 23.0809 89.5642 26.9805 86.7437 34.6114C83.9232 42.2424 87.8228 50.7149 95.4537 53.5355C103.085 56.356 111.557 52.4564 114.378 44.8254Z" fill="#101A21"/>
<path d="M113.311 43.8418C115.582 36.8009 111.716 29.2519 104.675 26.9806C97.6339 24.7094 90.0849 28.5759 87.8136 35.6168C85.5424 42.6577 89.4089 50.2067 96.4498 52.478C103.491 54.7492 111.04 50.8826 113.311 43.8418Z" fill="#E8E8E8"/>
<path d="M101.257 43.7151C104.534 43.1199 106.609 39.4366 105.892 35.4881C105.175 31.5397 101.937 28.8213 98.66 29.4165C95.3831 30.0117 93.3079 33.695 94.025 37.6434C94.7422 41.5919 97.98 44.3103 101.257 43.7151Z" fill="#F15635"/>
<path d="M101.487 44.7696C98.0273 45.4122 94.9627 46.7468 92.7383 48.4274C95.3581 50.5529 98.9171 51.591 102.624 50.9484C106.332 50.2564 109.298 48.032 110.978 45.1156C108.259 44.2753 104.948 44.127 101.487 44.7696Z" fill="#F15635"/>
<path d="M103.859 89.7516L103.019 89.8999L103.315 91.6299L102.87 91.7288L102.129 87.6261L103.315 87.4283C104.254 87.2801 104.848 87.6755 104.996 88.3181C105.095 88.8124 104.897 89.2573 104.353 89.5539L105.787 91.1851L105.243 91.2839L103.859 89.7516ZM102.673 87.9721L102.969 89.5044L103.661 89.3561C104.353 89.2573 104.6 88.8618 104.502 88.417C104.403 88.0215 104.057 87.7249 103.365 87.8238L102.673 87.9721Z" fill="#E7E8E9"/>
<path d="M108.307 88.9605L108.356 89.3065L106.132 89.702C106.28 90.3446 106.725 90.6906 107.417 90.5423C107.714 90.4929 108.01 90.394 108.257 90.1963L108.406 90.5423C108.109 90.74 107.813 90.8389 107.467 90.9377C106.577 91.086 105.786 90.6412 105.638 89.702C105.489 88.9111 105.934 88.0708 106.774 87.9225C107.565 87.8236 108.109 88.1696 108.307 88.9605ZM106.132 89.3065L107.862 89.01C107.763 88.5157 107.368 88.3179 106.923 88.4168C106.428 88.4662 106.132 88.8617 106.132 89.3065Z" fill="#E7E8E9"/>
<path d="M109.198 90.0481C109.495 90.0976 109.841 90.147 110.088 90.0976C110.385 90.0481 110.681 89.8504 110.632 89.5044C110.582 89.2572 110.434 89.1584 109.89 89.1089C109.297 89.0595 108.852 88.9112 108.803 88.4169C108.704 87.8732 109.149 87.4777 109.693 87.3789C110.039 87.3294 110.335 87.3789 110.681 87.4283L110.632 87.8238C110.335 87.7743 110.039 87.7249 109.792 87.7743C109.495 87.8238 109.248 88.0215 109.297 88.3181C109.347 88.5158 109.495 88.6146 109.94 88.6641C110.582 88.7135 111.027 88.9112 111.077 89.3561C111.176 89.9493 110.731 90.3447 110.138 90.4436C109.792 90.493 109.445 90.493 109.099 90.4436L109.198 90.0481Z" fill="#E7E8E9"/>
<path d="M114.19 87.8731L114.239 88.2191L112.015 88.6145C112.163 89.2571 112.608 89.6032 113.3 89.4549C113.596 89.4054 113.893 89.3066 114.14 89.1088L114.289 89.4549C113.992 89.6526 113.695 89.7514 113.349 89.8503C112.46 89.9986 111.669 89.5537 111.52 88.6145C111.372 87.8236 111.817 86.9833 112.657 86.835C113.448 86.7362 113.992 87.1316 114.19 87.8731ZM112.015 88.2191L113.745 87.9225C113.646 87.4282 113.25 87.2305 112.806 87.3294C112.311 87.3788 112.015 87.7742 112.015 88.2191Z" fill="#E7E8E9"/>
<path d="M114.338 86.6374L114.832 86.5385L114.684 85.5994L115.129 85.5005L115.277 86.4397L116.117 86.2914L116.216 86.6868L115.376 86.8351L115.673 88.3675C115.771 88.7629 116.019 88.9112 116.315 88.8618C116.513 88.8123 116.661 88.7629 116.76 88.7135L116.958 89.0595C116.809 89.1584 116.612 89.2572 116.414 89.3066C115.87 89.4055 115.376 89.1089 115.228 88.5158L114.931 86.9834L114.437 87.0823L114.338 86.6374Z" fill="#E7E8E9"/>
<path d="M86.4104 78.7285C86.5587 79.47 86.0644 80.162 85.3229 80.3103C84.5815 80.4586 83.8894 79.9643 83.7412 79.2228C83.5929 78.4814 84.0872 77.7893 84.8286 77.6411C85.5207 77.4928 86.2621 77.9871 86.4104 78.7285Z" fill="#101A21"/>
<path d="M90.9084 77.8882C91.0567 78.6297 90.5624 79.3217 89.821 79.47C89.0795 79.6183 88.3875 79.124 88.2392 78.3825C88.0909 77.641 88.5852 76.949 89.3267 76.8007C90.0681 76.6524 90.8096 77.1467 90.9084 77.8882Z" fill="#101A21"/>
<path d="M95.4553 77.0478C95.6036 77.7893 95.1093 78.4813 94.3679 78.6296C93.6264 78.7779 92.9344 78.2836 92.7861 77.5421C92.6378 76.8007 93.1321 76.1086 93.8735 75.9604C94.615 75.8615 95.3565 76.3558 95.4553 77.0478Z" fill="#101A21"/>
<path d="M100.004 76.2568C100.152 76.9983 99.6581 77.6903 98.9167 77.8386C98.1752 77.9869 97.4832 77.4926 97.3349 76.7511C97.1866 76.0097 97.6809 75.3177 98.4224 75.1694C99.1638 75.0211 99.8559 75.5154 100.004 76.2568Z" fill="#101A21"/>
<path d="M104.551 75.4165C104.699 76.158 104.205 76.85 103.464 76.9983C102.722 77.1466 102.03 76.6523 101.882 75.9108C101.733 75.1694 102.228 74.4773 102.969 74.329C103.711 74.1808 104.403 74.6751 104.551 75.4165Z" fill="#101A21"/>
<path d="M109.1 74.5764C109.248 75.3178 108.754 76.0099 108.012 76.1582C107.271 76.3065 106.579 75.8121 106.431 75.0707C106.282 74.3292 106.777 73.6372 107.518 73.4889C108.26 73.3901 108.952 73.8844 109.1 74.5764Z" fill="#101A21"/>
<path d="M113.647 73.7854C113.795 74.5269 113.301 75.2189 112.559 75.3672C111.818 75.5155 111.126 75.0212 110.977 74.2797C110.829 73.5382 111.323 72.8462 112.065 72.6979C112.806 72.5496 113.498 73.0439 113.647 73.7854Z" fill="#101A21"/>
<path d="M118.194 72.9451C118.342 73.6865 117.848 74.3786 117.106 74.5269C116.365 74.6751 115.673 74.1808 115.524 73.4394C115.376 72.6979 115.87 72.0059 116.612 71.8576C117.353 71.7093 118.045 72.2036 118.194 72.9451Z" fill="#101A21"/>
<path d="M84.137 65.3328C84.2853 66.0742 83.791 66.7663 83.0495 66.9145C82.308 67.0628 81.616 66.5685 81.4677 65.8271C81.3194 65.0856 81.8137 64.3936 82.5552 64.2453C83.2967 64.097 83.9887 64.5913 84.137 65.3328Z" fill="#101A21"/>
<path d="M88.635 64.4924C88.7833 65.2339 88.289 65.9259 87.5475 66.0742C86.8061 66.2225 86.1141 65.7282 85.9658 64.9867C85.8175 64.2452 86.3118 63.5532 87.0532 63.4049C87.7947 63.3061 88.5361 63.8004 88.635 64.4924Z" fill="#101A21"/>
<path d="M93.1819 63.7017C93.3302 64.4431 92.8359 65.1352 92.0944 65.2835C91.353 65.4317 90.6609 64.9374 90.5126 64.196C90.3643 63.4545 90.8586 62.7625 91.6001 62.6142C92.3416 62.4659 93.083 62.9602 93.1819 63.7017Z" fill="#101A21"/>
<path d="M97.7307 62.8613C97.879 63.6028 97.3847 64.2948 96.6432 64.4431C95.9018 64.5914 95.2098 64.0971 95.0615 63.3556C94.9132 62.6142 95.4075 61.9222 96.1489 61.7739C96.8904 61.6256 97.5824 62.1199 97.7307 62.8613Z" fill="#101A21"/>
<path d="M102.278 62.021C102.426 62.7624 101.932 63.4545 101.19 63.6027C100.449 63.751 99.7566 63.2567 99.6083 62.5153C99.46 61.7738 99.9544 61.0818 100.696 60.9335C101.437 60.8346 102.129 61.3289 102.278 62.021Z" fill="#101A21"/>
<path d="M106.826 61.23C106.975 61.9714 106.48 62.6635 105.739 62.8118C104.997 62.9601 104.305 62.4658 104.157 61.7243C104.009 60.9828 104.503 60.2908 105.245 60.1425C105.986 59.9942 106.678 60.4885 106.826 61.23Z" fill="#101A21"/>
<path d="M111.373 60.3897C111.522 61.1311 111.027 61.8231 110.286 61.9714C109.544 62.1197 108.852 61.6254 108.704 60.884C108.556 60.1425 109.05 59.4505 109.792 59.3022C110.533 59.1539 111.225 59.6482 111.373 60.3897Z" fill="#101A21"/>
<path d="M115.92 59.5494C116.068 60.2908 115.574 60.9829 114.833 61.1312C114.091 61.2795 113.399 60.7851 113.251 60.0437C113.103 59.3022 113.597 58.6102 114.338 58.4619C115.08 58.3631 115.772 58.8079 115.92 59.5494Z" fill="#101A21"/>
<path d="M42.1699 72.3518L97.4827 95.7325C101.437 97.4131 105.935 97.4131 109.89 95.7325L165.203 72.3518V117.63H42.1699V72.3518Z" fill="#F9B1A2"/>
<path d="M96.6912 103.048L44.196 147.684L44.1465 147.634C42.9602 146.498 42.2188 144.866 42.2188 143.087V71.8574L94.9117 102.059L96.6912 103.048Z" fill="#F4785D"/>
<path d="M165.202 71.8574V143.087C165.202 144.866 164.46 146.498 163.274 147.634L163.224 147.684L110.68 103.048L112.459 102.01L165.202 71.8574Z" fill="#F4785D"/>
<path d="M165.202 72.3518V143.581C165.202 145.361 164.46 146.992 163.274 148.129L163.224 148.178L110.68 103.542L112.459 102.554L165.202 72.3518Z" fill="#DB4E30"/>
<path d="M96.6912 103.542L44.196 148.178L44.1465 148.129C42.9602 146.992 42.2188 145.361 42.2188 143.581V72.3518L94.9117 102.554L96.6912 103.542Z" fill="#DB4E30"/>
<path d="M96.6912 103.542L44.1959 148.178L44.1465 148.129L94.9117 102.554L96.6912 103.542Z" fill="#F9B1A2"/>
<path d="M163.274 148.129L163.224 148.178L110.68 103.542L112.459 102.554L163.274 148.129Z" fill="#F9B1A2"/>
<path d="M163.225 147.684C162.088 148.722 160.605 149.364 158.924 149.364H48.4469C46.7663 149.364 45.2834 148.722 44.1465 147.684L96.6912 103.048C100.744 99.6373 106.627 99.6373 110.68 103.048L163.225 147.684Z" fill="#F4785D"/>
<path d="M163.225 148.178C162.088 149.216 160.605 149.859 158.924 149.859H48.4469C46.7663 149.859 45.2834 149.216 44.1465 148.178L96.6912 103.542C100.744 100.132 106.627 100.132 110.68 103.542L163.225 148.178Z" fill="#F15635"/>
<path d="M74.7444 74.8728C49.6831 62.8612 11.1273 29.1001 11.5722 13.8755C11.8193 4.73086 38.7096 10.9097 57.246 16.9896" stroke="#091A50" stroke-width="1.0676" stroke-miterlimit="10" stroke-dasharray="3.2 3.2"/>
<path d="M72.4207 72.8462C49.0894 57.7698 15.2789 19.2634 17.6516 4.23656C18.5908 -1.74454 30.207 0.430401 43.0589 5.02744" stroke="#091A50" stroke-width="1.0676" stroke-miterlimit="10" stroke-dasharray="3.2 3.2"/>
<path d="M137.324 112.835C162.435 100.873 200.941 67.1122 200.496 51.8382C200.249 43.9787 180.527 47.4389 163.226 52.3819" stroke="#091A50" stroke-width="1.0676" stroke-miterlimit="10" stroke-dasharray="3.2 3.2"/>
<path d="M139.646 110.858C162.978 95.7325 196.838 57.2755 194.416 42.1992C193.476 36.2181 181.86 38.3931 169.008 42.9901" stroke="#091A50" stroke-width="1.0676" stroke-miterlimit="10" stroke-dasharray="3.2 3.2"/>
</svg>
