<svg width="48" height="48" viewBox="0 0 48 48" fill="none" xmlns="http://www.w3.org/2000/svg">
<path d="M48 15.7697V26.3135C48 30.2464 44.8028 33.4436 40.8699 33.4436H22.8393C21.0527 33.4436 19.4669 32.5806 18.4733 31.2527C17.7918 30.3419 17.3874 29.2146 17.3874 27.9918C17.3874 25.0875 19.677 22.7023 22.5463 22.5526C22.6991 19.6802 25.0811 17.3938 27.9886 17.3938C30.9948 17.3938 33.4405 19.8395 33.4405 22.8424V29.5203H31.0266V22.8424C31.0266 21.1706 29.6636 19.8076 27.9886 19.8076C26.3167 19.8076 24.9506 21.1706 24.9506 22.8424C24.9506 23.094 24.9824 23.3424 25.0429 23.5844C25.148 23.9952 25.027 24.4283 24.7245 24.7308C24.4251 25.0302 23.992 25.1512 23.5812 25.0461C23.3392 24.9856 23.0908 24.957 22.8393 24.957C21.1674 24.957 19.8012 26.3199 19.8012 27.9918C19.8012 29.6668 21.1674 31.0298 22.8393 31.0298H40.8699C43.4716 31.0298 45.5862 28.9121 45.5862 26.3135V16.9766H32.2335C31.5648 16.9766 31.0266 16.4352 31.0266 15.7697V7.13011C31.0266 4.53155 28.9089 2.41386 26.3072 2.41386H16.9734V15.7697C16.9734 16.4352 16.432 16.9766 15.7665 16.9766H7.1301C4.52836 16.9766 2.41385 19.0911 2.41385 21.6928V31.0298H15.7665C16.0977 31.0298 16.4002 31.1635 16.6199 31.3833C16.8365 31.603 16.9734 31.9023 16.9734 32.2367V40.8731C16.9734 43.478 19.0879 45.5925 21.6865 45.5925H31.0266V34.9818H33.4405V46.7994C33.4405 47.465 32.8991 48.0064 32.2335 48.0064H21.6865C17.7568 48.0064 14.5595 44.8059 14.5595 40.8731V33.4436H1.20693C0.541366 33.4436 0 32.9023 0 32.2367V21.6928C0 17.7632 3.19724 14.5627 7.1301 14.5627H14.5595V1.20693C14.5595 0.538184 15.0977 0 15.7665 0H26.3072C30.24 0 33.4405 3.19724 33.4405 7.13011V14.5627H46.7931C47.4618 14.5627 48 15.1009 48 15.7697Z" fill="#3BEAF5"/>
</svg>
