<svg width="112" height="227" viewBox="0 0 112 227" fill="none" xmlns="http://www.w3.org/2000/svg">
<path d="M101.989 8.73773C99.4503 6.37039 95.4743 6.50977 93.107 9.04602C90.7396 11.5849 90.879 15.5609 93.4153 17.9282C95.9542 20.2955 99.9302 20.1562 102.298 17.6199C104.665 15.081 104.528 11.1051 101.989 8.73773Z" fill="#4609dc"/>
<path d="M79.3329 33.0313C76.794 30.6639 72.8181 30.8035 70.4507 33.3397C68.0834 35.8786 68.2228 39.8546 70.759 42.2219C73.298 44.5892 77.2739 44.4498 79.6413 41.9108C82.0113 39.3746 81.8719 35.3986 79.3329 33.0313Z" fill="#4609dc"/>
<path d="M102.969 55.0749C100.43 52.7076 96.4541 52.8469 94.0867 55.3832C91.7194 57.9221 91.8588 61.898 94.395 64.2654C96.9339 66.6327 100.91 66.4933 103.277 63.9571C105.645 61.4182 105.508 57.4422 102.969 55.0749Z" fill="#4609dc"/>
<path d="M56.6777 57.3206C54.1388 54.9533 50.1628 55.0928 47.7955 57.6291C45.4281 60.168 45.5675 64.1439 48.1038 66.5113C50.6427 68.8786 54.6186 68.7392 56.986 66.203C59.3533 63.6641 59.2166 59.688 56.6777 57.3206Z" fill="#4609dc"/>
<path d="M80.3136 79.3644C77.7747 76.9971 73.7988 77.1365 71.4314 79.6727C69.0641 82.2116 69.2035 86.1876 71.7398 88.5549C74.2787 90.9222 78.2546 90.7828 80.622 88.2466C82.9893 85.7077 82.8499 81.7318 80.3136 79.3644Z" fill="#4609dc"/>
<path d="M103.947 101.408C101.408 99.0402 97.4321 99.1796 95.0647 101.716C92.6974 104.255 92.8368 108.231 95.3731 110.598C97.912 112.965 101.888 112.826 104.255 110.29C106.623 107.751 106.486 103.775 103.947 101.408Z" fill="#4609dc"/>
<path d="M34.0229 81.6137C31.4839 79.2463 27.508 79.3857 25.1407 81.922C22.7733 84.4609 22.9127 88.4368 25.449 90.8041C27.9879 93.1715 31.9638 93.0321 34.3312 90.4959C36.6985 87.9569 36.5591 83.981 34.0229 81.6137Z" fill="#4609dc"/>
<path d="M57.6567 103.658C55.1177 101.291 51.1418 101.43 48.7744 103.966C46.4071 106.505 46.5465 110.481 49.0828 112.848C51.6217 115.216 55.5976 115.076 57.965 112.54C60.3323 110.001 60.1956 106.025 57.6567 103.658Z" fill="#4609dc"/>
<path d="M81.2919 125.7C78.753 123.333 74.777 123.473 72.4097 126.009C70.0424 128.548 70.1818 132.524 72.718 134.891C75.2569 137.258 79.2329 137.119 81.6002 134.583C83.9676 132.044 83.8282 128.065 81.2919 125.7Z" fill="#4609dc"/>
<path d="M104.925 147.744C102.386 145.376 98.4101 145.516 96.0428 148.052C93.6754 150.591 93.8148 154.567 96.3511 156.934C98.89 159.302 102.866 159.162 105.233 156.626C107.603 154.087 107.464 150.111 104.925 147.744Z" fill="#4609dc"/>
<path d="M11.3659 105.904C8.82694 103.536 4.85098 103.676 2.48364 106.212C0.116299 108.751 0.255705 112.727 2.79463 115.094C5.33355 117.461 9.30951 117.322 11.6769 114.786C14.0415 112.247 13.9048 108.271 11.3659 105.904Z" fill="#4609dc"/>
<path d="M35.0021 127.947C32.4632 125.58 28.4873 125.719 26.1199 128.256C23.7526 130.795 23.892 134.771 26.4282 137.138C28.9672 139.505 32.9431 139.366 35.3105 136.83C37.6778 134.291 37.5384 130.315 35.0021 127.947Z" fill="#4609dc"/>
<path d="M58.6352 149.99C56.0963 147.623 52.1203 147.763 49.753 150.299C47.3856 152.838 47.525 156.814 50.0613 159.181C52.6002 161.548 56.5761 161.409 58.9435 158.873C61.3135 156.334 61.1741 152.358 58.6352 149.99Z" fill="#4609dc"/>
<path d="M82.2714 172.034C79.7325 169.667 75.7565 169.806 73.3892 172.343C71.0219 174.881 71.1613 178.857 73.6975 181.225C76.2364 183.592 80.2124 183.453 82.5797 180.916C84.9471 178.377 84.8077 174.402 82.2714 172.034Z" fill="#4609dc"/>
<path d="M105.904 194.077C103.366 191.71 99.3896 191.849 97.0223 194.386C94.6549 196.925 94.7943 200.9 97.3306 203.268C99.8668 205.635 103.845 205.496 106.213 202.96C108.583 200.421 108.443 196.445 105.904 194.077Z" fill="#4609dc"/>
</svg>
